<svg id="Layer_1" data-name="Layer 1" xmlns="http://www.w3.org/2000/svg" viewBox="0 0 128 128"><defs><style>.cls-1{fill:#0ba4f5;}.cls-2,.cls-3,.cls-4,.cls-5{fill:none;}.cls-2,.cls-4{stroke:#000;}.cls-2,.cls-4,.cls-5{stroke-linecap:round;stroke-linejoin:round;}.cls-2{stroke-width:0.5px;}.cls-5{stroke:#0ba4f5;stroke-width:0.75px;}</style></defs><g id="Icon-Credit-Card"><path id="Fill-7" d="M116.42,113H11.35A11.27,11.27,0,0,1,0,101.63V26.39A11.27,11.27,0,0,1,11.35,15H116.42a11.27,11.27,0,0,1,11.35,11.35v75.24A11.26,11.26,0,0,1,116.42,113ZM11.35,22.7a3.6,3.6,0,0,0-3.69,3.69v75.24a3.61,3.61,0,0,0,3.69,3.7H116.42a3.62,3.62,0,0,0,3.7-3.7V26.39a3.61,3.61,0,0,0-3.7-3.69Z"/><polygon id="Fill-8" points="3.7 30.35 124.08 30.35 124.08 52.79 3.7 52.79 3.7 30.35"/><polygon id="Fill-9" class="cls-1" points="15.05 67.84 18.74 67.84 18.74 75.5 15.05 75.5 15.05 67.84"/><polygon id="Fill-10" class="cls-1" points="22.44 67.84 26.4 67.84 26.4 75.5 22.44 75.5 22.44 67.84"/><polygon id="Fill-11" class="cls-1" points="30.09 67.84 33.79 67.84 33.79 75.5 30.09 75.5 30.09 67.84"/><polygon id="Fill-12" class="cls-1" points="41.45 67.84 45.14 67.84 45.14 75.5 41.45 75.5 41.45 67.84"/><polygon id="Fill-13" class="cls-1" points="48.84 67.84 52.53 67.84 52.53 75.5 48.84 75.5 48.84 67.84"/><polygon id="Fill-14" class="cls-1" points="56.49 67.84 60.19 67.84 60.19 75.5 56.49 75.5 56.49 67.84"/><polygon id="Fill-15" class="cls-1" points="67.58 67.84 71.28 67.84 71.28 75.5 67.58 75.5 67.58 67.84"/><polygon id="Fill-16" class="cls-1" points="75.24 67.84 78.93 67.84 78.93 75.5 75.24 75.5 75.24 67.84"/><polygon id="Fill-17" class="cls-1" points="82.63 67.84 86.33 67.84 86.33 75.5 82.63 75.5 82.63 67.84"/><polygon id="Fill-18" class="cls-1" points="93.98 67.84 97.68 67.84 97.68 75.5 93.98 75.5 93.98 67.84"/><polygon id="Fill-19" class="cls-1" points="101.37 67.84 105.33 67.84 105.33 75.5 101.37 75.5 101.37 67.84"/><polygon id="Fill-20" class="cls-1" points="109.03 67.84 112.73 67.84 112.73 75.5 109.03 75.5 109.03 67.84"/><path class="cls-1" d="M106.48,91.49c-1.65-.43-2.18-.87-2.18-1.56s.73-1.35,2-1.35,1.77.62,1.81,1.53h1.61a2.89,2.89,0,0,0-2.33-2.77V85.75h-2.18v1.57a2.84,2.84,0,0,0-2.54,2.62c0,1.68,1.39,2.51,3.41,3,1.82.43,2.18,1.07,2.18,1.75,0,.5-.35,1.3-2,1.3s-2.09-.68-2.16-1.53h-1.6a3,3,0,0,0,2.67,2.78v1.58h2.18V97.26c1.41-.28,2.54-1.09,2.54-2.58C109.89,92.62,108.13,91.92,106.48,91.49Z"/><line class="cls-2" x1="99.16" y1="85.25" x2="113.23" y2="99.32"/><path class="cls-3" d="M94.18,89.34h20.95v21H94.18Z"/><circle class="cls-4" cx="106.17" cy="92.28" r="9.32"/><circle class="cls-5" cx="106.17" cy="92.28" r="10.32"/></g></svg>