<svg id="Layer_1" data-name="Layer 1" xmlns="http://www.w3.org/2000/svg" viewBox="0 0 128 128"><defs><style>.cls-1{fill:#0ba4f5;}</style></defs><path d="M108,8h-8V4a4,4,0,0,0-8,0V8H84V4a4,4,0,0,0-8,0V8H68V4a4,4,0,0,0-8,0V8H52V4a4,4,0,0,0-8,0V8H36V4a4,4,0,0,0-8,0V8H20A16,16,0,0,0,4,24v88a16,16,0,0,0,16,16h88a16,16,0,0,0,16-16V24A16,16,0,0,0,108,8Zm8,104a8,8,0,0,1-8,8H20a8,8,0,0,1-8-8V24a8,8,0,0,1,8-8h8v4a4,4,0,0,0,8,0V16h8v4a4,4,0,0,0,8,0V16h8v4a4,4,0,0,0,8,0V16h8v4a4,4,0,0,0,8,0V16h8v4a4,4,0,0,0,8,0V16h8a8,8,0,0,1,8,8Z"/><path class="cls-1" d="M20,40v72h88V40Zm64,8v8H76V48ZM52,72H44V64h8Zm8-8h8v8H60ZM52,80v8H44V80Zm8,0h8v8H60Zm16,0h8v8H76Zm0-8V64h8v8ZM68,48v8H60V48ZM52,48v8H44V48ZM28,48h8v8H28Zm0,16h8v8H28Zm0,16h8v8H28Zm0,24V96h8v8Zm16,0V96h8v8Zm16,0V96h8v8Zm16,0V96h8v8Zm24,0H92V96h8Zm0-16H92V80h8Zm0-16H92V64h8Zm0-16H92V48h8Z"/></svg>