<svg xmlns="http://www.w3.org/2000/svg" width="33.421" height="33.42" viewBox="0 0 33.421 33.42">
    <g id="prefix__check-circle-duotone_2_" data-name="check-circle-duotone (2)" transform="translate(-8 -8)">
        <path id="prefix__Path_916" d="M24.71 8a16.71 16.71 0 1 0 16.71 16.71A16.707 16.707 0 0 0 24.71 8zm10.465 13.16l-12.4 12.4a1.078 1.078 0 0 1-1.524 0l-7.006-7.01a1.078 1.078 0 0 1 0-1.524L15.77 23.5a1.078 1.078 0 0 1 1.525 0l4.721 4.721 10.11-10.11a1.078 1.078 0 0 1 1.525 0l1.524 1.525a1.078 1.078 0 0 1 0 1.524z" data-name="Path 916" style="fill:#08a5f6"/>
        <path id="prefix__Path_917" d="M104.855 169.135a1.078 1.078 0 0 1-1.524 0l-7.008-7.008a1.078 1.078 0 0 1 0-1.524l1.524-1.525a1.078 1.078 0 0 1 1.525 0l4.721 4.721 10.107-10.111a1.078 1.078 0 0 1 1.525 0l1.524 1.525a1.078 1.078 0 0 1 0 1.524z" data-name="Path 917" transform="translate(-82.077 -135.577)"/>
    </g>
</svg>
