<svg xmlns="http://www.w3.org/2000/svg" width="200.156" height="200.204" viewBox="0 0 200.156 200.204">
  <g id="companies" transform="translate(0 1.501)">
    <path id="Path_1871" data-name="Path 1871" d="M88.644,10.932,69.223-.436A8.381,8.381,0,0,0,65.016-1.5,8.929,8.929,0,0,0,59.152.565L48.691,9.916A15.919,15.919,0,0,0,44,20.33V198.594H94.039V20.33a12.056,12.056,0,0,0-5.395-9.4ZM62.765,192.4H50.255V20.392a9.914,9.914,0,0,1,2.58-5.754l9.93-8.913Zm25.019,0H69.019V176.639l18.765,10.555Zm0-12.385L69.019,169.462V157.874l18.765,10.555Zm0-18.765L69.019,150.7V139.11l18.765,10.555Zm0-18.765L69.019,131.932V120.345L87.784,130.9Zm0-18.765L69.019,113.168V101.581l18.765,10.555Zm0-18.765L69.019,94.4V82.816L87.784,93.371Zm0-18.765L69.019,75.639V64.051L87.784,74.607Zm0-18.765L69.019,56.874V45.287L87.784,55.842Zm0-18.765L69.019,38.109V26.522L87.784,37.077Zm0-18.765L69.019,19.345V6.694l16.466,9.632a6.1,6.1,0,0,1,2.3,4ZM163.7,23.364l-22.549-11.29a8.413,8.413,0,0,0-4.206-1.063,8.96,8.96,0,0,0-5.864,2.064l-10.461,9.288a15.778,15.778,0,0,0-4.691,10.367v67.615l2.127-1.126a11.853,11.853,0,0,1,4.128-1.2V32.73a9.757,9.757,0,0,1,2.564-5.676l8.382-7.443v81.157l6.255,2.94V93.23l23.456,12.385v11.7l-7.725-4.066a9.852,9.852,0,0,1,1.47,4.879V121.1l6.255,3.284v11.7l-6.255-3.3v7.068l6.255,3.3v11.7l-6.255-3.3v7.068l6.255,3.3v11.7l-6.255-3.3v7.068l6.255,3.3v11.775h-6.255V198.7H169.1V32.73a11.994,11.994,0,0,0-5.395-9.367Zm-.86,75.058L139.387,86.084V74.466L162.842,86.85Zm0-18.765L139.387,67.32V55.7l23.456,12.385Zm0-18.765L139.387,48.555V36.937l23.456,12.385Zm0-18.765L139.387,29.79v-11.6l21.267,10.665a6.1,6.1,0,0,1,2.189,3.894Z" transform="translate(24.803)" fill="#08a5f6"/>
    <path id="Path_1872" data-name="Path 1872" d="M197.028,180H175.136V110.993a10.633,10.633,0,0,0-5.676-8.882l-15.231-7.052a12.932,12.932,0,0,0-5.238-1.016,13.229,13.229,0,0,0-5.973,1.3l-12.385,6.489a11.384,11.384,0,0,0-5.536,9.163V180H62.549V37.4a11.29,11.29,0,0,0-5.567-9.163L43.675,21.392A8.741,8.741,0,0,0,39.7,20.5a9.648,9.648,0,0,0-6.255,2.189l-22.5,19.984A15.95,15.95,0,0,0,6.255,53.135V66.974l-.453.391.453.547V87.3l-.453.391.453.547v19.39l-.453.391.453.547v19.39l-.453.391.453.547v19.39l-.453.391.453.547v19.39l-.453.391.453.547V180H3.127a3.127,3.127,0,0,0,0,6.255h193.9a3.127,3.127,0,0,0,0-6.255ZM12.51,171.508l23.456-19.937v11.462l-20,16.919H12.51ZM25.6,180l10.367-8.772V180ZM54.12,33.792A5.238,5.238,0,0,1,56.294,37.4V180H42.22V27.678ZM12.51,53.151a9.961,9.961,0,0,1,2.6-5.786L35.965,28.8V41.736L12.51,61.673Zm0,16.732L35.965,49.929V62.048L12.51,82Zm0,20.328L35.965,70.258V82.377L12.51,102.33Zm0,20.328L35.965,90.586V102.7L12.51,122.658Zm0,20.328,23.456-19.953v12.119L12.51,142.986Zm0,20.328,23.456-19.953v12.119L12.51,163.315ZM145.426,180H131.352V110.993a5.332,5.332,0,0,1,2.189-3.706l11.884-6.255Zm23.456,0h-17.2V100.766l15.152,7.021a4.6,4.6,0,0,1,2.048,3.127Z" transform="translate(0 12.402)"/>
  </g>
</svg>
