<svg xmlns="http://www.w3.org/2000/svg" width="37" height="23.786" viewBox="0 0 37 23.786">
    <g id="prefix__equals-duotone" transform="translate(0 -112)">
        <path id="prefix__Path_1295" d="M37 306.643v2.643a2.643 2.643 0 0 1-2.643 2.643H2.643A2.643 2.643 0 0 1 0 309.286v-2.643A2.643 2.643 0 0 1 2.643 304h31.714A2.643 2.643 0 0 1 37 306.643z" data-name="Path 1295" transform="translate(0 -176.143)" style="fill:#08a5f6"/>
        <path id="prefix__Path_1296" d="M37 114.643v2.643a2.643 2.643 0 0 1-2.643 2.643H2.643A2.643 2.643 0 0 1 0 117.286v-2.643A2.643 2.643 0 0 1 2.643 112h31.714A2.643 2.643 0 0 1 37 114.643z" data-name="Path 1296"/>
    </g>
</svg>
