<svg width="116" height="106" viewBox="0 0 116 106" fill="none" xmlns="http://www.w3.org/2000/svg">
<path d="M1.5 61.4C1.5 65.15 3.02004 68.55 5.48004 71.01C7.08004 72.61 9.08 73.82 11.31 74.46V48.32C5.64 49.96 1.5 55.2 1.5 61.39V61.4Z" fill="#08A5F6"/>
<path d="M114.28 61.4C114.28 65.15 112.76 68.55 110.3 71.01C108.7 72.61 106.7 73.82 104.47 74.46V48.32C110.14 49.96 114.28 55.2 114.28 61.39V61.4Z" fill="#08A5F6"/>
<path d="M105.96 48.08H102.96C102.96 23.22 82.74 3 57.88 3C33.02 3 12.8 23.22 12.8 48.08H9.80005C9.80005 21.57 31.37 0 57.88 0C84.39 0 105.96 21.57 105.96 48.08Z" fill="black"/>
<path d="M102.45 76.51H95.9501V46.3H102.45C109.8 46.3 115.78 52.28 115.78 59.63V63.18C115.78 70.53 109.8 76.51 102.45 76.51ZM98.9501 73.51H102.45C108.15 73.51 112.78 68.87 112.78 63.18V59.63C112.78 53.93 108.14 49.3 102.45 49.3H98.9501V73.51Z" fill="black"/>
<path d="M93.86 81.87H92.79C89.99 81.87 87.7101 79.59 87.7101 76.79V46.01C87.7101 43.21 89.99 40.93 92.79 40.93H93.86C96.66 40.93 98.9401 43.21 98.9401 46.01V76.79C98.9401 79.59 96.66 81.87 93.86 81.87ZM92.79 43.92C91.64 43.92 90.7101 44.85 90.7101 46V76.78C90.7101 77.93 91.64 78.86 92.79 78.86H93.86C95.01 78.86 95.9401 77.93 95.9401 76.78V46C95.9401 44.85 95.01 43.92 93.86 43.92H92.79Z" fill="black"/>
<path d="M22.9901 81.87H21.9201C19.1201 81.87 16.8401 79.59 16.8401 76.79V46.01C16.8401 43.21 19.1201 40.93 21.9201 40.93H22.9901C25.7901 40.93 28.0701 43.21 28.0701 46.01V76.79C28.0701 79.59 25.7901 81.87 22.9901 81.87ZM21.9201 43.92C20.7701 43.92 19.8401 44.85 19.8401 46V76.78C19.8401 77.93 20.7701 78.86 21.9201 78.86H22.9901C24.1401 78.86 25.0701 77.93 25.0701 76.78V46C25.0701 44.85 24.1401 43.92 22.9901 43.92H21.9201Z" fill="black"/>
<path d="M19.83 76.51H13.33C5.98002 76.51 0 70.53 0 63.18V59.63C0 52.28 5.98002 46.3 13.33 46.3H19.83V76.51ZM13.33 49.3C7.63002 49.3 3 53.94 3 59.63V63.18C3 68.88 7.64002 73.51 13.33 73.51H16.83V49.3H13.33Z" fill="black"/>
<path d="M72.9601 105.88H68.0801V102.88H72.9601C85.6401 102.88 95.9501 92.57 95.9501 79.89V75.01H98.9501V79.89C98.9501 94.22 87.2901 105.88 72.9601 105.88Z" fill="black"/>
<path d="M68.9 105.88H62.55C59.65 105.88 57.3 103.52 57.3 100.63V99.5099C57.3 96.6099 59.66 94.2599 62.55 94.2599H68.9C71.8 94.2599 74.15 96.6199 74.15 99.5099V100.63C74.15 103.53 71.79 105.88 68.9 105.88ZM62.55 97.2501C61.31 97.2501 60.3 98.2601 60.3 99.5001V100.62C60.3 101.86 61.31 102.87 62.55 102.87H68.9C70.14 102.87 71.15 101.86 71.15 100.62V99.5001C71.15 98.2601 70.14 97.2501 68.9 97.2501H62.55Z" fill="black"/>
<path d="M49.14 59.9H46.14V62.9H49.14V59.9Z" fill="black"/>
<path d="M59.39 59.9H56.39V62.9H59.39V59.9Z" fill="black"/>
<path d="M69.64 59.9H66.64V62.9H69.64V59.9Z" fill="black"/>
</svg>
