<svg width="134" height="79" viewBox="0 0 134 79" fill="none" xmlns="http://www.w3.org/2000/svg">
<path d="M95.99 77.2982L93.77 48.5709L77.7199 37.055L76.17 58.124L71.7299 54.6522L68.9399 60.8016L72.7799 77.2982H95.99Z" fill="#08A5F6"/>
<path d="M37.46 77.2982L39.68 48.5709L55.73 37.055L57.28 58.124L61.72 54.6522L64.51 60.8016L60.67 77.2982H37.46Z" fill="#08A5F6"/>
<path d="M38.96 77.2982H35.96C35.96 75.5509 37.96 51.1804 38.19 48.4121C38.23 47.8902 38.48 47.425 38.86 47.1413L54.9 35.2397L56.54 38.0875L41.1 49.5466C40.21 60.3704 38.95 76.1296 38.95 77.3095L38.96 77.2982Z" fill="black"/>
<path d="M57.3399 60.6881C57.1499 60.6881 56.9599 60.6427 56.7799 60.5633C56.2599 60.325 55.8999 59.7691 55.8499 59.1224L54.24 36.794C54.19 36.0793 54.5399 35.3985 55.1199 35.1035C55.6999 34.8086 56.3799 34.9561 56.8199 35.478L67.8199 48.5255C68.0999 48.8659 68.2499 49.3197 68.2299 49.7735C68.2099 50.2387 68.0299 50.6698 67.7199 50.9762L58.3399 60.2456C58.0599 60.5179 57.7099 60.6654 57.3499 60.6654L57.3399 60.6881ZM57.5699 41.3096L58.5999 55.4917L64.5599 49.6033L57.5699 41.3096Z" fill="black"/>
<path d="M60.67 79C60.55 79 60.42 78.9773 60.3 78.9433C59.5 78.705 59.01 77.786 59.22 76.867L63.05 59.9279C63.26 59.0202 64.08 58.4756 64.88 58.7026C65.68 58.9408 66.17 59.8598 65.96 60.7788L62.13 77.7179C61.96 78.4894 61.35 79 60.68 79H60.67Z" fill="black"/>
<path d="M97.49 77.2982H94.49C94.49 76.1296 93.23 60.3591 92.34 49.5353L76.9 38.0761L78.54 35.2284L94.58 47.13C94.96 47.4136 95.21 47.8788 95.25 48.4007C95.48 51.1691 97.48 75.5509 97.48 77.2868L97.49 77.2982Z" fill="black"/>
<path d="M76.11 60.6881C75.75 60.6881 75.4 60.5406 75.12 60.2683L65.74 50.9989C65.43 50.6925 65.25 50.2614 65.23 49.7962C65.21 49.3311 65.36 48.8772 65.64 48.5482L76.64 35.5007C77.08 34.9788 77.76 34.8313 78.34 35.1263C78.92 35.4212 79.27 36.102 79.22 36.8168L77.61 59.1451C77.56 59.7804 77.2 60.3364 76.68 60.586C76.5 60.6654 76.31 60.7108 76.12 60.7108L76.11 60.6881ZM68.9 49.6034L74.86 55.4918L75.89 41.3097L68.9 49.6034Z" fill="black"/>
<path d="M68.9399 62.0609H64.4999C63.9499 62.0609 63.4499 61.7206 63.1899 61.1873L60.4099 55.4805C60.0699 54.777 60.2 53.9034 60.74 53.3701L65.74 48.4234C66.31 47.8675 67.1499 47.8675 67.7099 48.4234L72.7099 53.3701C73.2399 53.892 73.3799 54.777 73.0399 55.4805L70.2599 61.1873C69.9999 61.7319 69.4899 62.0609 68.9499 62.0609H68.9399ZM65.3799 58.6572H68.05L69.8199 55.038L66.7199 51.9746L63.6199 55.038L65.39 58.6572H65.3799Z" fill="black"/>
<path d="M72.7799 79C72.1099 79 71.5 78.4894 71.33 77.7179L67.4999 60.7788C67.2899 59.8712 67.78 58.9408 68.58 58.7026C69.38 58.4756 70.2 59.0202 70.41 59.9279L74.24 76.867C74.45 77.7746 73.96 78.705 73.16 78.9433C73.04 78.9773 72.91 79 72.79 79H72.7799Z" fill="black"/>
<path d="M86.3 68.2783H77.72C76.89 68.2783 76.22 67.5182 76.22 66.5765C76.22 65.6348 76.89 64.8746 77.72 64.8746H86.3C87.13 64.8746 87.8 65.6348 87.8 66.5765C87.8 67.5182 87.13 68.2783 86.3 68.2783Z" fill="black"/>
<path d="M66.72 35.9205C59.46 35.9205 53.55 27.865 53.55 17.9602C53.55 8.05544 59.46 0 66.72 0C73.98 0 79.89 8.05544 79.89 17.9602C79.89 27.865 73.98 35.9205 66.72 35.9205ZM66.72 3.41505C61.11 3.41505 56.55 9.93882 56.55 17.9716C56.55 26.0043 61.11 32.5281 66.72 32.5281C72.33 32.5281 76.89 26.0043 76.89 17.9716C76.89 9.93882 72.33 3.41505 66.72 3.41505Z" fill="black"/>
<path d="M103.46 39.451L92.6814 47.4506L94.3236 50.299L105.102 42.2995L103.46 39.451Z" fill="black"/>
<path d="M111.68 51.2939C111.29 51.2939 110.89 51.1123 110.6 50.772L103.21 42.0018C102.64 41.321 102.66 40.2432 103.26 39.5965C103.86 38.9498 104.81 38.9724 105.38 39.6532L112.77 48.4234C113.34 49.1041 113.32 50.182 112.72 50.8287C112.43 51.1464 112.06 51.3052 111.68 51.3052V51.2939Z" fill="black"/>
<path d="M130.45 71.5346C130.43 70.5589 129.26 58.3055 128.44 49.8076L118.25 42.24L119.89 39.3923L130.67 47.391C131.04 47.6746 131.29 48.1171 131.34 48.6277C131.69 52.2356 133.45 70.3206 133.45 71.5119H130.45V71.5346Z" fill="black"/>
<path d="M111.68 68.2784C110.85 68.2784 110.18 67.5183 110.18 66.5766V49.5921C110.18 49.1496 110.33 48.7298 110.6 48.4121L117.99 39.6419C118.56 38.9612 119.51 38.9385 120.11 39.5852C120.71 40.2319 120.73 41.3097 120.16 41.9904L113.18 50.2728V66.5766C113.18 67.5183 112.51 68.2784 111.68 68.2784Z" fill="black"/>
<path d="M111.68 40.8785C106.53 40.8785 102.34 35.217 102.34 28.2508C102.34 21.2845 106.53 15.623 111.68 15.623C116.83 15.623 121.02 21.2845 121.02 28.2508C121.02 35.217 116.83 40.8785 111.68 40.8785ZM111.68 19.0268C108.18 19.0268 105.34 23.1679 105.34 28.2508C105.34 33.3337 108.19 37.4748 111.68 37.4748C115.17 37.4748 118.02 33.3337 118.02 28.2508C118.02 23.1679 115.17 19.0268 111.68 19.0268Z" fill="black"/>
<path d="M29.9898 39.4255L28.3475 42.274L39.1263 50.2735L40.7685 47.4251L29.9898 39.4255Z" fill="black"/>
<path d="M21.77 51.2939C21.4 51.2939 21.02 51.1351 20.73 50.8174C20.13 50.1707 20.11 49.0929 20.68 48.4121L28.07 39.6419C28.64 38.9612 29.59 38.9385 30.19 39.5852C30.79 40.2319 30.81 41.3097 30.24 41.9904L22.85 50.7607C22.56 51.1124 22.16 51.2826 21.77 51.2826V51.2939Z" fill="black"/>
<path d="M3 71.5346H0C0 70.332 1.76002 52.2469 2.11002 48.639C2.16002 48.1284 2.4 47.6746 2.78 47.4023L13.56 39.4036L15.2 42.2514L5.01001 49.8189C4.18001 58.3169 3.02 70.5702 3 71.5459V71.5346Z" fill="black"/>
<path d="M21.77 68.2784C20.94 68.2784 20.27 67.5183 20.27 66.5766V50.2728L13.29 41.9904C12.72 41.3097 12.74 40.2319 13.34 39.5852C13.94 38.9385 14.89 38.9612 15.46 39.6419L22.85 48.4121C23.12 48.7298 23.27 49.1496 23.27 49.5921V66.5766C23.27 67.5183 22.6 68.2784 21.77 68.2784Z" fill="black"/>
<path d="M21.77 40.8785C16.62 40.8785 12.43 35.217 12.43 28.2508C12.43 21.2845 16.62 15.623 21.77 15.623C26.92 15.623 31.11 21.2845 31.11 28.2508C31.11 35.217 26.92 40.8785 21.77 40.8785ZM21.77 19.0268C18.27 19.0268 15.43 23.1679 15.43 28.2508C15.43 33.3337 18.28 37.4748 21.77 37.4748C25.26 37.4748 28.11 33.3337 28.11 28.2508C28.11 23.1679 25.26 19.0268 21.77 19.0268Z" fill="black"/>
</svg>
