<svg width="84" height="94" viewBox="0 0 84 94" fill="none" xmlns="http://www.w3.org/2000/svg">
<path d="M42.4206 5.46674H28.7976V7.85394H42.4206V5.46674Z" fill="black"/>
<path d="M43.0811 94H6.64447C2.9841 94 0.00805664 91.024 0.00805664 87.3636V6.63644C0.00805664 2.97606 2.9841 0 6.64447 0H64.5818C68.2422 0 71.2183 2.97606 71.2183 6.63644V32.5137C71.2183 33.1742 70.6851 33.7073 70.0247 33.7073C69.3642 33.7073 68.8311 33.1742 68.8311 32.5137V6.63644C68.8311 4.29698 66.9293 2.3872 64.5818 2.3872H6.64447C4.30501 2.3872 2.39526 4.28902 2.39526 6.63644V87.3636C2.39526 89.7031 4.29706 91.6128 6.64447 91.6128H43.0811C43.7416 91.6128 44.2747 92.1459 44.2747 92.8064C44.2747 93.4669 43.7416 94 43.0811 94Z" fill="black"/>
<path d="M42.4206 86.1541H28.7976V88.5413H42.4206V86.1541Z" fill="black"/>
<path d="M70.0247 13.3206H1.20166C0.541198 13.3206 0.00805664 12.7875 0.00805664 12.127C0.00805664 11.4666 0.541198 10.9334 1.20166 10.9334H70.0247C70.6851 10.9334 71.2183 11.4666 71.2183 12.127C71.2183 12.7875 70.6851 13.3206 70.0247 13.3206Z" fill="black"/>
<path d="M42.4206 83.0825H1.1936C0.533141 83.0825 0 82.5494 0 81.8889C0 81.2285 0.533141 80.6953 1.1936 80.6953H42.4206C43.081 80.6953 43.6142 81.2285 43.6142 81.8889C43.6142 82.5494 43.081 83.0825 42.4206 83.0825Z" fill="black"/>
<path d="M15.5486 19.7024H11.2914C9.87191 19.7024 8.72119 20.8531 8.72119 22.2726V26.5298C8.72119 27.9493 9.87191 29.1 11.2914 29.1H15.5486C16.9681 29.1 18.1188 27.9493 18.1188 26.5298V22.2726C18.1188 20.8531 16.9681 19.7024 15.5486 19.7024Z" fill="#08A5F6"/>
<path d="M30.1106 19.7024H25.8534C24.4339 19.7024 23.2832 20.8531 23.2832 22.2726V26.5298C23.2832 27.9493 24.4339 29.1 25.8534 29.1H30.1106C31.5301 29.1 32.6808 27.9493 32.6808 26.5298V22.2726C32.6808 20.8531 31.5301 19.7024 30.1106 19.7024Z" fill="#08A5F6"/>
<path d="M44.6805 19.7024H40.4234C39.0039 19.7024 37.8531 20.8531 37.8531 22.2726V26.5298C37.8531 27.9493 39.0039 29.1 40.4234 29.1H44.6805C46.1 29.1 47.2508 27.9493 47.2508 26.5298V22.2726C47.2508 20.8531 46.1 19.7024 44.6805 19.7024Z" fill="#08A5F6"/>
<path d="M15.5486 34.8929H11.2914C9.87191 34.8929 8.72119 36.0437 8.72119 37.4631V41.7204C8.72119 43.1398 9.87191 44.2906 11.2914 44.2906H15.5486C16.9681 44.2906 18.1188 43.1398 18.1188 41.7204V37.4631C18.1188 36.0437 16.9681 34.8929 15.5486 34.8929Z" fill="#08A5F6"/>
<path d="M30.1106 34.8929H25.8534C24.4339 34.8929 23.2832 36.0437 23.2832 37.4631V41.7204C23.2832 43.1398 24.4339 44.2906 25.8534 44.2906H30.1106C31.5301 44.2906 32.6808 43.1398 32.6808 41.7204V37.4631C32.6808 36.0437 31.5301 34.8929 30.1106 34.8929Z" fill="#08A5F6"/>
<path d="M15.5486 50.0914H11.2914C9.87191 50.0914 8.72119 51.2422 8.72119 52.6617V56.9188C8.72119 58.3383 9.87191 59.489 11.2914 59.489H15.5486C16.9681 59.489 18.1188 58.3383 18.1188 56.9188V52.6617C18.1188 51.2422 16.9681 50.0914 15.5486 50.0914Z" fill="#08A5F6"/>
<path d="M30.1106 50.0914H25.8534C24.4339 50.0914 23.2832 51.2422 23.2832 52.6617V56.9188C23.2832 58.3383 24.4339 59.489 25.8534 59.489H30.1106C31.5301 59.489 32.6808 58.3383 32.6808 56.9188V52.6617C32.6808 51.2422 31.5301 50.0914 30.1106 50.0914Z" fill="#08A5F6"/>
<path d="M60.7541 47.6326C60.0937 47.6326 59.5605 47.0995 59.5605 46.439V37.3756C59.5605 36.7151 60.0937 36.182 60.7541 36.182H64.3031C66.9211 36.182 69.0457 38.3066 69.0457 40.9246C69.0457 41.5851 68.5126 42.1182 67.8521 42.1182C67.1916 42.1182 66.6585 41.5851 66.6585 40.9246C66.6585 39.6276 65.6002 38.5692 64.3031 38.5692H61.9477V46.439C61.9477 47.0995 61.4146 47.6326 60.7541 47.6326Z" fill="black"/>
<path d="M77.6874 78.3081H62.4412C61.7807 78.3081 61.2476 77.775 61.2476 77.1145C61.2476 76.4541 61.7807 75.9209 62.4412 75.9209H76.7325C76.8996 75.2207 77.1622 74.2022 77.5362 73.0484C79.5494 66.7939 80.6555 60.2529 80.8305 53.5847C80.8465 52.9242 81.4194 52.3752 82.056 52.4229C82.7164 52.4388 83.2337 52.9879 83.2177 53.6484C83.0347 60.5394 81.8889 67.3111 79.812 73.7804C79.1754 75.7618 78.8651 77.3294 78.8651 77.3453C78.7537 77.9023 78.2683 78.3081 77.6954 78.3081H77.6874Z" fill="black"/>
<path d="M54.9216 78.3082C54.3566 78.3082 53.8473 77.9023 53.7439 77.3215C53.7359 77.2578 52.5821 70.9795 48.5159 66.4279C47.3939 65.1786 46.3356 63.7144 45.3569 62.0831C43.0811 58.2875 41.8795 53.8871 41.8795 49.3594C41.8795 46.3833 44.2985 43.9564 47.2825 43.9564C49.5026 43.9564 51.5238 45.3489 52.3195 47.4178L52.4628 47.7838V27.9382C52.4628 25.3203 54.5874 23.1956 57.2053 23.1956C59.8233 23.1956 61.9479 25.3203 61.9479 27.9382V37.3677C61.9479 38.0281 61.4147 38.5613 60.7543 38.5613C60.0938 38.5613 59.5607 38.0281 59.5607 37.3677V27.9382C59.5607 26.6412 58.5024 25.5828 57.2053 25.5828C55.9083 25.5828 54.85 26.6412 54.85 27.9382V54.2133C54.85 54.7863 54.4362 55.2796 53.8712 55.3831C53.2983 55.4865 52.7492 55.1762 52.5423 54.6351L50.0915 48.2692C49.6459 47.1154 48.5159 46.3356 47.2746 46.3356C45.6115 46.3356 44.2588 47.6883 44.2588 49.3514C44.2588 53.4494 45.341 57.4201 47.3939 60.8498C48.2931 62.3537 49.2639 63.6905 50.2825 64.8284C54.8181 69.8973 56.0356 76.6132 56.0833 76.8997C56.1947 77.5522 55.765 78.1649 55.1125 78.2763C55.0409 78.2923 54.9693 78.2922 54.9057 78.2922L54.9216 78.3082Z" fill="black"/>
<path d="M74.9501 53.3619C74.2897 53.3619 73.7565 52.8288 73.7565 52.1683V43.5744C73.7565 42.2773 72.6982 41.219 71.4011 41.219H69.0458V49.0888C69.0458 49.7493 68.5126 50.2824 67.8522 50.2824C67.1917 50.2824 66.6586 49.7493 66.6586 49.0888V40.0254C66.6586 39.365 67.1917 38.8318 67.8522 38.8318H71.4011C74.0191 38.8318 76.1437 40.9564 76.1437 43.5744V52.1683C76.1437 52.8288 75.6106 53.3619 74.9501 53.3619Z" fill="black"/>
<path d="M82.048 54.8181C81.3875 54.8181 80.8544 54.2849 80.8544 53.6245V48.1101C80.8544 46.813 79.7961 45.7547 78.499 45.7547H74.9501C74.2896 45.7547 73.7565 45.2215 73.7565 44.5611C73.7565 43.9006 74.2896 43.3675 74.9501 43.3675H78.499C81.117 43.3675 83.2416 45.4921 83.2416 48.1101V53.6245C83.2416 54.2849 82.7085 54.8181 82.048 54.8181Z" fill="black"/>
<path d="M79.6529 94H52.1365C51.476 94 50.9429 93.4668 50.9429 92.8064V81.881C50.9429 81.2205 51.476 80.6874 52.1365 80.6874H79.6529C80.3134 80.6874 80.8465 81.2205 80.8465 81.881V92.8064C80.8465 93.4668 80.3134 94 79.6529 94ZM53.3301 91.6128H78.4593V83.0746H53.3301V91.6128Z" fill="black"/>
<path d="M73.5337 89.5678C72.3083 89.5678 71.3136 88.5731 71.3136 87.3477C71.3136 86.1223 72.3083 85.1276 73.5337 85.1276C74.7591 85.1276 75.7538 86.1223 75.7538 87.3477C75.7538 88.5731 74.7591 89.5678 73.5337 89.5678ZM73.5337 87.1806C73.4462 87.1806 73.3666 87.2522 73.3666 87.3477C73.3666 87.5307 73.7008 87.5307 73.7008 87.3477C73.7008 87.2602 73.6292 87.1806 73.5337 87.1806Z" fill="black"/>
</svg>
