<svg xmlns="http://www.w3.org/2000/svg" width="195.914" height="164" viewBox="0 0 195.914 164">
  <g id="HR_Icon" data-name="HR Icon" transform="translate(-150 -347.783)">
    <path id="Path_1297" data-name="Path 1297" d="M228.669,399.778H193.487a17.294,17.294,0,0,0-17.29,17.291V424.7a1.9,1.9,0,0,0,1.9,1.905h28.2a.647.647,0,0,0,.645-.645v-8.556a.806.806,0,0,1,.13-.43l1.878-2.822a.782.782,0,0,0-.262-1.112l-2.242-1.3a.76.76,0,0,1-.393-.672V405.72a10.06,10.06,0,0,1,10.052,0v5.353a.76.76,0,0,1-.393.672l-2.242,1.3a.788.788,0,0,0-.262,1.112l1.877,2.822a.718.718,0,0,1,.131.43v8.556a.647.647,0,0,0,.645.645h28.2a1.9,1.9,0,0,0,1.907-1.905v-7.633a17.3,17.3,0,0,0-17.3-17.291Z" transform="translate(3.982 7.902)" fill="#08a5f6"/>
    <path id="Path_1298" data-name="Path 1298" d="M217.46,393.287a12,12,0,0,1-3.746,3.139,9.04,9.04,0,0,1-8.585,0,13.051,13.051,0,0,1-5.251-5.409,18.613,18.613,0,0,1-2.185-8.884,17.824,17.824,0,0,1,3.7-11.163c.075-.094.159-.179.243-.271a25.418,25.418,0,0,0,12.349,5.026l-2.551-6.708s7.175,4.568,9.323,9.211a19.607,19.607,0,0,1,.393,3.9,17.783,17.783,0,0,1-3.69,11.154Zm-21.756,4.6a19.377,19.377,0,0,0,6.034,5.026,16.445,16.445,0,0,0,15.367,0,20.327,20.327,0,0,0,8.285-8.389,25.859,25.859,0,0,0,3.074-12.387,26.246,26.246,0,0,0-2.306-10.855,6.106,6.106,0,0,0-.356-3.531c-1.907-4.083-8.2-7.922-15.544-9.173a15.367,15.367,0,0,0-10.808,2.055,13.048,13.048,0,0,0-5.895,8.389c-.076.336-.151.653-.225.971a25.9,25.9,0,0,0-2.942,12.144,25.006,25.006,0,0,0,5.315,15.75Z" transform="translate(6.138 1.605)" fill="#08a5f6"/>
    <path id="Path_1299" data-name="Path 1299" d="M323.234,499.471H303.009a2.859,2.859,0,0,1-2.82-2.372l-1.251-9.959a2.022,2.022,0,0,1,2.157-2.242h19.525a2.953,2.953,0,0,1,2.849,2.242l1.849,9.959a1.98,1.98,0,0,1-2.083,2.372Zm-25.568-22.495-1.139-9.042a1.888,1.888,0,0,1,2.064-2.028H317.2a2.76,2.76,0,0,1,2.7,2.028l1.681,9.042a1.853,1.853,0,0,1-2.008,2.15H300.329a2.674,2.674,0,0,1-2.663-2.15Zm-2.3-18.281-1.026-8.23c-.131-1.018.757-1.849,1.98-1.849H314.1a2.578,2.578,0,0,1,2.55,1.849l1.532,8.23c.206,1.084-.664,1.962-1.924,1.962H297.9a2.5,2.5,0,0,1-2.533-1.962Zm-4.717,40.776H270.427a2.6,2.6,0,0,1-2.635-2.372l-.477-9.959a2.218,2.218,0,0,1,2.327-2.242h19.523a2.666,2.666,0,0,1,2.673,2.242l1.083,9.959a2.163,2.163,0,0,1-2.271,2.372ZM266.4,467.934a2.065,2.065,0,0,1,2.222-2.028h18.608a2.5,2.5,0,0,1,2.541,2.028l.971,9.042a2.013,2.013,0,0,1-2.167,2.15H269.334a2.429,2.429,0,0,1-2.5-2.15l-.429-9.042Zm-.832-17.469a1.948,1.948,0,0,1,2.129-1.849h17.768a2.354,2.354,0,0,1,2.419,1.849l.888,8.23a1.89,1.89,0,0,1-2.074,1.962H268.343a2.276,2.276,0,0,1-2.382-1.962l-.392-8.23Zm-7.5,49.005H205.261A2.156,2.156,0,0,1,203,497.1l1.075-9.959a2.67,2.67,0,0,1,2.671-2.242h50.976a2.426,2.426,0,0,1,2.494,2.242l.308,9.959a2.371,2.371,0,0,1-2.456,2.372Zm-56.489-49.005-1.037,8.23a2.492,2.492,0,0,1-2.531,1.962H179.654a1.733,1.733,0,0,1-1.924-1.962l1.532-8.23a2.582,2.582,0,0,1,2.56-1.849h17.767a1.785,1.785,0,0,1,1.989,1.849Zm-2.195,17.469-1.13,9.042a2.675,2.675,0,0,1-2.671,2.15H176.339a1.843,1.843,0,0,1-2-2.15l1.681-9.042a2.739,2.739,0,0,1,2.691-2.028H197.32a1.888,1.888,0,0,1,2.064,2.028Zm-2.41,19.206-1.243,9.959a2.866,2.866,0,0,1-2.82,2.372H172.677A1.98,1.98,0,0,1,170.6,497.1l1.851-9.959A2.943,2.943,0,0,1,175.3,484.9h19.524a2.02,2.02,0,0,1,2.148,2.242Zm32.535-19.206-.429,9.042a2.428,2.428,0,0,1-2.5,2.15H207.334a2.024,2.024,0,0,1-2.168-2.15l.982-9.042a2.5,2.5,0,0,1,2.541-2.028h18.6a2.065,2.065,0,0,1,2.222,2.028Zm-1.942-7.277H209.221a1.884,1.884,0,0,1-2.074-1.962l.887-8.23a2.336,2.336,0,0,1,2.41-1.849h17.777a1.946,1.946,0,0,1,2.121,1.849l-.394,8.23a2.261,2.261,0,0,1-2.381,1.962Zm8.987-1.962.243-8.23a2.145,2.145,0,0,1,2.271-1.849h17.776a2.133,2.133,0,0,1,2.271,1.849l.251,8.23a2.075,2.075,0,0,1-2.233,1.962H238.778a2.062,2.062,0,0,1-2.223-1.962Zm2.1,7.211h18.608a2.259,2.259,0,0,1,2.373,2.028l.28,9.042a2.22,2.22,0,0,1-2.336,2.15H238.339a2.207,2.207,0,0,1-2.335-2.15l.271-9.042a2.272,2.272,0,0,1,2.382-2.028ZM173.022,355.649a.553.553,0,0,1,.552-.552H322.337a.547.547,0,0,1,.552.552v83.466H173.022V355.649Zm158.068,87.035c-.15-.616-.888-87.035-.888-87.035a7.878,7.878,0,0,0-7.866-7.866H173.574a7.87,7.87,0,0,0-7.857,7.866s-.748,86.418-.888,87.035l-14.7,64.046a3.976,3.976,0,0,0,4.092,5.054H341.7a3.971,3.971,0,0,0,4.081-5.054l-14.694-64.046Z"/>
    <path id="Path_1300" data-name="Path 1300" d="M293.226,379.92H240.6a3.652,3.652,0,1,0,0,7.3h52.631a3.652,3.652,0,1,0,0-7.3Z" transform="translate(13.213 4.884)" fill="#08a5f6"/>
    <path id="Path_1301" data-name="Path 1301" d="M290.91,394.516H255.824a3.652,3.652,0,1,0,0,7.3H290.91a3.652,3.652,0,1,0,0-7.3Z" transform="translate(15.528 7.103)" fill="#08a5f6"/>
    <path id="Path_1302" data-name="Path 1302" d="M290.622,409.1H257.73a3.658,3.658,0,1,0,0,7.315h32.891a3.658,3.658,0,1,0,0-7.315Z" transform="translate(15.817 9.32)" fill="#08a5f6"/>
  </g>
</svg>
