<svg width="163.419" height="164" xmlns="http://www.w3.org/2000/svg" viewBox="0 0 163.419 164"><defs><clipPath id="clip0"><rect x="783" y="1540" width="138" height="137"/></clipPath></defs><g clip-path="url(#clip0)" transform="translate(-783 -1540)"><path d="M882.613 1552.25 882.613 1560.83 821.736 1560.83 821.736 1552.25ZM830.337 1577.98 830.337 1586.9 821.736 1586.9 821.736 1577.98ZM856.475 1577.98 856.475 1586.9 847.874 1586.9 847.874 1577.98ZM882.613 1577.98 882.613 1586.9 873.676 1586.9 873.676 1577.98ZM830.337 1595.48 830.337 1604.05 821.736 1604.05 821.736 1595.48ZM856.475 1595.48 856.475 1604.05 847.874 1604.05 847.874 1595.48ZM882.613 1595.48 882.613 1604.05 873.676 1604.05 873.676 1595.48ZM830.337 1612.63 830.337 1621.55 821.736 1621.55 821.736 1612.63ZM856.475 1612.63 856.475 1621.55 847.874 1621.55 847.874 1612.63ZM882.613 1612.63 882.613 1621.55 873.676 1621.55 873.676 1612.63ZM804.199 1638.7 804.199 1667.74 794.601 1667.74 794.601 1638.7ZM847.874 1638.7 847.874 1667.74 830.337 1667.74 830.337 1638.7ZM873.676 1638.7 873.676 1667.74 856.475 1667.74 856.475 1638.7ZM909.738 1638.7 909.738 1667.74 899.478 1667.74 899.478 1638.7ZM817.431 1543.01C815.12 1543.01 813.461 1544.99 813.461 1547.29L813.461 1560.49 809.166 1560.49C806.845 1560.49 804.861 1562.47 804.861 1564.79L804.861 1630.12 790.306 1630.12C787.659 1630.12 786 1632.1 786 1634.08L786 1671.7C786 1674.35 788.321 1675.99 790.306 1675.99L914.705 1675.99C917.351 1675.99 919 1673.69 919 1671.7L919 1634.08C918.338 1631.77 916.69 1630.12 914.369 1630.12L899.814 1630.12 899.814 1564.79C899.814 1562.47 897.829 1560.49 895.844 1560.49L891.213 1560.49 891.213 1547.29C891.213 1544.66 889.229 1543.01 886.908 1543.01Z" fill="#08A5F6" fill-rule="evenodd" fill-opacity="1"/></g></svg>