<svg xmlns="http://www.w3.org/2000/svg" width="163.419" height="164" viewBox="0 0 163.419 164">
  <g id="merchant_icon" data-name="merchant icon" transform="translate(-150 -323.291)">
    <path id="Path_1303" data-name="Path 1303" d="M172.98,429.852l-5.251-18.524a166.443,166.443,0,0,0,24.389-3.821,36.934,36.934,0,0,1-3.836-8.893,34.9,34.9,0,0,1-1.348-9.434,167.668,167.668,0,0,1-24.506,3.405q-2.626-9.262-5.252-18.516a1.015,1.015,0,0,1,1.03-1.286c16.6-.855,32.4-4.509,48.015-8.841-10,8.191-14.933,20.7-11.406,33.175a31.154,31.154,0,0,0,27.144,22.4c-15.369,5.2-30.93,9.7-47.287,11.421a1.618,1.618,0,0,1-1.692-1.081Zm47.9-59.161c-.168-.606-.343-1.213-.511-1.818a3.232,3.232,0,0,1,2.395-3.83,3.123,3.123,0,0,1,4.013,1.894c.167.606.342,1.2.511,1.812q3.78-1.152,7.57-2.272a3.123,3.123,0,0,1,4.013,1.877,3.226,3.226,0,0,1-2.413,3.786c-2.52.761-5.033,1.535-7.555,2.31q1.257,4.45,2.522,8.9c5.946-1.819,11.968.98,13.449,6.218.042.154.084.3.126.453,1.482,5.24-2.086,11.086-7.956,13.176.167.606.342,1.2.51,1.812a3.417,3.417,0,0,1-2.362,3.953,2.973,2.973,0,0,1-3.978-1.776c-.176-.606-.343-1.213-.519-1.819q-3.745,1.282-7.488,2.536a3.02,3.02,0,0,1-4-1.85,3.333,3.333,0,0,1,2.362-3.931q3.757-1.238,7.5-2.492-1.2-4.253-2.4-8.505c-5.929,1.886-11.976-1.009-13.509-6.424-.091-.314-.176-.621-.267-.928-1.533-5.416,2.06-11.217,7.99-13.081Zm63.367-24.216a1.668,1.668,0,0,1,1.675,1.008q2.312,8.154,4.614,16.3a168.625,168.625,0,0,0-24.506,3.412,31.848,31.848,0,0,1,3.643,8.192,30.482,30.482,0,0,1,1.148,8.732,167.658,167.658,0,0,1,24.389-3.83q2.312,8.156,4.623,16.31c.168.592-.309,1.133-1.055,1.207-16.349,1.716-31.91,6.226-47.279,11.42,9.841-8.725,14.916-20.76,11.642-32.35s-14.112-19.861-26.91-21.564c15.611-4.333,31.415-7.987,48.016-8.841ZM176.4,437.014c43.14-4.772,80.762-29.062,123.9-33.833,4.464-.511,7.354-3.522,6.357-7.045q-6.911-24.387-13.819-48.783c-.988-3.515-5.56-6.453-10.117-6.249-43.92,2.032-82.312,23.574-126.232,25.6-4.556.212-7.386,3.427-6.232,7.49q7.941,28.061,15.9,56.128a9.9,9.9,0,0,0,10.243,6.694Z" transform="translate(0 -1.833)"/>
    <path id="Path_1304" data-name="Path 1304" d="M177.04,381.462c-1.776.351-3.559.672-5.349.949a2.712,2.712,0,0,0-2.184,3.45,3.376,3.376,0,0,0,3.668,2.565c1.791-.3,3.566-.628,5.342-.995a2.886,2.886,0,0,0,2.148-3.595,3.155,3.155,0,0,0-3.624-2.375Z" transform="translate(-1.998 -5.982)" fill="#15224b"/>
    <path id="Path_1305" data-name="Path 1305" d="M187.516,423.81c-1.76.424-3.529.818-5.3,1.169a2.845,2.845,0,0,0-2.156,3.567,3.2,3.2,0,0,0,3.638,2.448c1.769-.365,3.537-.775,5.291-1.206a3.04,3.04,0,0,0,2.112-3.72,3,3,0,0,0-3.588-2.258Z" transform="translate(0.982 -10.339)" fill="#15224b"/>
    <path id="Path_1306" data-name="Path 1306" d="M265.2,361.494c1.775-.365,3.551-.693,5.341-.994a2.587,2.587,0,0,0,2.259-3.157,3.23,3.23,0,0,0-3.6-2.279q-2.7.427-5.356.957a2.76,2.76,0,0,0-2.207,3.347,3.014,3.014,0,0,0,3.559,2.126Z" transform="translate(3.667 -3.267)" fill="#15224b"/>
    <path id="Path_1307" data-name="Path 1307" d="M271.258,398.216a2.86,2.86,0,0,0,3.529,2.008q2.632-.658,5.291-1.2a2.722,2.722,0,0,0,2.221-3.281,3.052,3.052,0,0,0-3.565-2.156q-2.664.537-5.3,1.169a2.886,2.886,0,0,0-2.177,3.464Z" transform="translate(3.969 -7.23)" fill="#15224b"/>
    <path id="Path_1308" data-name="Path 1308" d="M235.64,397.559c-.037-.153-.073-.307-.109-.46a3.6,3.6,0,0,0-4.764-2.565q1.04,4.22,2.083,8.433a4.793,4.793,0,0,0,2.791-5.408Z" transform="translate(2.154 -7.312)" fill="#15224b"/>
    <path id="Path_1309" data-name="Path 1309" d="M314.713,410.718c-.357-.555-.713-1.1-1.069-1.651a11.24,11.24,0,0,1-1.153,1.747,14.635,14.635,0,0,1-8.47,4.91h0c-.415.088-.839.161-1.263.219-13.531,5.32-25.848,12.5-37.852,20.161a36.439,36.439,0,0,0,5.39-13.321c-5.671,1.681-11.317,3.543-16.9,5.466a11.878,11.878,0,0,1-4.451,5.386c.356.541.7,1.081,1.061,1.622a3.3,3.3,0,0,1-5.519,3.573c-.357-.547-.712-1.089-1.061-1.636-2.178,1.4-4.348,2.8-6.536,4.179a3.255,3.255,0,0,1-4.476-.855,3.13,3.13,0,0,1,1.094-4.341c1.1-.693,2.2-1.381,3.305-2.075-8.706,3.076-17.574,6.146-26.629,8.783a34.56,34.56,0,0,0,29.062,9.974c-13.4,8.557-27.205,16.508-42.635,21.944a1.784,1.784,0,0,1-1.993-.65q-5.4-8.318-10.817-16.639a160.568,160.568,0,0,0,22.626-9.331,42.217,42.217,0,0,1-3.229-3.354c-3.153.825-6.341,1.593-9.547,2.272a169.675,169.675,0,0,1-16.913,2.756,16.758,16.758,0,0,1-6.035-.446q8.7,13.393,17.4,26.781a10.891,10.891,0,0,0,12.063,4.078c40.635-14.585,69.876-46.709,110.519-61.294,4.2-1.52,6.1-5.093,4.036-8.257Z" transform="translate(-2.131 -8.83)" fill="#08a5f6"/>
    <path id="Path_1310" data-name="Path 1310" d="M217.611,386.783a3.642,3.642,0,0,0,4.786,2.653q-1.106-4.471-2.214-8.945a4.681,4.681,0,0,0-2.8,5.372c.074.307.153.614.227.92Z" transform="translate(1.803 -5.888)" fill="#15224b"/>
    <path id="Path_1311" data-name="Path 1311" d="M297.148,484.655h-2.4V431.224a161.754,161.754,0,0,0-16.419,10.128v43.3h-2.4a1.555,1.555,0,0,0-1.1,2.653l4.531,4.544,6.08,6.095a1.566,1.566,0,0,0,2.207,0l6.072-6.095,4.53-4.544a1.554,1.554,0,0,0-1.1-2.653Z" transform="translate(7.197 -11.111)" fill="#08a5f6"/>
    <path id="Path_1312" data-name="Path 1312" d="M159.937,337.036h2.4v21.455a138.631,138.631,0,0,0,16.42-2.843V337.036h2.4a1.554,1.554,0,0,0,1.1-2.653l-4.531-4.544-6.079-6.087a1.544,1.544,0,0,0-2.2,0l-6.08,6.087-4.529,4.544a1.554,1.554,0,0,0,1.1,2.653Z" transform="translate(-0.862)"/>
  </g>
</svg>
