<svg xmlns="http://www.w3.org/2000/svg" xmlns:xlink="http://www.w3.org/1999/xlink" width="758.655" height="857.642" viewBox="0 0 758.655 857.642">
  <defs>
    <filter id="Path_950" x="292.395" y="0" width="290.579" height="744.538" filterUnits="userSpaceOnUse">
      <feOffset dy="3" input="SourceAlpha"/>
      <feGaussianBlur stdDeviation="3" result="blur"/>
      <feFlood flood-opacity="0.161"/>
      <feComposite operator="in" in2="blur"/>
      <feComposite in="SourceGraphic"/>
    </filter>
    <filter id="Path_951" x="280.208" y="12.59" width="281.22" height="734.765" filterUnits="userSpaceOnUse">
      <feOffset dx="-1" dy="3" input="SourceAlpha"/>
      <feGaussianBlur stdDeviation="3" result="blur-2"/>
      <feFlood flood-opacity="0.031"/>
      <feComposite operator="in" in2="blur-2"/>
      <feComposite in="SourceGraphic"/>
    </filter>
    <linearGradient id="linear-gradient" x1="0.5" x2="0.5" y2="1" gradientUnits="objectBoundingBox">
      <stop offset="0" stop-color="#08a5f6"/>
      <stop offset="1" stop-color="#1c8ac1"/>
    </linearGradient>
    <filter id="Path_975" x="0" y="213.425" width="277.486" height="338.183" filterUnits="userSpaceOnUse">
      <feOffset dy="3" input="SourceAlpha"/>
      <feGaussianBlur stdDeviation="3" result="blur-3"/>
      <feFlood flood-opacity="0.161"/>
      <feComposite operator="in" in2="blur-3"/>
      <feComposite in="SourceGraphic"/>
    </filter>
    <linearGradient id="linear-gradient-2" x1="0.5" x2="0.5" y2="1" gradientUnits="objectBoundingBox">
      <stop offset="0" stop-color="#1099df"/>
      <stop offset="1" stop-color="#249ddb"/>
    </linearGradient>
    <linearGradient id="linear-gradient-3" x1="0.5" x2="0.5" y2="1" gradientUnits="objectBoundingBox">
      <stop offset="0" stop-color="#08a5f6"/>
      <stop offset="0.568" stop-color="#0f99df"/>
      <stop offset="1" stop-color="#148fce"/>
    </linearGradient>
    <filter id="Path_1023" x="595.572" y="535.044" width="156.454" height="204.119" filterUnits="userSpaceOnUse">
      <feOffset dy="3" input="SourceAlpha"/>
      <feGaussianBlur stdDeviation="3" result="blur-4"/>
      <feFlood flood-opacity="0.161"/>
      <feComposite operator="in" in2="blur-4"/>
      <feComposite in="SourceGraphic"/>
    </filter>
    <linearGradient id="linear-gradient-4" x1="0.5" x2="0.5" y2="1" gradientUnits="objectBoundingBox">
      <stop offset="0" stop-color="#08a5f6"/>
      <stop offset="1" stop-color="#139bdf"/>
    </linearGradient>
    <filter id="Path_1025" x="592.488" y="548.578" width="134" height="193.37" filterUnits="userSpaceOnUse">
      <feOffset dx="-1" dy="2" input="SourceAlpha"/>
      <feGaussianBlur stdDeviation="3" result="blur-5"/>
      <feFlood flood-opacity="0.161"/>
      <feComposite operator="in" in2="blur-5"/>
      <feComposite in="SourceGraphic"/>
    </filter>
    <clipPath id="clip-path">
      <path id="SVGID" d="M774.807,137.429Q865.1,189.442,955.4,241.44c-54.833,31.423-175.252,17.863-230.07,49.3-54.584,31.563-31.026,100.922-85.6,132.5q-90.291-52-180.581-104.011c54.584-31.563,31.019-100.93,85.6-132.5C599.563,155.292,720,168.868,774.807,137.429Z" transform="translate(-459.15 -137.429)" fill="none"/>
    </clipPath>
  </defs>
  <g id="phone_graphic" data-name="phone graphic" transform="translate(-451.721 -58.774)">
    <g id="Group_35" data-name="Group 35" transform="translate(714.496 505.896)">
      <rect id="Rectangle_34" data-name="Rectangle 34" width="1.346" height="42.661" transform="translate(0 1.171) rotate(-60.435)" fill="#08a5f6"/>
    </g>
    <g id="Group_36" data-name="Group 36" transform="translate(620.662 294.063)">
      <path id="Path_934" data-name="Path 934" d="M605.876,207.087,483.637,136.942a7.44,7.44,0,0,1-3.727-6.442V94.246h1.346V130.5a6.066,6.066,0,0,0,3.058,5.267L606.545,205.92Z" transform="translate(-479.91 -94.246)" fill="#08a5f6"/>
    </g>
    <g id="Group_37" data-name="Group 37" transform="translate(1075.632 263.224)">
      <path id="Path_935" data-name="Path 935" d="M538.39,100.058l23.954,13.8v-5.575l-23.954-13.8Z" transform="translate(-538.39 -61.799)" fill="#08a5f6"/>
      <path id="Path_936" data-name="Path 936" d="M538.39,98.658l23.954,13.8v-5.576l-23.954-13.8Z" transform="translate(-538.39 -71.295)" fill="#08a5f6"/>
      <path id="Path_937" data-name="Path 937" d="M538.39,97.257l23.954,13.8v-5.576l-23.954-13.8Z" transform="translate(-538.39 -80.789)" fill="#08a5f6"/>
      <path id="Path_938" data-name="Path 938" d="M538.39,95.856l59.373,34.2v-5.574l-59.373-34.2Z" transform="translate(-538.39 -90.282)" fill="#08a5f6"/>
      <path id="Path_939" data-name="Path 939" d="M621.232,140.8,542.188,95.271v5.574l79.043,45.525Z" transform="translate(-512.631 -56.459)" fill="#08a5f6"/>
      <path id="Path_940" data-name="Path 940" d="M621.232,139.395,542.188,93.87v5.574l79.044,45.525Z" transform="translate(-512.632 -65.953)" fill="#08a5f6"/>
      <path id="Path_941" data-name="Path 941" d="M582.4,115.632,547.916,95.769v5.574L582.4,121.206Z" transform="translate(-473.803 -53.084)" fill="#08a5f6"/>
    </g>
    <g id="Group_38" data-name="Group 38" transform="translate(1075.632 360.758)">
      <path id="Path_942" data-name="Path 942" d="M538.39,111.194l23.954,13.8v-5.576l-23.954-13.8Z" transform="translate(-538.39 -83.829)" fill="#fcc362"/>
      <path id="Path_943" data-name="Path 943" d="M538.39,109.794l23.954,13.8v-5.576l-23.954-13.8Z" transform="translate(-538.39 -93.325)" fill="#fcc362"/>
      <path id="Path_944" data-name="Path 944" d="M538.39,108.394l23.954,13.8v-5.575l-23.954-13.8Z" transform="translate(-538.39 -102.819)" fill="#fcc362"/>
      <path id="Path_945" data-name="Path 945" d="M623.761,153.388l-81.572-46.981v5.574l81.572,46.982Z" transform="translate(-512.631 -78.489)" fill="#fcc362"/>
      <path id="Path_946" data-name="Path 946" d="M623.762,151.988l-81.573-46.982v5.575l81.573,46.981Z" transform="translate(-512.632 -87.983)" fill="#fcc362"/>
    </g>
    <g id="Group_39" data-name="Group 39" transform="translate(1075.632 455.424)">
      <path id="Path_947" data-name="Path 947" d="M538.39,121.963l23.954,13.8v-5.575l-23.954-13.8Z" transform="translate(-538.39 -105.493)" fill="#08a5f6"/>
      <path id="Path_948" data-name="Path 948" d="M538.39,120.561l23.954,13.8v-5.574l-23.954-13.8Z" transform="translate(-538.39 -114.986)" fill="#08a5f6"/>
      <path id="Path_949" data-name="Path 949" d="M622.9,163.659l-80.711-46.485v5.574L622.9,169.233Z" transform="translate(-512.632 -100.151)" fill="#08a5f6"/>
    </g>
    <g transform="matrix(1, 0, 0, 1, 451.72, 58.77)" filter="url(#Path_950)">
      <path id="Path_950-2" data-name="Path 950" d="M763.384,214.443a79.821,79.821,0,0,0-33.843-38.433L541.67,67.806a22.359,22.359,0,0,0-24.6,1.408l-20.135,11.25v7.694a23.026,23.026,0,0,1,5.011,2.116L690.174,198.681A80.232,80.232,0,0,1,723.8,236.414a79.361,79.361,0,0,1,6.52,31.283l1.136,502.376c.156,0,.156,21.239.156,21.239l20.881-11.81a29.736,29.736,0,0,0,17.022-27V245.073A79.543,79.543,0,0,0,763.384,214.443Z" transform="translate(-195.54 -58.77)" fill="#d2d3d8"/>
    </g>
    <g transform="matrix(1, 0, 0, 1, 451.72, 58.77)" filter="url(#Path_951)">
      <path id="Path_951-2" data-name="Path 951" d="M506.918,69.282l-.365.2c-.607.358-1.183.755-1.759,1.159a21.955,21.955,0,0,0-9.3,18.1l1.182,523.328a73.241,73.241,0,0,0,36.784,63.236L713.655,779.088a29.878,29.878,0,0,0,31.384-.793,29.356,29.356,0,0,0,13.677-25.02l-1.144-506.407a79.369,79.369,0,0,0-6.527-31.283,80.19,80.19,0,0,0-33.625-37.733L529.192,69.446A22.365,22.365,0,0,0,506.918,69.282Zm28.343,24.74L707.773,193.38a73.25,73.25,0,0,1,36.8,63.259l1.05,464.13c.047,21.115-22.9,34.263-41.3,23.659L539.173,649.31a67.122,67.122,0,0,1-33.718-57.953l-1.081-479.643C504.343,95.929,521.5,86.095,535.26,94.022Z" transform="translate(-205.29 -47.8)" fill="#eef1f7"/>
    </g>
    <path id="Path_952" data-name="Path 952" d="M740.419,236.6a74.366,74.366,0,0,0-37.359-64.216L527.924,71.51c-13.973-8.044-31.392,1.937-31.354,17.964l1.1,486.933a68.149,68.149,0,0,0,34.232,58.84l167.659,96.565c18.688,10.752,41.973-2.591,41.927-24.025Z" transform="translate(253.714 26.389)" fill="#434343"/>
    <path id="Path_953" data-name="Path 953" d="M539.692,102.046,514.765,87.692c-2.116-1.221-3.843-4.52-3.843-7.329s1.727-4.123,3.843-2.9l24.927,14.354c2.108,1.221,3.844,4.52,3.844,7.329S541.8,103.26,539.692,102.046Z" transform="translate(351.013 82.911)" fill="#d2d3d8"/>
    <path id="Path_954" data-name="Path 954" d="M534.457,132.635c-2.443,1.408-4.434-.1-4.434-3.345V100.963c0-3.244,1.992-7.049,4.434-8.449s4.435.1,4.435,3.345v28.327C538.892,127.43,536.893,131.227,534.457,132.635Z" transform="translate(480.517 184.496)" fill="#fff"/>
    <path id="Path_955" data-name="Path 955" d="M534.436,138.985c-2.436,1.4-4.435-.1-4.435-3.345V107.313c0-3.244,2-7.049,4.435-8.457s4.435.1,4.435,3.345v28.327C538.871,133.773,536.879,137.577,534.436,138.985Z" transform="translate(480.375 227.518)" fill="#fff"/>
    <g id="Group_40" data-name="Group 40" transform="translate(814.414 495.874)">
      <path id="Path_956" data-name="Path 956" d="M549.985,130.1l5.329,3.019c21.551,12.176,39.086,41.428,40.409,66.581l3.556,2.007c-1.315-27.409-20.423-59.377-43.941-72.665l-5.33-3.019c-24.491-13.833-44.571-2.233-44.766,25.868l-.428,61.158a64.257,64.257,0,0,0,.374,6.87l3.586,2.023a60.948,60.948,0,0,1-.412-6.885l.428-61.159C508.969,128.045,527.454,117.371,549.985,130.1Z" transform="translate(-504.814 -120.186)" fill="#fcc362"/>
      <path id="Path_957" data-name="Path 957" d="M529.978,132.971l-.311,44.595c-.1,14.556-6,24.3-15.155,27.767l5.282,2.98c8.193-4.645,13.335-14.6,13.428-28.731l.311-44.595Z" transform="translate(-439.061 -33.502)" fill="#fcc362"/>
      <path id="Path_958" data-name="Path 958" d="M544.267,130.9l4.427,2.5.024-4.077-4.419-2.5c-21.092-11.919-38.387-1.929-38.55,22.274l-.047,6.022,3.555,2,.039-6.014C509.452,129.162,525.136,120.09,544.267,130.9Z" transform="translate(-498.793 -109.259)" fill="#fcc362"/>
      <path id="Path_959" data-name="Path 959" d="M543.048,175.819c.117-17.17-8.434-36.916-20.928-51.208l-.031,4.6c10.471,12.79,17.513,29.766,17.4,44.6l-.366,52.3c-.124,18.781-11.646,28.078-26.95,23.62l-.023,4.2c17.279,5.516,30.381-4.769,30.528-25.814Z" transform="translate(-455.048 -90.183)" fill="#fcc362"/>
      <path id="Path_960" data-name="Path 960" d="M509.21,165.489l.257-36.091-3.556-2.007-.249,36.084c-.171,24.2,16.851,53.581,37.935,65.5l3.462,1.953.031-4.077-3.462-1.953C524.5,214.091,509.062,187.437,509.21,165.489Z" transform="translate(-499.071 -71.335)" fill="#fcc362"/>
      <path id="Path_961" data-name="Path 961" d="M512.624,155.475l-.031,4.419c11.491,1.284,19.754-6.621,20.462-21.068l-3.548-2C528.838,148.994,522.116,155.895,512.624,155.475Z" transform="translate(-452.071 -7.365)" fill="#fcc362"/>
      <path id="Path_962" data-name="Path 962" d="M527.916,165.41c.093-12.938-5.695-27.611-14.471-39.157l-.031,5.018c6.7,9.8,11.024,21.6,10.946,32.131l-.217,31.151,3.555,2.007Z" transform="translate(-446.505 -79.05)" fill="#fcc362"/>
      <path id="Path_963" data-name="Path 963" d="M522.715,128.263l.031-4.831c-9.437,1.12-15.84,9.282-15.934,22.718l-.3,43.451c-.109,15.319,8,33.1,19.582,45.2l.031-4.5c-9.562-10.7-16.151-25.689-16.065-38.7l.3-43.451C510.438,137.094,515.331,130.045,522.715,128.263Z" transform="translate(-493.329 -98.177)" fill="#fcc362"/>
      <path id="Path_964" data-name="Path 964" d="M510.941,145.505c.1-14.058,10.1-19.9,22.328-13.109l.031-4.077c-14.191-7.9-25.8-1.128-25.908,15.179l-.007.739,3.556,2.007Z" transform="translate(-487.382 -87.395)" fill="#fcc362"/>
      <path id="Path_965" data-name="Path 965" d="M562.166,202.954l.241-34.6c.109-15.218-9.826-33.446-22.687-42.432l-.031,4.123c10.892,7.85,19.256,23.34,19.162,36.3l-.241,34.6c-.093,14.144-10.2,19.979-22.523,13.016l-3.019-1.7c-12.316-6.963-22.258-24.126-22.165-38.27l.023-2.6-3.556-2.007-.015,2.6c-.117,16.385,11.405,36.286,25.689,44.354l3.011,1.7C550.34,226.107,562.049,219.346,562.166,202.954Z" transform="translate(-487.586 -81.281)" fill="#fcc362"/>
      <path id="Path_966" data-name="Path 966" d="M550.074,164.275c.086-12.479-8.69-27.634-19.567-33.781l-2.248-1.268c-10.877-6.146-19.792-1-19.878,11.491l-.179,25.744c-.07,9.149,4.645,19.73,11.445,27.144l.031-4.645c-4.761-5.928-7.974-13.677-7.928-20.493l.179-25.744c.078-10.238,7.383-14.463,16.307-9.422l2.241,1.268c8.915,5.041,16.112,17.458,16.042,27.7l-.07,10.239L550,174.514Z" transform="translate(-481.843 -76.477)" fill="#fcc362"/>
      <path id="Path_967" data-name="Path 967" d="M524.246,143.384l.055-7.858-3.556-2.015-.054,7.866c-.046,7.056-3.586,11.164-8.675,11.437l-.031,4.606C519.119,158.01,524.176,152.766,524.246,143.384Z" transform="translate(-456.194 -29.841)" fill="#fcc362"/>
      <path id="Path_968" data-name="Path 968" d="M530.975,176.433l-.031,5.384c3.773-.739,6.286-4.225,6.325-9.772l.124-17.412c.062-8.807-6.13-19.5-13.809-23.838l-1.517-.856c-5.742-3.244-10.713-2.023-12.876,2.49l4.03,2.272c1.851-2.342,5.1-2.785,8.822-.685l1.509.856c5.718,3.229,10.332,11.2,10.285,17.746l-.124,17.419C533.7,173.087,532.64,175.258,530.975,176.433Z" transform="translate(-475.137 -66.453)" fill="#fcc362"/>
    </g>
    <g id="Group_41" data-name="Group 41" transform="translate(795.315 353.535)">
      <path id="Path_969" data-name="Path 969" d="M634.09,240.551a6.885,6.885,0,0,1-3.431-.926L509.213,169.683a13.729,13.729,0,0,1-6.854-11.841V108.494a6.613,6.613,0,0,1,9.919-5.711l122.815,70.736a11.682,11.682,0,0,1,5.851,10.1V233.7a6.773,6.773,0,0,1-3.431,5.921A6.878,6.878,0,0,1,634.09,240.551ZM508.972,104.51a3.986,3.986,0,0,0-1.992.537,3.938,3.938,0,0,0-2,3.447v49.348a11.077,11.077,0,0,0,5.547,9.569l121.438,69.95a4.236,4.236,0,0,0,6.356-3.657V183.617a9.077,9.077,0,0,0-4.536-7.834L510.971,105.047A4.036,4.036,0,0,0,508.972,104.51Z" transform="translate(-502.359 -101.89)" fill="#08a5f6"/>
    </g>
    <g id="Group_42" data-name="Group 42" transform="translate(815.784 379.678)">
      <path id="Path_970" data-name="Path 970" d="M525.239,121.666c.008,2.225-.545,3.8-1.657,4.754s-2.723,1.167-4.839.661c4.94,3.758,7.414,8.013,7.43,12.915.008,3.338-1.081,5.329-3.244,5.983s-5.2-.148-9.064-2.381a37.732,37.732,0,0,1-4.419-2.98,42.514,42.514,0,0,1-4.4-4.069l-.023-8.045a34.617,34.617,0,0,0,3.96,4.069,25.931,25.931,0,0,0,3.711,2.731c1.75,1.011,3.034,1.455,3.828,1.323s1.2-.84,1.2-2.116a5.5,5.5,0,0,0-.638-2.63,8.753,8.753,0,0,0-2.023-2.373A23.535,23.535,0,0,0,511.414,127l-1.82-1.058-.023-7.282,1.859,1.081c4.054,2.35,6.092,2.272,6.076-.249a4.3,4.3,0,0,0-.9-2.63,7.7,7.7,0,0,0-2.419-2.085,8.339,8.339,0,0,0-5.859-1.1l-3.337-8.395a9.889,9.889,0,0,1,4.792-.016,21.782,21.782,0,0,1,5.633,2.427,22.363,22.363,0,0,1,7.212,6.38A13.119,13.119,0,0,1,525.239,121.666Z" transform="translate(-480.979 -91.964)" fill="#fff"/>
      <path id="Path_971" data-name="Path 971" d="M529.468,133.238q.024,9.523-2.583,12.425t-8.037-.241a19.161,19.161,0,0,1-8-9.243,38.583,38.583,0,0,1-2.739-15.311q-.024-9.558,2.591-12.5t8.037.195a19.244,19.244,0,0,1,7.99,9.274Q529.449,124.054,529.468,133.238Zm-13.4-7.764a42.924,42.924,0,0,0,.653,8.729,5.172,5.172,0,0,0,2.108,3.493c1,.583,1.7.2,2.1-1.128q.63-2,.6-7.928a42.711,42.711,0,0,0-.653-8.714c-.421-1.844-1.121-3.042-2.109-3.61s-1.68-.21-2.1,1.081C516.258,118.7,516.048,121.389,516.063,125.474Z" transform="translate(-459.799 -78.641)" fill="#fff"/>
      <path id="Path_972" data-name="Path 972" d="M532.589,135.048q.024,9.511-2.591,12.417t-8.029-.233a19.122,19.122,0,0,1-8.005-9.25q-2.708-6.174-2.731-15.3-.034-9.569,2.591-12.5t8.029.195a19.219,19.219,0,0,1,8,9.274Q532.557,125.852,532.589,135.048Zm-13.413-7.764a41.713,41.713,0,0,0,.662,8.729,5.161,5.161,0,0,0,2.108,3.493q1.494.864,2.1-1.128c.412-1.33.607-3.976.6-7.936a43.16,43.16,0,0,0-.661-8.714c-.42-1.836-1.12-3.034-2.1-3.61s-1.7-.2-2.1,1.089C519.362,120.5,519.16,123.2,519.176,127.283Z" transform="translate(-438.645 -66.392)" fill="#fff"/>
      <path id="Path_973" data-name="Path 973" d="M523.019,146.846a41.808,41.808,0,0,1-8.535-7.344l-.031-8.146a60.139,60.139,0,0,0,5.1,5.368,28.243,28.243,0,0,0,4.839,3.766,5.515,5.515,0,0,0,2.513.957c.529-.023.793-.428.793-1.221a3.218,3.218,0,0,0-.583-1.7,18.28,18.28,0,0,0-1.93-2.388c-.886-1-2.1-2.264-3.633-3.82a36.961,36.961,0,0,1-4.147-4.987,18.8,18.8,0,0,1-2.3-4.544,15.556,15.556,0,0,1-.74-4.839q0-4.049,2.132-5.088t6.418.9l-.007-3.361,4.186,2.427.008,3.314a41.973,41.973,0,0,1,8.122,7.1l-2.388,5.594a33.714,33.714,0,0,0-7.633-6.722,4.411,4.411,0,0,0-2.272-.832q-.653.093-.653,1.027a3.186,3.186,0,0,0,.483,1.61,14.654,14.654,0,0,0,1.649,2.132c.778.887,1.859,2.023,3.26,3.392a36.073,36.073,0,0,1,6.076,7.648,14.611,14.611,0,0,1,1.859,7.033c.007,2.754-.708,4.567-2.132,5.454s-3.524.739-6.27-.451l.016,4.738-4.186-2.427Z" transform="translate(-514.368 -110.397)" fill="#fff"/>
    </g>
    <g id="Group_51" data-name="Group 51" transform="translate(460.721 278.199)">
      <path id="Path_974" data-name="Path 974" d="M471.764,274.663l236,136.694c6.364,3.688,11.5-.506,11.475-9.359l-.443-148.745c-.023-8.854-5.205-19.022-11.569-22.71l-236-136.694c-6.364-3.68-11.5.506-11.475,9.367l.443,148.745C460.219,260.815,465.4,270.983,471.764,274.663Z" transform="translate(-456.64 -90.129)" fill="#aaa"/>
      <g transform="matrix(1, 0, 0, 1, -9, -219.43)" filter="url(#Path_975)">
        <path id="Path_975-2" data-name="Path 975" d="M471.364,274.36l236,136.694c6.364,3.68,11.5-.506,11.475-9.359l-.443-148.745c-.023-8.861-5.2-19.022-11.569-22.71l-236-136.694c-6.364-3.688-11.5.506-11.476,9.359L459.8,251.65C459.819,260.5,465,270.672,471.364,274.36Z" transform="translate(-450.35 127.22)" fill="url(#linear-gradient)"/>
      </g>
      <g id="Group_46" data-name="Group 46" transform="translate(22.181 25.985)">
        <g id="Group_43" data-name="Group 43" transform="translate(8.052 4.744)">
          <path id="Path_976" data-name="Path 976" d="M463.238,100.516a12.961,12.961,0,0,0,5.718,10.2c3.143,1.828,5.687.21,5.672-3.6s-2.567-8.387-5.718-10.207S463.23,96.7,463.238,100.516Z" transform="translate(-463.238 -96.157)" fill="#7a7a7a"/>
        </g>
        <g id="Group_44" data-name="Group 44">
          <path id="Path_977" data-name="Path 977" d="M462.2,99.9c.008,3.812,2.567,8.387,5.718,10.207s5.687.2,5.672-3.61-2.567-8.387-5.718-10.207S462.187,96.092,462.2,99.9Z" transform="translate(-462.203 -95.547)" fill="#4dccef"/>
        </g>
        <g id="Group_45" data-name="Group 45" transform="translate(8.06 9.166)">
          <path id="Path_978" data-name="Path 978" d="M474.613,103.315c-.015,3.773-2.536,5.36-5.664,3.548s-5.672-6.341-5.71-10.137Z" transform="translate(-463.239 -96.725)" fill="#7a7a7a"/>
        </g>
      </g>
      <g id="Group_47" data-name="Group 47" transform="translate(21.177 85.674)">
        <path id="Path_979" data-name="Path 979" d="M469.675,120.677l-3.532-2.054-.031-8.27q0-1.517.047-2.731a3.546,3.546,0,0,1-.809.529l-1.463.622-1.813-3.742,4.411-1.813,3.143,1.82Z" transform="translate(-462.074 -103.219)" fill="#fff"/>
        <path id="Path_980" data-name="Path 980" d="M472.927,123.324l-9.359-5.423-.008-2.777,3.135-2.038a17.882,17.882,0,0,0,1.758-1.315,2.31,2.31,0,0,0,.576-.739,1.926,1.926,0,0,0,.156-.848,2.1,2.1,0,0,0-.327-1.151,2.557,2.557,0,0,0-.91-.887,2.008,2.008,0,0,0-1.237-.288,4.142,4.142,0,0,0-1.393.428l-1.929-3.828a5.222,5.222,0,0,1,1.673-.568,3.985,3.985,0,0,1,1.478.14,7.971,7.971,0,0,1,1.789.794,9.172,9.172,0,0,1,2.241,1.828,8.915,8.915,0,0,1,1.533,2.412,6.8,6.8,0,0,1,.545,2.528,6.013,6.013,0,0,1-.187,1.595,3.356,3.356,0,0,1-.576,1.2,4.9,4.9,0,0,1-1.05.972,31.547,31.547,0,0,1-2.793,1.548c0,.1,4.878,2.933,4.878,2.933Z" transform="translate(-453.158 -98.817)" fill="#fff"/>
        <path id="Path_981" data-name="Path 981" d="M473.61,111.9a2.548,2.548,0,0,1-.731,2.069,2.291,2.291,0,0,1-2.1.288c2.147,1.634,3.229,3.493,3.229,5.633.008,1.455-.459,2.326-1.4,2.606q-1.436.432-3.96-1.043a15.928,15.928,0,0,1-1.922-1.291,18.211,18.211,0,0,1-1.922-1.774l-.015-3.509a15.661,15.661,0,0,0,1.727,1.774,10.517,10.517,0,0,0,1.618,1.183,2.98,2.98,0,0,0,1.673.583c.342-.054.521-.366.521-.918a2.444,2.444,0,0,0-.272-1.151,4.034,4.034,0,0,0-.895-1.035,10.147,10.147,0,0,0-1.579-1.1l-.793-.459-.015-3.174.817.467c1.766,1.027,2.653.988,2.645-.109a1.9,1.9,0,0,0-.389-1.144,3.394,3.394,0,0,0-1.058-.91,3.636,3.636,0,0,0-2.552-.475l-1.455-3.664a4.327,4.327,0,0,1,2.093-.008,10.818,10.818,0,0,1,5.586,3.843A5.708,5.708,0,0,1,473.61,111.9Z" transform="translate(-443.727 -93.754)" fill="#fff"/>
        <path id="Path_982" data-name="Path 982" d="M476.114,120.915l-1.424-.825.008,3.026-3.439-1.992-.008-3.026-5.143-2.972-.008-3.1,5.337-6.4,3.213,1.867.031,9.453,1.416.825Zm-4.878-5.967v-1.82c0-.342.008-.794.031-1.361s.031-.871.039-.887c-.3.373-.513.755-.77,1.089l-1.416,1.751Z" transform="translate(-434.771 -86.94)" fill="#fff"/>
        <path id="Path_983" data-name="Path 983" d="M468.1,113.236a11.367,11.367,0,0,1,.762-4.855,2.607,2.607,0,0,1,2.256-1.673,6.976,6.976,0,0,1,3.711,1.183,20.31,20.31,0,0,1,1.828,1.245l.008,3.307a14.2,14.2,0,0,0-1.906-1.315c-1.159-.677-2.031-.864-2.6-.568-.568.28-.879,1.113-.926,2.49.638-.84,1.478-.957,2.645-.28a6.782,6.782,0,0,1,2.677,2.886,9.573,9.573,0,0,1,.957,4.287c.008,1.719-.389,2.847-1.183,3.376s-1.922.381-3.353-.451A9.087,9.087,0,0,1,469.4,119,12.7,12.7,0,0,1,468.1,113.236Zm4.792,6.24a.721.721,0,0,0,.9.016c.234-.2.342-.677.335-1.416a2.771,2.771,0,0,0-1.213-2.614.868.868,0,0,0-.973-.07,1.142,1.142,0,0,0-.373.98,5.072,5.072,0,0,0,.365,1.9A2.417,2.417,0,0,0,472.9,119.475Z" transform="translate(-421.191 -79.603)" fill="#fff"/>
        <path id="Path_984" data-name="Path 984" d="M470.682,123.46l4.388-9.554-5.586-3.229-.016-3.5,9.3,5.384.016,2.5-4.5,10.5Z" transform="translate(-411.936 -76.384)" fill="#fff"/>
        <path id="Path_985" data-name="Path 985" d="M480.334,119.109q.012,4.6-1.618,5.7t-5.213-.972a17.756,17.756,0,0,1-1.8-1.151l-.016-3.345a12.506,12.506,0,0,0,1.525,1.05,3.762,3.762,0,0,0,2.886.731c.669-.233,1.035-1,1.081-2.318a3.194,3.194,0,0,1-.778.661,1.41,1.41,0,0,1-.817.047,4.311,4.311,0,0,1-1.213-.513,6.682,6.682,0,0,1-2.614-2.879,9.512,9.512,0,0,1-.957-4.287c0-1.735.4-2.863,1.213-3.369s1.922-.366,3.338.459a9.156,9.156,0,0,1,3.664,4.03A13.959,13.959,0,0,1,480.334,119.109Zm-4.87-6.745c-.389-.226-.7-.233-.926-.039-.241.194-.358.661-.358,1.408a3.949,3.949,0,0,0,.311,1.579,2.3,2.3,0,0,0,.949,1.066.923.923,0,0,0,.988.07,1.023,1.023,0,0,0,.428-.965,4.9,4.9,0,0,0-.4-1.859A2.65,2.65,0,0,0,475.464,112.364Z" transform="translate(-402.885 -69.667)" fill="#fff"/>
        <path id="Path_986" data-name="Path 986" d="M476.874,109.864a9.531,9.531,0,0,1,3.174,2.84,6.047,6.047,0,0,1,1.143,3.47,2.866,2.866,0,0,1-.529,1.875,2.124,2.124,0,0,1-1.681.646,16.227,16.227,0,0,1,2.023,3.135,6.107,6.107,0,0,1,.591,2.451c0,1.393-.4,2.225-1.237,2.505s-1.984,0-3.47-.864a10.333,10.333,0,0,1-3.485-3.135,6.96,6.96,0,0,1-1.222-3.913,3.119,3.119,0,0,1,.529-2,2.374,2.374,0,0,1,1.813-.7,11.6,11.6,0,0,1-1.5-2.653,6.542,6.542,0,0,1-.49-2.373c0-1.2.389-1.906,1.16-2.124S475.52,109.078,476.874,109.864Zm-1.494,10.69a2.331,2.331,0,0,0,.389,1.284,3.05,3.05,0,0,0,1.081,1.027c1.035.6,1.541.436,1.541-.482a2.839,2.839,0,0,0-.342-1.229,11.347,11.347,0,0,0-1.214-1.836,1.784,1.784,0,0,0-1.12.358A1.1,1.1,0,0,0,475.38,120.554Zm1.486-7.648a.863.863,0,0,0-.762-.124c-.2.093-.3.3-.3.638a3.837,3.837,0,0,0,1.042,2.225,1.5,1.5,0,0,0,.84-.3.95.95,0,0,0,.234-.7,1.818,1.818,0,0,0-.319-1A2.165,2.165,0,0,0,476.866,112.906Z" transform="translate(-393.535 -64.374)" fill="#fff"/>
        <path id="Path_987" data-name="Path 987" d="M479.186,117.847a6.927,6.927,0,0,1,2,1.782,8.98,8.98,0,0,1,1.906,5.508q.012,2.626-1.283,3.268c-.864.428-2.178.14-3.937-.879a13.929,13.929,0,0,1-3.688-2.98l-.008-3.462a21.2,21.2,0,0,0,1.727,1.712,11.851,11.851,0,0,0,1.673,1.237,1.868,1.868,0,0,0,1.486.366q.525-.2.514-1.167a3.119,3.119,0,0,0-.529-1.712,4.807,4.807,0,0,0-1.611-1.431,5.616,5.616,0,0,0-1.766-.654l-1.284-1.509.459-7.974,7.352,4.263.008,3.517-4.388-2.544-.148,1.968a8.993,8.993,0,0,1,.98.389C478.844,117.652,479.023,117.746,479.186,117.847Z" transform="translate(-380.023 -57.583)" fill="#fff"/>
        <path id="Path_988" data-name="Path 988" d="M485.015,130.322l-9.359-5.423-.008-2.777,3.143-2.038a20.863,20.863,0,0,0,1.75-1.315,2.559,2.559,0,0,0,.576-.739,2.013,2.013,0,0,0,.156-.848,2.2,2.2,0,0,0-.319-1.151,2.6,2.6,0,0,0-.926-.887,2.028,2.028,0,0,0-1.222-.288,4.438,4.438,0,0,0-1.408.436l-1.922-3.828a5.043,5.043,0,0,1,1.665-.576,3.971,3.971,0,0,1,1.478.148,7.326,7.326,0,0,1,1.789.794,8.854,8.854,0,0,1,2.24,1.828,8.629,8.629,0,0,1,1.541,2.412,6.769,6.769,0,0,1,.545,2.528,6.073,6.073,0,0,1-.187,1.595,3.682,3.682,0,0,1-.576,1.19,5,5,0,0,1-1.058.98,28.168,28.168,0,0,1-2.793,1.54c0,.1,4.878,2.933,4.878,2.933Z" transform="translate(-371.202 -51.347)" fill="#fff"/>
        <path id="Path_989" data-name="Path 989" d="M485.7,118.889a2.555,2.555,0,0,1-.732,2.077,2.268,2.268,0,0,1-2.1.288c2.147,1.642,3.228,3.5,3.228,5.633.008,1.455-.467,2.326-1.4,2.614-.957.28-2.28-.062-3.96-1.043a16.688,16.688,0,0,1-1.929-1.3,18.128,18.128,0,0,1-1.914-1.774l-.016-3.509a15,15,0,0,0,1.727,1.774,10.5,10.5,0,0,0,1.618,1.183,2.916,2.916,0,0,0,1.665.583c.35-.054.529-.358.529-.918a2.539,2.539,0,0,0-.272-1.151,4.018,4.018,0,0,0-.895-1.027,9.631,9.631,0,0,0-1.579-1.1l-.794-.459-.016-3.182.809.475q2.66,1.529,2.653-.117a1.857,1.857,0,0,0-.4-1.144,3.338,3.338,0,0,0-1.051-.9,3.632,3.632,0,0,0-2.559-.49l-1.455-3.649a4.174,4.174,0,0,1,2.1-.008,9.075,9.075,0,0,1,2.443,1.058,9.66,9.66,0,0,1,3.143,2.777A5.7,5.7,0,0,1,485.7,118.889Z" transform="translate(-361.777 -46.286)" fill="#fff"/>
        <path id="Path_990" data-name="Path 990" d="M485.836,130.034l-3.54-2.046-.016-8.27c-.008-1.011.016-1.922.039-2.731a3.778,3.778,0,0,1-.8.529l-1.463.622-1.812-3.742,4.4-1.813,3.143,1.813Z" transform="translate(-352.448 -39.725)" fill="#fff"/>
        <path id="Path_991" data-name="Path 991" d="M487.807,131.179l-3.54-2.046-.023-8.278c-.008-1,.015-1.922.047-2.731a3.846,3.846,0,0,1-.809.537l-1.463.615-1.813-3.742,4.411-1.813,3.143,1.821Z" transform="translate(-339.14 -32.016)" fill="#fff"/>
        <path id="Path_992" data-name="Path 992" d="M486.6,122.128a7.075,7.075,0,0,1,2,1.789,9.065,9.065,0,0,1,1.906,5.508c.008,1.75-.428,2.832-1.283,3.26-.872.443-2.179.148-3.945-.871a13.911,13.911,0,0,1-3.68-2.988l-.016-3.454a18.017,18.017,0,0,0,1.735,1.7,11.977,11.977,0,0,0,1.673,1.245,1.894,1.894,0,0,0,1.486.366c.342-.132.514-.521.506-1.175a3.063,3.063,0,0,0-.521-1.7,4.823,4.823,0,0,0-1.618-1.431,5.426,5.426,0,0,0-1.766-.654l-1.284-1.517.467-7.967,7.352,4.256.008,3.516-4.388-2.536-.156,1.968a7.188,7.188,0,0,1,.98.389Z" transform="translate(-329.824 -28.504)" fill="#fff"/>
        <path id="Path_993" data-name="Path 993" d="M492.412,134.611l-9.36-5.423V126.41l3.135-2.038a15.762,15.762,0,0,0,1.751-1.323,2.35,2.35,0,0,0,.583-.731,2.036,2.036,0,0,0,.156-.848,2.188,2.188,0,0,0-.327-1.151,2.574,2.574,0,0,0-.918-.887,2.053,2.053,0,0,0-1.23-.288,4.365,4.365,0,0,0-1.4.428l-1.922-3.828a5.191,5.191,0,0,1,1.665-.568,4.068,4.068,0,0,1,1.47.14,7.533,7.533,0,0,1,1.8.794,9.5,9.5,0,0,1,2.24,1.828,8.922,8.922,0,0,1,1.533,2.412,6.506,6.506,0,0,1,.545,2.536,6.34,6.34,0,0,1-.179,1.587,3.584,3.584,0,0,1-.584,1.2,4.922,4.922,0,0,1-1.05.98c-.436.3-1.369.809-2.793,1.54,0,.1,4.878,2.933,4.878,2.933Z" transform="translate(-320.996 -22.268)" fill="#fff"/>
        <path id="Path_994" data-name="Path 994" d="M493.1,123.187a2.535,2.535,0,0,1-.724,2.069,2.307,2.307,0,0,1-2.108.288c2.148,1.634,3.229,3.493,3.237,5.633.008,1.455-.467,2.326-1.408,2.606-.957.288-2.272-.062-3.96-1.035a15.96,15.96,0,0,1-1.922-1.307,17.309,17.309,0,0,1-1.922-1.766l-.015-3.509a15.658,15.658,0,0,0,1.727,1.774,11.2,11.2,0,0,0,1.626,1.19,3.045,3.045,0,0,0,1.665.576c.35-.054.521-.366.521-.918a2.441,2.441,0,0,0-.272-1.151,3.966,3.966,0,0,0-.887-1.035,9.609,9.609,0,0,0-1.588-1.089l-.793-.467-.016-3.182.817.475c1.766,1.027,2.653.988,2.645-.109a1.883,1.883,0,0,0-.389-1.144,3.293,3.293,0,0,0-1.058-.91,3.635,3.635,0,0,0-2.552-.475l-1.455-3.664a4.328,4.328,0,0,1,2.093-.008,10.872,10.872,0,0,1,5.594,3.843A5.677,5.677,0,0,1,493.1,123.187Z" transform="translate(-311.572 -17.208)" fill="#fff"/>
      </g>
      <g id="Group_48" data-name="Group 48" transform="translate(28.21 152.037)">
        <path id="Path_995" data-name="Path 995" d="M463.017,124.1l-.039-12.347L465.141,113l.031,10.176,4.123,2.4.008,2.163Z" transform="translate(-462.978 -111.749)" fill="#fff"/>
        <path id="Path_996" data-name="Path 996" d="M473.652,122.512c0,2.046-.412,3.369-1.245,3.983s-2.023.475-3.579-.428a9.173,9.173,0,0,1-3.6-3.727,11.592,11.592,0,0,1-1.268-5.462c-.008-2.054.412-3.377,1.245-3.976s2.038-.443,3.594.467a9.116,9.116,0,0,1,3.595,3.711A11.533,11.533,0,0,1,473.652,122.512Zm-7.43-4.3a8.456,8.456,0,0,0,.654,3.493,4.682,4.682,0,0,0,1.945,2.171c1.719,1,2.575.1,2.567-2.669-.008-2.785-.863-4.668-2.583-5.664q-1.283-.747-1.937-.07A4.043,4.043,0,0,0,466.222,118.21Z" transform="translate(-456.333 -106.337)" fill="#fff"/>
        <path id="Path_997" data-name="Path 997" d="M467.658,122.055l.016,4.73-2.163-1.245-.039-12.347,2.972,1.719a8.954,8.954,0,0,1,3.065,2.692,5.889,5.889,0,0,1,1,3.361,2.416,2.416,0,0,1-.482,1.649,1.654,1.654,0,0,1-1.4.521c1.548,3.657,2.544,6.03,3.019,7.111l-2.4-1.385-2.451-6.146Zm-.008-2.132.692.4a2.319,2.319,0,0,0,1.509.459c.319-.093.482-.428.482-1.019a2.516,2.516,0,0,0-.5-1.54,5.207,5.207,0,0,0-1.548-1.26l-.654-.381Z" transform="translate(-446.069 -101.952)" fill="#fff"/>
        <path id="Path_998" data-name="Path 998" d="M472.572,129.634l-5.858-3.4-.031-12.339,5.858,3.392v2.147l-3.7-2.147V120l3.447,1.992.008,2.147-3.439-1.992v3.182l3.711,2.139Z" transform="translate(-437.858 -97.199)" fill="#fff"/>
        <path id="Path_999" data-name="Path 999" d="M472.057,129.333l-2.474-11.11c.031,1.984.078,3.33.078,3.983l.016,5.742-1.929-1.113-.039-12.347,2.941,1.7,2.443,10.83c.039.031,2.567-7.936,2.567-7.936l2.941,1.7.031,12.347-2.015-1.167-.016-5.843c0-.272.008-.591.008-.949s.039-1.291.086-2.816c-.062-.031-2.653,8.115-2.653,8.115Z" transform="translate(-430.908 -93.172)" fill="#fff"/>
        <path id="Path_1000" data-name="Path 1000" d="M469.944,128.1l-.031-12.339,2.155,1.245.039,12.347Z" transform="translate(-415.959 -84.514)" fill="#fff"/>
        <path id="Path_1001" data-name="Path 1001" d="M477.567,124.045c0,1.322-.342,2.139-1.019,2.451s-1.65.1-2.918-.638l-.926-.537.016,4.388-2.163-1.245-.039-12.347L473.771,118a8.044,8.044,0,0,1,2.824,2.6A6.314,6.314,0,0,1,477.567,124.045Zm-4.87-.864.708.412c.661.381,1.159.513,1.494.381s.49-.5.483-1.1a2.952,2.952,0,0,0-.413-1.595,3.664,3.664,0,0,0-1.3-1.19l-.98-.568Z" transform="translate(-411.85 -82.134)" fill="#fff"/>
        <path id="Path_1002" data-name="Path 1002" d="M478.229,128.418c0,1.12-.327,1.8-.98,2.062a3.384,3.384,0,0,1-2.762-.638,11.179,11.179,0,0,1-2.878-2.4L471.593,125a23.494,23.494,0,0,0,1.75,1.8,7.563,7.563,0,0,0,1.3.98,1.556,1.556,0,0,0,1.1.311c.256-.078.373-.335.373-.762a1.84,1.84,0,0,0-.163-.739,4.706,4.706,0,0,0-.5-.833c-.21-.3-.661-.832-1.322-1.6a15.407,15.407,0,0,1-1.4-1.828,8.037,8.037,0,0,1-.747-1.572,5.33,5.33,0,0,1-.288-1.68c-.007-1.1.3-1.774.918-2.046a2.871,2.871,0,0,1,2.521.529,9.682,9.682,0,0,1,1.517,1.1c.482.428.98.934,1.517,1.509l-.7,1.634c-.544-.576-1-1.035-1.354-1.346a6.443,6.443,0,0,0-1.05-.77c-.4-.233-.716-.3-.934-.195a.716.716,0,0,0-.327.708,2.058,2.058,0,0,0,.132.685,3.952,3.952,0,0,0,.428.739c.2.28.653.833,1.369,1.665a13.125,13.125,0,0,1,1.968,2.793A5.646,5.646,0,0,1,478.229,128.418Z" transform="translate(-404.569 -76.853)" fill="#fff"/>
        <path id="Path_1003" data-name="Path 1003" d="M481.019,122.2l.031,7.99a3.738,3.738,0,0,1-.5,2.108,1.682,1.682,0,0,1-1.455.731,4.745,4.745,0,0,1-2.257-.762,8.248,8.248,0,0,1-3.05-2.98,7.662,7.662,0,0,1-1.09-3.968l-.031-7.959,2.147,1.245.024,7.562a5.284,5.284,0,0,0,.482,2.365,3.9,3.9,0,0,0,1.564,1.579q1.062.607,1.541.21a2.415,2.415,0,0,0,.467-1.821l-.023-7.547Z" transform="translate(-397.26 -73.686)" fill="#fff"/>
        <path id="Path_1004" data-name="Path 1004" d="M478.406,133.007l-2.474-11.1c.031,1.992.078,3.322.078,3.983l.015,5.742-1.922-1.113-.039-12.347,2.941,1.7,2.443,10.837c.031.016,2.56-7.943,2.56-7.943l2.941,1.7.039,12.347-2.015-1.167-.016-5.843v-.949c.016-.358.047-1.291.093-2.816-.062-.039-2.661,8.114-2.661,8.114Z" transform="translate(-387.808 -68.208)" fill="#fff"/>
      </g>
      <g id="Group_49" data-name="Group 49" transform="translate(146.583 221.574)">
        <path id="Path_1005" data-name="Path 1005" d="M483.273,134.053l-2.155-1.237-.016-7.142.016-1.167.031-1.26a6.09,6.09,0,0,1-.739.42l-1.167.467-1.051-2.171,3.275-1.276,1.766,1.027Z" transform="translate(-478.193 -120.687)" fill="#fff"/>
        <path id="Path_1006" data-name="Path 1006" d="M484.319,134.667l-2.148-1.245-.023-7.142.015-1.167.031-1.26a6.1,6.1,0,0,1-.739.42l-1.175.459-1.042-2.171,3.275-1.268,1.774,1.027Z" transform="translate(-471.101 -116.578)" fill="#fff"/>
        <path id="Path_1007" data-name="Path 1007" d="M485.88,122.994l-3.75,10.153-1.937-1.12,3.765-10.145Z" transform="translate(-464.633 -112.585)" fill="#fff"/>
        <path id="Path_1008" data-name="Path 1008" d="M488.178,137.5l-7.119-4.116-.008-1.821,2.552-1.649a12.813,12.813,0,0,0,1.471-1.1,2.114,2.114,0,0,0,.5-.723,2.3,2.3,0,0,0,.148-.871,2.384,2.384,0,0,0-.342-1.3,2.443,2.443,0,0,0-.895-.887,2.328,2.328,0,0,0-1.151-.342,3.238,3.238,0,0,0-1.159.264l-1.167-2.35a3.581,3.581,0,0,1,1.237-.381,3.167,3.167,0,0,1,1.074.132,5.484,5.484,0,0,1,1.307.583,6.371,6.371,0,0,1,1.7,1.4,6.639,6.639,0,0,1,1.128,1.836,5.172,5.172,0,0,1,.412,1.976,3.56,3.56,0,0,1-.249,1.455,2.927,2.927,0,0,1-.755,1.1,9.345,9.345,0,0,1-1.82,1.175l-1.307.731c0,.125,4.435,2.692,4.435,2.692Z" transform="translate(-459.128 -110.251)" fill="#fff"/>
        <path id="Path_1009" data-name="Path 1009" d="M489.685,134.634l-1.222-.716.008,2.567-2.1-1.221-.008-2.552-4.341-2.521-.008-1.813,4.442-5.392,1.984,1.144.016,7.764,1.229.716Zm-3.33-3.952v-2.093c0-.35,0-.856.023-1.5s.047-1.027.054-1.128c-.225.335-.427.661-.677.965l-1.852,2.334Z" transform="translate(-452.287 -105.093)" fill="#fff"/>
      </g>
      <g id="Group_50" data-name="Group 50" transform="translate(214.017 211.678)">
        <path id="Path_1010" data-name="Path 1010" d="M488.4,119.363l13.927,8.069,12.245,7.094c3.089,1.782,5.594,5.843,5.6,9.064l.062,20.329a5.032,5.032,0,0,1-.148,1.19,3.21,3.21,0,0,0,2.4-.257,3.287,3.287,0,0,0,1.409-3.019L523.84,141.5c-.008-3.221-2.521-7.282-5.6-9.064L492.067,117.27c-1.961-1.128-3.68-1.066-4.668-.047a3.112,3.112,0,0,0-.747,1.432A6.411,6.411,0,0,1,488.4,119.363Z" transform="translate(-486.496 -116.441)" fill="#f0f0fc"/>
        <path id="Path_1011" data-name="Path 1011" d="M486.694,138.277c.007,3.213,2.52,7.274,5.6,9.064L518.468,162.5a6.19,6.19,0,0,0,1.758.685,5.032,5.032,0,0,0,.148-1.19l-.062-20.329c-.008-3.221-2.513-7.282-5.6-9.064l-26.172-15.163a6.41,6.41,0,0,0-1.751-.708,4.853,4.853,0,0,0-.156,1.214Z" transform="translate(-486.632 -114.513)" fill="#e2e2e2"/>
      </g>
    </g>
    <g id="Group_52" data-name="Group 52" transform="translate(561.052 129.18)">
      <path id="Path_1012" data-name="Path 1012" d="M605.864,133.56,502.818,74.214c-2.381-1.377-4.52-1.478-6.069-.576-.023-.07-24.118,13.724-24.118,13.724a7.121,7.121,0,0,1,5.571.941l17.933,10.332L581.24,147.65c4.909,2.824,8.846,9.842,8.542,15.272-.14,2.521-.342,4.956-.583,7.337-.078.755-.179,1.463-.265,2.21-.187,1.6-.381,3.205-.614,4.746-.117.8-.257,1.564-.389,2.35-.241,1.432-.49,2.855-.762,4.24-.156.747-.319,1.47-.482,2.2-.3,1.369-.607,2.715-.941,4.03-.171.661-.35,1.307-.529,1.961-.365,1.346-.747,2.668-1.151,3.952-.179.552-.35,1.089-.529,1.626-.451,1.369-.925,2.7-1.416,4.007-.156.4-.3.817-.467,1.221q-.84,2.147-1.743,4.162c-.109.241-.21.49-.319.724a80.3,80.3,0,0,1-20.174,27.572,72.042,72.042,0,0,1-21.9,13.156l21.084-7.438c10.977-5.462,21.154-11.164,28.436-20.656,2.489-3.252,5.259-7.056,8.208-11.367,9.678-13.117,17.6-32.248,19.154-60.131C614.7,143.4,610.765,136.384,605.864,133.56Z" transform="translate(-469.644 -73.053)" fill="#08a5f6"/>
      <path id="Path_1013" data-name="Path 1013" d="M582.195,195.386c.109-.233.21-.482.318-.724q.9-2.019,1.743-4.162c.163-.4.311-.817.467-1.221.49-1.307.965-2.637,1.416-4.007.179-.537.358-1.074.529-1.626.4-1.284.786-2.606,1.151-3.952.179-.654.358-1.3.529-1.961.335-1.315.646-2.661.942-4.03.163-.731.327-1.455.482-2.2.272-1.385.521-2.809.763-4.24.132-.786.272-1.548.389-2.349.233-1.54.427-3.143.614-4.746.086-.747.187-1.455.265-2.21.241-2.381.444-4.816.583-7.337.3-5.43-3.633-12.448-8.542-15.272L498.739,86.334,480.806,76a6.416,6.416,0,0,0-5.422-.848c-2.023.755-3.291,2.941-3.12,6.286,3.509,66.838,39.266,126.526,54.826,149.547,3.073,4.551,7.4,7.041,10.472,6.03.8-.257,1.665-.56,2.559-.9a72.043,72.043,0,0,0,21.9-13.156A80.3,80.3,0,0,0,582.195,195.386Z" transform="translate(-472.248 -60.751)" fill="#fcc362"/>
    </g>
    <g id="Group_55" data-name="Group 55" transform="translate(809.412 205.998)" style="isolation: isolate">
      <g id="Group_53" data-name="Group 53" transform="translate(25.564 51.761)">
        <path id="Path_1014" data-name="Path 1014" d="M530.82,137.023,507.457,94.914l10.836-5.335,12.636,22.776,28.864-18.069,10.732,17.882Z" transform="translate(-507.457 -89.58)" fill="url(#linear-gradient-2)"/>
      </g>
      <g id="Group_54" data-name="Group 54">
        <path id="Path_1015" data-name="Path 1015" d="M560.771,220.232c-31.206-17.972-56.6-61.656-56.6-97.382s25.394-50.165,56.6-32.194,56.6,61.664,56.6,97.39S591.984,238.211,560.771,220.232Zm0-121.655c-27.394-15.778-49.683-3.1-49.683,28.257s22.289,69.709,49.683,85.486,49.682,3.1,49.682-28.257S588.171,114.354,560.771,98.576Z" transform="translate(-504.171 -82.926)" fill="url(#linear-gradient-3)" style="mix-blend-mode: multiply;isolation: isolate"/>
      </g>
    </g>
    <g id="Group_56" data-name="Group 56" transform="translate(1054.614 234.275)">
      <path id="Path_1016" data-name="Path 1016" d="M685.865,240.487a5.589,5.589,0,0,1-2.8-.755l-139.8-80.515a15.161,15.161,0,0,1-7.578-13.094V91.337a4.777,4.777,0,0,1,7.166-4.131L686.37,169.868a10.153,10.153,0,0,1,5.08,8.776V234.9a5.522,5.522,0,0,1-2.793,4.831A5.58,5.58,0,0,1,685.865,240.487ZM540.465,87.914a3.466,3.466,0,0,0-1.712.459,3.4,3.4,0,0,0-1.719,2.964v54.787a13.8,13.8,0,0,0,6.909,11.927l139.8,80.515A4.244,4.244,0,0,0,690.1,234.9V178.644a8.8,8.8,0,0,0-4.411-7.609L542.176,88.373A3.465,3.465,0,0,0,540.465,87.914Z" transform="translate(-535.688 -86.561)" fill="#08a5f6"/>
    </g>
    <g id="Group_57" data-name="Group 57" transform="translate(1054.614 328.455)">
      <path id="Path_1017" data-name="Path 1017" d="M687.444,254.41a4.079,4.079,0,0,1-2.007-.545L540.169,170.192a8.96,8.96,0,0,1-4.481-7.741V102.537a3.871,3.871,0,0,1,5.8-3.345L686.868,182.92a9.167,9.167,0,0,1,4.582,7.92V250.4a4.03,4.03,0,0,1-4.007,4.007ZM539.554,100.016a2.509,2.509,0,0,0-1.253.342,2.482,2.482,0,0,0-1.268,2.178v59.914a7.62,7.62,0,0,0,3.812,6.582L686.114,252.7a2.661,2.661,0,0,0,3.991-2.3V190.84a7.813,7.813,0,0,0-3.913-6.753L540.815,100.359A2.534,2.534,0,0,0,539.554,100.016Z" transform="translate(-535.688 -98.666)" fill="#08a5f6"/>
    </g>
    <g id="Group_58" data-name="Group 58" transform="translate(1054.614 416.529)">
      <path id="Path_1018" data-name="Path 1018" d="M685.079,264.473a6.361,6.361,0,0,1-3.19-.863L538.909,181.266a6.457,6.457,0,0,1-3.221-5.57V113.207a3.221,3.221,0,0,1,4.832-2.785l144.6,83.285a12.666,12.666,0,0,1,6.333,10.946v53.456a6.294,6.294,0,0,1-3.19,5.508A6.423,6.423,0,0,1,685.079,264.473ZM538.909,111.34a1.886,1.886,0,0,0-.934.249,1.854,1.854,0,0,0-.941,1.618V175.7a5.094,5.094,0,0,0,2.552,4.4l142.98,82.351a5.03,5.03,0,0,0,7.539-4.341V204.653a11.312,11.312,0,0,0-5.664-9.779l-144.6-83.285A1.928,1.928,0,0,0,538.909,111.34Z" transform="translate(-535.688 -109.987)" fill="#08a5f6"/>
    </g>
    <g id="Group_59" data-name="Group 59" transform="translate(1014.306 256.896)">
      <path id="Path_1019" data-name="Path 1019" d="M546.7,224.866a3.019,3.019,0,0,1-1.245-.272l-14.945-6.862.568-1.221,14.945,6.854a1.617,1.617,0,0,0,2.287-1.463V92.443a2.974,2.974,0,0,1,4.559-2.513l18.665,11.7-.716,1.136-18.672-11.7a1.625,1.625,0,0,0-2.489,1.377V221.9a2.926,2.926,0,0,1-1.362,2.49A2.981,2.981,0,0,1,546.7,224.866Z" transform="translate(-530.507 -89.469)" fill="#08a5f6"/>
    </g>
    <g id="Group_60" data-name="Group 60" transform="translate(1014.306 357.144)">
      <path id="Path_1020" data-name="Path 1020" d="M553.979,152.215a2.645,2.645,0,0,1-1.089-.241l-22.383-10.355.568-1.221,22.383,10.355a1.241,1.241,0,0,0,1.758-1.128v-43.84a3.439,3.439,0,0,1,5.12-2.988l11.164,6.232-.653,1.175-11.173-6.232a2.079,2.079,0,0,0-3.1,1.813v43.84a2.6,2.6,0,0,1-2.591,2.591Z" transform="translate(-530.507 -102.354)" fill="#08a5f6"/>
    </g>
    <g id="Group_61" data-name="Group 61" transform="translate(1014.306 405.348)">
      <path id="Path_1021" data-name="Path 1021" d="M571.251,156.218l-14.611-6.8a3.723,3.723,0,0,1-2.147-3.369V123a3.389,3.389,0,0,0-1.969-3.065l-22.017-10.161.568-1.221,22.017,10.161A4.736,4.736,0,0,1,555.838,123v23.052a2.388,2.388,0,0,0,1.369,2.155l14.611,6.8Z" transform="translate(-530.507 -108.55)" fill="#08a5f6"/>
    </g>
    <g id="Group_62" data-name="Group 62" transform="translate(1015.387 509.506)">
      <path id="Path_1022" data-name="Path 1022" d="M582.282,306.043l-25.425-13.35a4.794,4.794,0,0,1-2.583-4.263v-150.6a5.229,5.229,0,0,0-2.933-4.676l-20.695-10.013.591-1.206,20.695,10.013a6.575,6.575,0,0,1,3.7,5.882v150.6a3.47,3.47,0,0,0,1.852,3.073l25.433,13.35Z" transform="translate(-530.646 -121.938)" fill="#08a5f6"/>
    </g>
    <g id="Group_65" data-name="Group 65" transform="translate(1054.209 577.347)">
      <g id="Group_63" data-name="Group 63" transform="translate(0 22.471)">
        <g transform="matrix(1, 0, 0, 1, -602.49, -541.04)" filter="url(#Path_1023)">
          <path id="Path_1023-2" data-name="Path 1023" d="M649.82,294.318V221.264a14.849,14.849,0,0,0-.335-3.05,20.524,20.524,0,0,0-8.908-12.689l-48.757-28.3-48.75-27.852c-2.8-1.6-5.438-1.7-7.165-.358-.194-.093,24.841-14.743,24.841-14.743,1.728-1.113,4.217-.949,6.862.56l48.757,27.852,48.75,28.311a20.488,20.488,0,0,1,8.908,12.681,14.858,14.858,0,0,1,.335,3.05v73.062c0,12.744-4.466,21.768-11.686,26.141.078.031-23.3,13.739-23.3,13.739C645.867,315.013,649.82,306.307,649.82,294.318Z" transform="translate(68.67 407.5)" fill="#c8c8c8"/>
        </g>
        <path id="Path_1024" data-name="Path 1024" d="M554.658,165.057l1.649,21.519c.35,4.544-2.63,6.574-6.442,4.38s-6.792-7.663-6.442-11.8l1.65-19.613a17.509,17.509,0,0,1-3.462-9.686c0-5.22,3.7-7.321,8.254-4.7s8.263,8.994,8.263,14.214C558.128,162.544,556.75,164.551,554.658,165.057Z" transform="translate(-495.125 -62.487)" fill="#c8c8c8"/>
        <g transform="matrix(1, 0, 0, 1, -602.49, -541.04)" filter="url(#Path_1025)">
          <path id="Path_1025-2" data-name="Path 1025" d="M535.636,141.791v73.054c0,26.032,18.61,58.046,41.351,71.14l33.306,19.185c12.261,7.064,23.316,7.228,30.91,1.805,6.481-4.629,10.433-13.335,10.433-25.324V208.6a14.861,14.861,0,0,0-.335-3.05,20.525,20.525,0,0,0-8.908-12.689l-48.757-28.3L544.886,136.7c-2.8-1.6-5.438-1.7-7.166-.358a5.166,5.166,0,0,0-1.75,2.777A10,10,0,0,0,535.636,141.791Zm63,75.971c0,3.174-1.377,5.181-3.47,5.687l1.649,21.519c.35,4.544-2.63,6.574-6.442,4.38s-6.792-7.663-6.442-11.8l1.65-19.613a17.508,17.508,0,0,1-3.462-9.686c0-5.22,3.7-7.321,8.254-4.7S598.638,212.542,598.638,217.762Z" transform="translate(66.85 420.16)" fill="url(#linear-gradient-4)"/>
        </g>
      </g>
      <g id="Group_64" data-name="Group 64" transform="translate(10.721)">
        <path id="Path_1026" data-name="Path 1026" d="M571.791,149.269c-12.907-6.963-24.5-7.461-32.987-2.661-.257-.047,20.337-11.545,20.337-11.545,8.628-6.084,21.029-6.1,34.963,1.424,25.059,13.522,46.376,46.688,50.041,76.508l-21.924,13.117-.373-.21C618.23,196.05,596.889,162.813,571.791,149.269Z" transform="translate(-524.893 -130.658)" fill="#e2e2e2"/>
        <path id="Path_1027" data-name="Path 1027" d="M584.215,149.249c-9.585-5.174-18.267-5.913-24.927-2.972-.2.093-.4.179-.591.272-6.108,2.956-10.418,9.1-12.012,17.855l-9.671-5.609c1.6-11.2,6.621-19.216,13.911-23.332,8.488-4.8,20.08-4.3,32.987,2.661,25.1,13.545,46.439,46.781,50.056,76.633.132.358-9.7-5.539-9.709-5.6C620.75,185.6,603.922,159.884,584.215,149.249Z" transform="translate(-537.014 -119.513)" fill="#fff"/>
      </g>
    </g>
    <path id="Path_1028" data-name="Path 1028" d="M530.389,126.141c0,1.525,1.082,2.139,2.412,1.369a5.3,5.3,0,0,0,2.42-4.155c0-1.525-1.081-2.139-2.42-1.377A5.319,5.319,0,0,0,530.389,126.141Z" transform="translate(482.999 385.629)" fill="#08a5f6"/>
    <path id="Path_1029" data-name="Path 1029" d="M530.295,112.717c0,1.525,1.082,2.147,2.42,1.377a5.318,5.318,0,0,0,2.412-4.155c0-1.533-1.082-2.147-2.412-1.377A5.3,5.3,0,0,0,530.295,112.717Z" transform="translate(482.362 294.631)" fill="#08a5f6"/>
    <path id="Path_1030" data-name="Path 1030" d="M530.256,111.4c0,1.533,1.082,2.147,2.42,1.377a5.317,5.317,0,0,0,2.412-4.154c0-1.525-1.082-2.147-2.412-1.377A5.3,5.3,0,0,0,530.256,111.4Z" transform="translate(482.097 285.723)" fill="#08a5f6"/>
    <path id="Path_1031" data-name="Path 1031" d="M530.241,110c0,1.525,1.081,2.14,2.412,1.377a5.306,5.306,0,0,0,2.419-4.162c0-1.525-1.081-2.139-2.419-1.369A5.3,5.3,0,0,0,530.241,110Z" transform="translate(481.996 276.236)" fill="#08a5f6"/>
    <path id="Path_1032" data-name="Path 1032" d="M935.643,174.409a25.224,25.224,0,0,0-3.7-1L693.157,153.177a46.285,46.285,0,0,0-46.291-.055L461.407,259.934l163.03,96.518L935.643,227.017Z" transform="translate(15.303 557.13)" fill="#e2e2e2" opacity="0.14"/>
    <path id="Path_1033" data-name="Path 1033" d="M951.062,238.942q-88.12-50.753-176.255-101.513C720,168.868,599.563,155.3,544.745,186.731c-54.577,31.571-31.011,100.937-85.6,132.5q90.291,52.013,180.581,104.011c54.569-31.579,31.011-100.937,85.6-132.5,53.417-30.638,169.129-18.547,225.736-46.991Z" transform="translate(0 492.597)" fill="#fff" stroke="#d8d8d8" stroke-miterlimit="10" stroke-width="1"/>
    <path id="Path_1034" data-name="Path 1034" d="M797.231,150.456c-54.927,31.268-175.1,17.777-229.851,49.177-54.561,31.556-31.05,100.875-85.541,132.47,1.5,1,3.019,1.875,4.6,2.777,54.569-31.579,31.011-100.937,85.6-132.5,53.246-30.544,168.4-18.617,225.2-46.719Z" transform="translate(153.831 580.92)" fill="#eaeaf9"/>
    <g id="Group_67" data-name="Group 67" transform="translate(459.15 630.026)">
      <g id="Group_66" data-name="Group 66" clip-path="url(#clip-path)">
        <path id="Path_1035" data-name="Path 1035" d="M490.492,154.631c-1.626-.934-1.61-2.147.078-2.676a8.723,8.723,0,0,1,6.052.755c1.634.941,1.548,2.108-.156,2.637a8.458,8.458,0,0,1-5.975-.716Z" transform="translate(-254.814 -40.646)" fill="#08a5f6"/>
        <path id="Path_1036" data-name="Path 1036" d="M488.734,155.691c-1.626-.941-1.782-2.256-.319-2.918a7.094,7.094,0,0,1,5.656.537c1.626.934,1.711,2.2.241,2.863a6.92,6.92,0,0,1-5.578-.482Z" transform="translate(-267.556 -35.895)" fill="#08a5f6"/>
        <path id="Path_1037" data-name="Path 1037" d="M487.218,156.985c-1.626-.934-1.992-2.365-.754-3.159s3.594-.661,5.22.28,1.922,2.326.677,3.12a5.453,5.453,0,0,1-5.143-.241Z" transform="translate(-278.964 -29.782)" fill="#08a5f6"/>
        <path id="Path_1038" data-name="Path 1038" d="M486.076,158.4c-1.634-.934-2.178-2.466-1.159-3.392,1-.926,3.182-.895,4.816.047s2.085,2.427,1.082,3.345c-1.019.926-3.112.941-4.738,0Z" transform="translate(-287.951 -22.868)" fill="#08a5f6"/>
        <path id="Path_1039" data-name="Path 1039" d="M485.2,159.939c-1.634-.941-2.334-2.567-1.533-3.61s2.808-1.113,4.435-.171,2.272,2.528,1.463,3.571-2.739,1.144-4.365.21Z" transform="translate(-295.195 -14.928)" fill="#08a5f6"/>
        <path id="Path_1040" data-name="Path 1040" d="M484.539,161.565c-1.626-.934-2.466-2.637-1.844-3.789s2.482-1.3,4.108-.358,2.419,2.614,1.789,3.758-2.419,1.33-4.053.389Z" transform="translate(-300.908 -6.067)" fill="#08a5f6"/>
        <path id="Path_1041" data-name="Path 1041" d="M484.041,163.24c-1.626-.941-2.575-2.7-2.078-3.929s2.225-1.447,3.851-.506,2.545,2.684,2.046,3.9c-.49,1.229-2.186,1.47-3.82.537Z" transform="translate(-305.373 3.562)" fill="#08a5f6"/>
        <path id="Path_1042" data-name="Path 1042" d="M483.63,164.906c-1.626-.941-2.653-2.739-2.233-4.015.389-1.276,2.061-1.54,3.688-.607s2.606,2.723,2.21,4c-.413,1.276-2.038,1.556-3.665.622Z" transform="translate(-308.954 13.754)" fill="#08a5f6"/>
        <path id="Path_1043" data-name="Path 1043" d="M483.2,166.516c-1.626-.941-2.653-2.746-2.28-4.045s1.984-1.579,3.618-.638,2.645,2.746,2.279,4.038-1.984,1.587-3.618.646Z" transform="translate(-312.05 24.272)" fill="#08a5f6"/>
        <path id="Path_1044" data-name="Path 1044" d="M482.713,168.032c-1.634-.934-2.63-2.731-2.233-4.014s2.015-1.564,3.641-.622,2.645,2.738,2.256,4.022-2.038,1.556-3.664.615Z" transform="translate(-315.124 34.855)" fill="#08a5f6"/>
        <path id="Path_1045" data-name="Path 1045" d="M482.082,169.419c-1.634-.941-2.552-2.692-2.085-3.929s2.147-1.486,3.773-.552,2.6,2.707,2.124,3.952c-.467,1.229-2.186,1.47-3.812.529Z" transform="translate(-318.632 45.246)" fill="#08a5f6"/>
        <path id="Path_1046" data-name="Path 1046" d="M481.277,170.652c-1.634-.941-2.451-2.637-1.852-3.8s2.373-1.361,4-.42,2.5,2.653,1.9,3.82-2.42,1.33-4.046.4Z" transform="translate(-323.016 55.185)" fill="#08a5f6"/>
        <path id="Path_1047" data-name="Path 1047" d="M591.09,191.037Q551.074,168,511.073,144.956q-4.411.887-8.978,1.649,40,23.048,80.017,46.089C585.154,192.181,588.149,191.636,591.09,191.037Z" transform="translate(-167.984 -86.396)" fill="#08a5f6"/>
        <path id="Path_1048" data-name="Path 1048" d="M589.318,191.437q-40.016-23.048-80.025-46.089-4.738.689-9.569,1.315,40,23.048,80.017,46.089Q584.572,192.122,589.318,191.437Z" transform="translate(-184.059 -83.731)" fill="#08a5f6"/>
        <path id="Path_1049" data-name="Path 1049" d="M620.662,212.618q-60.532-34.87-121.072-69.732c-3.392.319-6.776.646-10.176.965q60.544,34.87,121.08,69.74Q615.581,213.1,620.662,212.618Z" transform="translate(-253.961 -100.431)" fill="#08a5f6"/>
        <path id="Path_1050" data-name="Path 1050" d="M484.754,144.446q47.345,27.273,94.7,54.545,4.937-.583,9.943-1.113-47.357-27.261-94.706-54.538Q489.694,143.866,484.754,144.446Z" transform="translate(-285.555 -97.346)" fill="#08a5f6"/>
        <path id="Path_1051" data-name="Path 1051" d="M496.818,143.573q14.237,8.2,28.467,16.4,4.563-.77,8.978-1.657-14.237-8.2-28.475-16.4C502.847,142.515,499.86,143.06,496.818,143.573Z" transform="translate(-203.762 -107.007)" fill="#08a5f6"/>
        <path id="Path_1052" data-name="Path 1052" d="M494.446,143.625q14.237,8.192,28.474,16.392,4.832-.618,9.57-1.315-14.226-8.192-28.467-16.392Q499.285,143,494.446,143.625Z" transform="translate(-219.844 -104.336)" fill="#08a5f6"/>
        <path id="Path_1053" data-name="Path 1053" d="M477.565,146.824l23.9,13.771q3.863-1.2,7.912-2.272-11.95-6.885-23.9-13.763C482.777,145.268,480.14,146.03,477.565,146.824Z" transform="translate(-334.296 -89.081)" fill="#08a5f6"/>
        <path id="Path_1054" data-name="Path 1054" d="M475.747,147.946l23.9,13.771q3.4-1.47,7.01-2.793-11.95-6.885-23.9-13.763Q479.139,146.48,475.747,147.946Z" transform="translate(-346.622 -85.006)" fill="#08a5f6"/>
        <path id="Path_1055" data-name="Path 1055" d="M471.746,152.238q27.587,15.883,55.176,31.773,1.96-2.276,4.131-4.442-27.588-15.894-55.175-31.781C474.422,149.235,473.045,150.713,471.746,152.238Z" transform="translate(-373.749 -67.195)" fill="#08a5f6"/>
        <path id="Path_1056" data-name="Path 1056" d="M470.175,155.529q27.588,15.883,55.176,31.781c.809-1.8,1.688-3.579,2.6-5.329q-27.588-15.894-55.176-31.781C471.855,151.95,470.984,153.732,470.175,155.529Z" transform="translate(-384.401 -50.842)" fill="#08a5f6"/>
        <path id="Path_1057" data-name="Path 1057" d="M469.59,157.3q10.375,5.963,20.742,11.942c.638-1.9,1.338-3.781,2.054-5.648q-10.374-5.963-20.742-11.942C470.928,153.518,470.236,155.4,469.59,157.3Z" transform="translate(-388.367 -41.004)" fill="#08a5f6"/>
        <path id="Path_1058" data-name="Path 1058" d="M468.27,161.8q10.375,5.975,20.742,11.942c.63-1.914,1.229-3.843,1.813-5.781q-10.362-5.975-20.734-11.942Q469.215,158.924,468.27,161.8Z" transform="translate(-397.316 -11.396)" fill="#08a5f6"/>
        <path id="Path_1059" data-name="Path 1059" d="M467.1,164.086q10.363,5.975,20.734,11.942c.98-1.719,1.875-3.47,2.738-5.244q-10.375-5.975-20.741-11.942C468.974,160.608,468.079,162.366,467.1,164.086Z" transform="translate(-405.256 7.751)" fill="#08a5f6"/>
      </g>
    </g>
  </g>
</svg>
