<svg width="673" height="546" viewBox="0 0 673 546" fill="none" xmlns="http://www.w3.org/2000/svg">
<g style="mix-blend-mode:multiply" opacity="0.4">
<path d="M102.6 132.06L102.64 132.03C104.66 130.33 107.01 128.91 109.67 127.81L117.78 122.94C118.17 122.69 118.58 122.45 118.99 122.22L119.03 122.19C129.79 116.11 146.91 116.04 168.24 123.06L257.95 115.44C258.27 115.36 258.58 115.29 258.9 115.21C265.09 111.83 303.86 92.6899 305.62 92.1899C310.25 88.4599 319.01 87.8998 330.72 91.3898C331.58 91.6498 332.44 91.9299 333.3 92.2199C335.83 91.0099 337.56 90.1899 337.85 90.1099C340.98 87.5899 346.91 87.2098 354.82 89.5698C370.23 94.1698 387.31 107.41 392.97 119.15C396.53 126.52 394.73 131.54 389.09 133.12C388.95 133.23 388.1 133.69 386.76 134.38C386.89 134.63 387.03 134.89 387.15 135.14C392.41 146.04 389.76 153.47 381.41 155.8C380.45 156.57 355.1 169.18 341.8 175.6L341.08 176.67C343.45 180.41 344.75 184.88 344.53 189.62L344.21 196.62C343.65 208.94 333.12 218.56 320.8 218L320.18 217.97C318.01 217.87 315.93 217.46 313.97 216.79L292.94 247.9C293.8 260.44 289.13 269.48 280.12 274.41L269.28 280.57C268.45 281.1 267.58 281.59 266.68 282.05L266.6 282.1C254.17 288.25 234.14 287.07 209.36 277.07C159.31 256.87 108.83 208.4 96.62 168.79C91.4 151.87 94.01 139.32 102.61 132.05L102.6 132.06Z" fill="#A8C4E5"/>
</g>
<path d="M201.14 267.73L217.04 258.71L114.53 65.73L95.02 77.35L201.14 267.73Z" fill="#E0465C"/>
<path d="M302.01 51.9299C303.1 51.0999 337.58 33.8099 338.95 33.4099C342.89 30.4099 348.8 30.1299 355.66 33.2999C369.01 39.4799 380.92 56.3599 382.25 71.0199C383.08 80.2199 379.55 86.3599 373.49 88.1099C372.4 88.9399 337.92 106.23 336.55 106.63C332.61 109.63 326.7 109.91 319.84 106.74C306.49 100.56 294.58 83.6799 293.25 69.0199C292.42 59.8199 295.95 53.6799 302.01 51.9299Z" fill="#6CCDFF"/>
<path d="M297.9 53.5598C298.99 52.7298 333.47 35.4398 334.84 35.0398C338.78 32.0398 344.69 31.7598 351.55 34.9298C364.9 41.1098 376.81 57.9898 378.14 72.6498C378.97 81.8498 375.44 87.9898 369.38 89.7398C368.29 90.5698 333.81 107.86 332.44 108.26C328.5 111.26 322.59 111.54 315.73 108.37C302.38 102.19 290.47 85.3098 289.14 70.6498C288.31 61.4498 291.84 55.3098 297.9 53.5598Z" fill="#08A5F6"/>
<path d="M308.231 65.1541L302.477 64.8928C289.495 64.3033 278.493 74.3493 277.903 87.3312L273.36 187.388C272.77 200.37 282.816 211.372 295.798 211.961L301.552 212.223C314.534 212.812 325.536 202.766 326.126 189.784L330.669 89.7273C331.259 76.7454 321.213 65.7436 308.231 65.1541Z" fill="#45446C"/>
<path d="M252.2 62.2999C253.81 61.0699 304.81 35.4999 306.83 34.9099C312.66 30.4699 321.4 30.0599 331.55 34.7499C351.3 43.8899 368.91 68.8599 370.87 90.5399C372.1 104.15 366.87 113.22 357.91 115.82C356.3 117.05 305.3 142.62 303.28 143.21C297.45 147.65 288.71 148.06 278.56 143.37C258.81 134.23 241.2 109.26 239.24 87.5799C238.01 73.9699 243.24 64.8999 252.2 62.2999Z" fill="#6CCDFF"/>
<path d="M356.72 55.3098C362.68 64.6398 366.71 75.0298 367.59 84.7598C368.82 98.3698 363.59 107.44 354.63 110.04C353.02 111.27 302.02 136.84 300 137.43C294.17 141.87 285.43 142.28 275.28 137.59C260.97 130.97 250.21 121.11 243.29 105.14L356.72 55.3198V55.3098Z" fill="#08A5F6"/>
<path d="M252.15 61.99L108.39 72.27L209.78 261.28L317.13 133.16C311.58 92.34 283.9 53.44 252.14 61.99H252.15Z" fill="#DCF1FF"/>
<path d="M149.29 148.52L206.1 249.63C206.1 249.63 316.19 127.12 315.55 124.13C312.14 108.41 305.57 93.4998 296.9 82.0898L149.3 148.51L149.29 148.52Z" fill="#D0E7F4"/>
<path d="M216.287 259.094C247.219 243.053 249.773 186.62 221.992 133.047C194.21 79.4739 146.613 49.0476 115.681 65.0881C84.7495 81.1285 82.1956 137.561 109.977 191.135C137.759 244.708 185.355 275.134 216.287 259.094Z" fill="#6CCDFF"/>
<path d="M201.558 267.502C232.49 251.461 235.044 195.028 207.262 141.455C179.481 87.8819 131.884 57.4556 100.952 73.496C70.0201 89.5365 67.4662 145.969 95.2478 199.543C123.029 253.116 170.626 283.542 201.558 267.502Z" fill="#08A5F6"/>
<path d="M203.734 255.882C232.416 241.009 234.782 188.678 209.019 138.997C183.256 89.3171 139.12 61.1006 110.439 75.974C81.7574 90.8475 79.3913 143.179 105.154 192.859C130.917 242.539 175.053 270.756 203.734 255.882Z" fill="white"/>
<path d="M203.24 128C188.94 104.16 169.6 88.98 160.9 83.42C122.4 58.8 89.52 75.85 87.45 121.5C86.86 134.57 87.38 149.28 99 179.73C115.4 128.29 160.39 118.71 203.24 128Z" fill="#DCF1FF"/>
<path d="M220.69 178.22C221.59 158.34 207.56 133.48 189.35 122.69C180.61 117.51 172.5 116.53 166.33 119.09L166.06 119.21C165.79 119.33 165.52 119.45 165.25 119.59L142.52 130.18C141.61 130.51 140.74 130.91 139.92 131.39C134.33 134.64 130.71 141.2 130.29 150.5C129.39 170.38 143.42 195.24 161.63 206.03C170.21 211.11 178.18 212.16 184.31 209.78L184.35 209.76C185.03 209.49 185.68 209.18 186.31 208.83L207.23 198.95C209.05 198.44 210.72 197.64 212.23 196.59H212.24C217.16 193.14 220.3 186.87 220.69 178.24V178.22Z" fill="#D0E7F4"/>
<path d="M180.84 99.71C180.59 99.83 143 119.24 143 119.24C142.16 119.58 141.36 119.98 140.59 120.46C135.42 123.73 132.06 130.3 131.64 139.6C130.74 159.48 143.6 184.29 160.37 195.01C168.27 200.06 175.62 201.08 181.28 198.68L181.32 198.66C181.95 198.39 182.55 198.08 183.13 197.73C183.13 197.73 221.69 177.24 223.09 176.17C218.64 158.35 208.66 128.62 180.84 99.71Z" fill="#59A8FF"/>
<path d="M175.086 189.029C183.446 184.324 182.817 167.35 173.68 151.116C164.544 134.881 150.36 125.535 142 130.24C133.64 134.945 134.269 151.919 143.405 168.154C152.542 184.388 166.726 193.734 175.086 189.029Z" fill="white"/>
<path d="M223.1 176.17C223.1 176.17 220.58 156.66 205.7 132.01C198.37 119.86 192.38 111.23 180.84 99.71L173.83 103.32C173.83 103.32 204.86 133.88 213.85 181.29L223.09 176.17H223.1Z" fill="#5969C4"/>
<path d="M262.73 65.0798L175.27 71.7298L200.61 92.5998L273 76.1598L262.73 65.0798Z" fill="white"/>
<path opacity="0.43" d="M332.92 42.8898L287.31 66.9098L275.73 59.5798L322.16 36.0298L332.92 42.8898Z" fill="white"/>
<g style="mix-blend-mode:multiply" opacity="0.4">
<path d="M594.69 341.94L594.75 324.24H594.73C594.73 320.75 592.62 317.41 588.31 314.91L428.82 222.5C419.27 216.96 402.56 217.63 391.51 223.99L102.26 390.4C96.51 393.71 93.45 397.9 93.16 401.94L93.11 401.91L93.13 402.61C93.13 402.8 93.13 402.98 93.15 403.17L93.57 417.91H93.59C92.11 422.43 94.02 426.99 99.53 430.19L259.02 522.6C263.8 525.37 270.36 526.58 277.11 526.32C278.8 526.25 280.5 526.09 282.18 525.84C285.55 525.34 288.87 524.46 291.94 523.23C293.47 522.61 294.94 521.91 296.32 521.11L585.57 354.7C591.45 351.32 594.51 347.01 594.68 342.88C594.69 342.57 594.7 342.26 594.68 341.95L594.69 341.94Z" fill="#A8C4E5"/>
</g>
<path d="M72.73 406.13L72.27 390.14L92.89 403.52C92.89 403.52 87.07 418.02 86.44 417.51C85.81 417 72.73 406.13 72.73 406.13Z" fill="#A8C4E5"/>
<path d="M238.18 510.81L78.69 418.4C69.14 412.86 70.35 403.22 81.4 396.87L370.65 230.46C381.7 224.1 398.41 223.44 407.96 228.97L567.45 321.38C577 326.92 575.79 336.56 564.74 342.91L275.49 509.32C264.44 515.68 247.73 516.34 238.18 510.81Z" fill="#BBD6F2"/>
<path d="M255.69 422.26L370.65 230.46C381.7 224.1 398.41 223.44 407.96 228.97L567.45 321.38C577 326.92 575.79 336.56 564.74 342.91L275.49 509.32C269.96 512.5 263.03 514.26 256.27 514.52L255.69 422.25V422.26Z" fill="#8DB0DA"/>
<path d="M381.55 358.79L410.91 319.07L573.92 312.47L573.85 331.1L395.63 387.59L381.55 358.79Z" fill="#8DB0DA"/>
<path d="M229.5 495.94C229.5 498.71 227.53 499.83 225.12 498.43C222.71 497.03 220.75 493.65 220.76 490.88C220.76 488.11 222.73 486.99 225.14 488.39C227.55 489.79 229.51 493.17 229.5 495.94Z" fill="#45446C"/>
<path d="M238.21 492.57L78.72 400.16C69.17 394.62 70.38 384.98 81.43 378.63L370.68 212.22C381.73 205.86 398.43 205.2 407.99 210.73L567.48 303.14C577.03 308.68 575.82 318.32 564.77 324.67L275.52 491.08C264.47 497.44 247.77 498.1 238.21 492.57Z" fill="#45446C"/>
<path d="M493.06 275.93L449.02 250.41C447.2 249.36 447.44 247.51 449.54 246.3C451.64 245.09 454.85 244.96 456.66 246.02L500.7 271.54C502.52 272.59 502.28 274.44 500.18 275.65C498.08 276.86 494.87 276.99 493.06 275.93Z" fill="#5366C4"/>
<path d="M172.69 467.06L137.32 446.57C135.82 445.7 134.6 443.36 134.6 441.36C134.6 439.36 135.83 438.44 137.33 439.3L172.7 459.79C174.2 460.66 175.42 463 175.42 465C175.42 467 174.19 467.93 172.69 467.06Z" fill="#45446C"/>
<path d="M523.52 360.2L540.97 350.16C542.01 349.56 542.85 347.95 542.86 346.57C542.86 345.19 542.02 344.55 540.98 345.15L523.53 355.19C522.5 355.79 521.65 357.4 521.64 358.78C521.64 360.16 522.48 360.8 523.52 360.2Z" fill="#45446C"/>
<path d="M498.78 375.69L516.23 365.65C517.27 365.05 518.11 363.44 518.12 362.06C518.12 360.68 517.28 360.04 516.24 360.64L498.79 370.68C497.76 371.28 496.91 372.89 496.9 374.27C496.9 375.65 497.74 376.29 498.78 375.69Z" fill="#45446C"/>
<path d="M379.66 221.78L136.43 361.71C130.77 364.97 130.75 373.14 136.41 376.41L283.82 461.82C286.44 463.34 289.68 463.35 292.31 461.83L535.54 321.9C541.2 318.64 541.22 310.47 535.56 307.2L388.15 221.79C385.53 220.27 382.29 220.26 379.66 221.78Z" fill="#5EABFF"/>
<g style="mix-blend-mode:multiply" opacity="0.4">
<path d="M119.3 294.39C95.79 280.29 57.29 279.65 33.32 292.96C9.34999 306.27 8.98 328.5 32.49 342.6C56 356.7 94.08 357.35 118.49 344.31C145.33 329.97 142.81 308.49 119.29 294.39H119.3Z" fill="#A8C4E5"/>
</g>
<path d="M101.5 295.62C79.17 282.23 42.61 281.62 19.84 294.26C-2.93001 306.9 -3.28001 328.01 19.06 341.4C41.39 354.79 77.55 355.41 100.74 343.02C126.23 329.4 123.83 309 101.5 295.61V295.62Z" fill="#6ACCFF"/>
<path d="M98.96 281.73C76.63 268.34 40.07 267.73 17.3 280.37C-5.47001 293.01 -5.82001 314.12 16.52 327.51C38.85 340.9 75.01 341.52 98.2 329.13C123.69 315.51 121.29 295.11 98.96 281.72V281.73Z" fill="#08A5F6"/>
<path d="M77.41 287.55L78.21 312.99C78.29 315.46 75.94 317.28 73.57 316.6L37.57 306.23C34.28 305.28 34 300.74 37.15 299.39L72.35 284.32C74.71 283.31 77.34 284.99 77.42 287.55H77.41Z" fill="white" stroke="#45446C" stroke-width="1.88" stroke-linecap="round" stroke-linejoin="round"/>
<path d="M495.78 171.83L454.82 148.18C446.26 143.24 439.26 129.87 439.26 118.46V89.0499C439.26 77.6399 446.26 72.3499 454.82 77.2899L495.78 100.94C504.34 105.88 511.34 119.25 511.34 130.66V160.07C511.34 171.48 504.34 176.77 495.78 171.83Z" fill="#C9457B"/>
<path d="M493.76 171.81V134.31C493.76 132.29 492.52 129.92 491.01 129.05L448.33 104.41C447.82 104.12 447.35 104.04 446.94 104.13L446.89 104.08L441.67 106.99L445.58 120.36V143.99C445.58 146.01 446.82 148.38 448.33 149.25L455.18 153.2L466.32 178.86L482.57 170.07L484.62 170.19L487.36 177.13L492.43 174.18C493.23 173.99 493.78 173.14 493.78 171.81H493.76Z" fill="#C9457B"/>
<path d="M451.64 157.14L461.28 177.08C462.39 179.38 465.41 179.96 467.29 178.23L476.55 169.71L451.64 157.15V157.14Z" fill="#FF5EA0"/>
<path d="M487.63 178.62L446.67 154.97C438.11 150.03 431.11 136.66 431.11 125.25V95.8399C431.11 84.4299 438.11 79.1399 446.67 84.0799L487.63 107.73C496.19 112.67 503.19 126.04 503.19 137.45V166.86C503.19 178.27 496.19 183.56 487.63 178.62Z" fill="#FF5EA0"/>
<path d="M460 144.42C462.54 149.32 468.99 150.58 473.19 147.01L482.27 139.28C483.95 138.31 484.97 136.35 484.94 133.6C484.89 127.9 480.39 120.96 474.9 118.11C469.88 115.5 465.77 117.2 465.14 121.87C464.42 116.5 460.23 110.48 455.22 107.87C449.73 105.01 445.33 107.32 445.38 113.02C445.4 115 445.96 117.13 446.9 119.19C446.9 119.19 446.89 119.19 446.88 119.19L447.12 119.65C447.24 119.9 447.37 120.15 447.51 120.39L459.99 144.44L460 144.42Z" fill="white"/>
<path d="M549.23 148.06L566.77 141.56L652.72 244.96L631.22 252.77L549.23 148.06Z" fill="#5B5B84"/>
<path d="M570.04 210.74L626.32 243.04C648.47 255.75 673.82 238.08 671.96 211.24L671.78 208.58C670.92 196.12 664.05 184.82 653.77 178.92L592.09 143.53C570.65 131.23 546.12 148.33 547.92 174.31C548.98 189.62 557.42 203.51 570.04 210.75V210.74Z" fill="#5969C4"/>
<path d="M570.89 217.8L532.84 235.3C529.66 236.76 526.21 233.88 527.08 230.5L538.74 184.98L570.89 217.8Z" fill="#5969C4"/>
<path d="M552.79 217.12L609.07 249.42C631.22 262.13 656.57 244.46 654.71 217.62L654.53 214.96C653.67 202.5 646.8 191.2 636.52 185.3L574.84 149.91C553.4 137.61 528.87 154.71 530.67 180.69C531.73 195.99 540.17 209.89 552.79 217.13V217.12Z" fill="#5EABFF"/>
<path d="M611.41 209.32C611.05 215.54 614.7 222.85 619.57 225.64C624.43 228.43 628.67 225.64 629.02 219.43C629.38 213.21 625.73 205.9 620.86 203.11C616 200.32 611.76 203.11 611.41 209.32Z" fill="white"/>
<path d="M582.49 193.84C582.13 200.06 585.78 207.37 590.65 210.16C595.51 212.95 599.75 210.16 600.1 203.95C600.46 197.73 596.81 190.42 591.94 187.63C587.08 184.84 582.84 187.63 582.49 193.84Z" fill="white"/>
<path d="M556.35 180.03C555.99 186.25 559.64 193.56 564.51 196.35C569.38 199.14 573.61 196.35 573.96 190.14C574.32 183.92 570.67 176.61 565.8 173.82C560.94 171.03 556.7 173.82 556.35 180.03Z" fill="white"/>
<path d="M575.21 102.89L531.89 77.8799C522.84 72.6599 515.44 58.5099 515.44 46.4399V15.3299C515.44 3.25994 522.84 -2.33006 531.89 2.88994L575.21 27.8999C584.26 33.1199 591.66 47.2699 591.66 59.3399V90.4399C591.66 102.51 584.26 108.1 575.21 102.88V102.89Z" fill="white" stroke="#45446C" stroke-width="1.88" stroke-miterlimit="10"/>
<path opacity="0.16" d="M575.21 102.89L531.89 77.8799C522.84 72.6599 515.44 58.5099 515.44 46.4399V15.3299C515.44 3.25994 522.84 -2.33006 531.89 2.88994L575.21 27.8999C584.26 33.1199 591.66 47.2699 591.66 59.3399V90.4399C591.66 102.51 584.26 108.1 575.21 102.88V102.89Z" fill="#45446C"/>
<path d="M573.07 102.87V63.21C573.07 61.07 571.76 58.57 570.16 57.64L525.02 31.58C524.48 31.27 523.98 31.19 523.55 31.28L523.5 31.23L517.98 34.31L522.11 48.45V73.44C522.11 75.58 523.42 78.08 525.02 79.01L532.26 83.19L544.04 110.33L561.22 101.03L563.38 101.16L566.27 108.5L571.63 105.38C572.48 105.18 573.06 104.28 573.06 102.87H573.07Z" fill="#C9457B"/>
<path d="M566.58 35.0899L523.26 10.0799C514.21 4.85988 506.81 10.4499 506.81 22.5199V53.6199C506.81 65.6899 514.21 79.8299 523.26 85.0599L529.02 88.3799L538.71 108.43C539.89 110.87 543.08 111.47 545.07 109.64L553.08 102.27L566.58 110.07C575.63 115.29 583.03 109.7 583.03 97.6299V66.5299C583.03 54.4599 575.63 40.3199 566.58 35.0899Z" fill="white" stroke="#45446C" stroke-width="1.88" stroke-miterlimit="10"/>
<path d="M539.89 36.69L536.72 42.22C536.21 43.12 535.21 43.37 534.06 42.9L526.98 39.99C524.08 38.8 522.93 42.22 525.02 45.77L530.14 54.46C530.97 55.87 531.35 57.43 531.16 58.63L529.95 66.02C529.45 69.05 532.48 73.32 535.08 73.25L541.41 73.09C542.44 73.06 543.67 73.77 544.7 74.99L551.03 82.47C553.62 85.53 556.65 84.75 556.16 81.16L554.95 72.37C554.75 70.94 555.13 69.82 555.97 69.37L561.09 66.6C563.19 65.47 562.03 60.71 559.13 58.55L552.05 53.28C550.9 52.42 549.9 51.02 549.39 49.53L546.22 40.34C544.92 36.58 541.18 34.42 539.88 36.68L539.89 36.69Z" fill="#00B050"/>
<g style="mix-blend-mode:multiply" opacity="0.4">
<path d="M657.09 423.27C644.87 398.58 600.3 384.29 557.53 391.34C519.71 397.58 495.97 418.43 499.45 440.25C498.56 445.82 499.4 451.59 502.23 457.29C503.88 460.61 506.12 463.74 508.86 466.66L496.11 474.02C494.45 472.54 492.66 471.31 490.83 470.43C486.83 468.52 483.38 468.67 481.06 470.43L410.68 512.46C408.09 513.95 406.64 517.16 406.99 521.69C407.67 530.22 414.48 540.13 422.21 543.81C425.64 545.44 428.67 545.57 430.93 544.47L431.02 544.42C431.3 544.28 431.58 544.12 431.84 543.93L501.72 502.12C504.72 500.82 506.44 497.45 506.06 492.55C505.96 491.3 505.72 490.03 505.37 488.75L523.9 478.05C543.9 489.11 573.24 493.93 601.79 489.22C639.61 482.98 663.35 462.13 659.87 440.31C660.76 434.74 659.92 428.97 657.09 423.27ZM533.48 458.89C534.79 459.74 536.16 460.55 537.6 461.31C536.16 460.54 534.79 459.73 533.48 458.89ZM635.83 448.02C635.14 449.07 634.36 450.1 633.49 451.11C634.35 450.1 635.13 449.07 635.83 448.02ZM549.41 466.25C550.93 466.74 552.49 467.18 554.08 467.59C552.49 467.18 550.93 466.73 549.41 466.25ZM595.67 469.32C605.77 467.65 614.53 464.61 621.53 460.64C614.53 464.61 605.76 467.65 595.67 469.32ZM629.06 455.47C627.96 456.4 626.77 457.29 625.52 458.16C626.78 457.3 627.96 456.4 629.06 455.47Z" fill="#A8C4E5"/>
</g>
<path d="M642.85 422.95C630.63 398.26 586.06 383.97 543.29 391.02C500.53 398.07 475.77 423.81 487.99 448.5C500.21 473.19 544.78 487.48 587.55 480.43C630.31 473.38 655.07 447.64 642.85 422.95ZM506.23 444.88C497 426.23 515.7 406.79 548.01 401.46C580.32 396.13 613.99 406.93 623.22 425.58C632.45 444.23 613.75 463.67 581.44 469C549.13 474.33 515.46 463.53 506.23 444.88Z" fill="#45446C"/>
<path d="M464.36 495.41L446.98 485.38L506.71 450.89L524.1 460.93L464.36 495.41Z" fill="#A8C4E5"/>
<path d="M642.85 414.48C630.63 389.79 586.06 375.5 543.29 382.55C500.53 389.6 475.77 415.34 487.99 440.03C500.21 464.72 544.78 479.01 587.55 471.96C630.31 464.91 655.07 439.17 642.85 414.48ZM506.23 436.41C497 417.76 515.7 398.32 548.01 392.99C580.32 387.66 613.99 398.46 623.22 417.11C632.45 435.76 613.75 455.2 581.44 460.53C549.13 465.86 515.46 455.06 506.23 436.41Z" fill="white" stroke="#45446C" stroke-width="1.88" stroke-linecap="round" stroke-linejoin="round"/>
<path d="M492.81 485.39C492.13 476.86 485.32 466.95 477.59 463.27C473.59 461.36 470.14 461.51 467.82 463.27L397.44 505.3L417.69 537.31L488.47 494.96C491.47 493.66 493.19 490.29 492.81 485.39Z" fill="white" stroke="#45446C" stroke-width="1.88" stroke-linecap="round" stroke-linejoin="round"/>
<path d="M418.518 536.836C423.504 533.404 422.726 523.618 416.779 514.979C410.833 506.34 401.97 502.119 396.984 505.551C391.998 508.983 392.777 518.768 398.723 527.408C404.67 536.047 413.532 540.268 418.518 536.836Z" fill="#59A8FF"/>
<path d="M576.99 417.84L531.63 422.28C529.3 422.51 527.23 420.8 527 418.48C526.77 416.15 528.48 414.08 530.81 413.85L576.17 409.41C578.5 409.18 580.57 410.89 580.8 413.21C581.03 415.54 579.32 417.61 576.99 417.84Z" fill="white"/>
<path d="M577.37 430.75L532.01 435.19C529.68 435.42 527.61 433.71 527.38 431.39C527.15 429.06 528.86 426.99 531.19 426.76L576.55 422.32C578.88 422.09 580.95 423.8 581.18 426.12C581.41 428.45 579.7 430.52 577.37 430.75Z" fill="white"/>
<path d="M382.8 221.12L420.99 199.43L383.04 177.66L345.28 199.46L382.8 221.12Z" fill="white" stroke="#45446C" stroke-width="1.88" stroke-linecap="round" stroke-linejoin="round"/>
<path d="M420.68 199.39V247.12V327.33L382.92 349.13V221.19L420.68 199.39Z" fill="white" stroke="#45446C" stroke-width="1.88" stroke-linecap="round" stroke-linejoin="round"/>
<path d="M382.79 221.19L382.82 349.13L344.9 327.33V199.39L382.79 221.19Z" fill="white" stroke="#45446C" stroke-width="1.88" stroke-linecap="round" stroke-linejoin="round"/>
<path d="M334.81 298.93L372.31 277.1L334.79 255.44L297.03 277.24L334.81 298.93Z" fill="white" stroke="#45446C" stroke-width="1.88" stroke-linecap="round" stroke-linejoin="round"/>
<path d="M334.7 379.17L372.12 357.37V277.17L334.7 298.97V379.17Z" fill="white" stroke="#45446C" stroke-width="1.88" stroke-linecap="round" stroke-linejoin="round"/>
<path d="M334.7 379.17L297.28 357.37V277.17L334.7 298.97V379.17Z" fill="white" stroke="#45446C" stroke-width="1.88" stroke-linecap="round" stroke-linejoin="round"/>
<path d="M284.14 359.36L321.9 337.56L284.38 315.9L246.62 337.7L284.14 359.36Z" fill="white" stroke="#45446C" stroke-width="1.88" stroke-linecap="round" stroke-linejoin="round"/>
<path d="M284.8 410.34L246.25 387.23V337.65L284.8 359.45V410.34Z" fill="white" stroke="#45446C" stroke-width="1.88" stroke-linecap="round" stroke-linejoin="round"/>
<path d="M284.09 410.25V359.36L321.84 337.56V388.45L284.09 410.25Z" fill="white" stroke="#45446C" stroke-width="1.88" stroke-linecap="round" stroke-linejoin="round"/>
<path opacity="0.16" d="M420.68 327.33L382.92 349.13L382.8 221.12L420.68 199.43V327.33Z" fill="#45446C"/>
<path opacity="0.16" d="M372.35 357.37L334.59 379.17L334.81 298.93L372.31 277.1L372.35 357.37Z" fill="#45446C"/>
<path opacity="0.16" d="M322.56 387.37L284.8 409.17L284.14 359.36L321.9 337.56L322.56 387.37Z" fill="#45446C"/>
<path d="M407.77 213.65C407.77 214.5 407.08 215.18 406.24 215.18C405.4 215.18 404.71 214.49 404.71 213.65C404.71 212.81 405.4 212.12 406.24 212.12C407.08 212.12 407.77 212.81 407.77 213.65Z" fill="#45446C"/>
<path d="M413.45 210.15C413.45 211 412.76 211.68 411.92 211.68C411.08 211.68 410.39 210.99 410.39 210.15C410.39 209.31 411.08 208.62 411.92 208.62C412.76 208.62 413.45 209.31 413.45 210.15Z" fill="#45446C"/>
<path d="M418.98 207.09C418.98 207.94 418.29 208.62 417.45 208.62C416.61 208.62 415.92 207.93 415.92 207.09C415.92 206.25 416.61 205.56 417.45 205.56C418.29 205.56 418.98 206.25 418.98 207.09Z" fill="#45446C"/>
<path d="M407.77 221.34C407.77 222.19 407.08 222.87 406.24 222.87C405.4 222.87 404.71 222.18 404.71 221.34C404.71 220.5 405.4 219.81 406.24 219.81C407.08 219.81 407.77 220.5 407.77 221.34Z" fill="#45446C"/>
<path d="M413.45 217.84C413.45 218.69 412.76 219.37 411.92 219.37C411.08 219.37 410.39 218.68 410.39 217.84C410.39 217 411.08 216.31 411.92 216.31C412.76 216.31 413.45 217 413.45 217.84Z" fill="#45446C"/>
<path d="M418.98 214.78C418.98 215.63 418.29 216.31 417.45 216.31C416.61 216.31 415.92 215.62 415.92 214.78C415.92 213.94 416.61 213.25 417.45 213.25C418.29 213.25 418.98 213.94 418.98 214.78Z" fill="#45446C"/>
<path d="M407.77 229.03C407.77 229.88 407.08 230.56 406.24 230.56C405.4 230.56 404.71 229.87 404.71 229.03C404.71 228.19 405.4 227.5 406.24 227.5C407.08 227.5 407.77 228.19 407.77 229.03Z" fill="#45446C"/>
<path d="M413.45 225.53C413.45 226.38 412.76 227.06 411.92 227.06C411.08 227.06 410.39 226.37 410.39 225.53C410.39 224.69 411.08 224 411.92 224C412.76 224 413.45 224.69 413.45 225.53Z" fill="#45446C"/>
<path d="M418.98 222.47C418.98 223.32 418.29 224 417.45 224C416.61 224 415.92 223.31 415.92 222.47C415.92 221.63 416.61 220.94 417.45 220.94C418.29 220.94 418.98 221.63 418.98 222.47Z" fill="#45446C"/>
<path d="M407.77 236.72C407.77 237.57 407.08 238.25 406.24 238.25C405.4 238.25 404.71 237.56 404.71 236.72C404.71 235.88 405.4 235.19 406.24 235.19C407.08 235.19 407.77 235.88 407.77 236.72Z" fill="#45446C"/>
<path d="M413.45 233.22C413.45 234.07 412.76 234.75 411.92 234.75C411.08 234.75 410.39 234.06 410.39 233.22C410.39 232.38 411.08 231.69 411.92 231.69C412.76 231.69 413.45 232.38 413.45 233.22Z" fill="#45446C"/>
<path d="M418.98 230.15C418.98 231 418.29 231.68 417.45 231.68C416.61 231.68 415.92 230.99 415.92 230.15C415.92 229.31 416.61 228.62 417.45 228.62C418.29 228.62 418.98 229.31 418.98 230.15Z" fill="#45446C"/>
<path d="M407.77 244.4C407.77 245.25 407.08 245.93 406.24 245.93C405.4 245.93 404.71 245.24 404.71 244.4C404.71 243.56 405.4 242.87 406.24 242.87C407.08 242.87 407.77 243.56 407.77 244.4Z" fill="#45446C"/>
<path d="M413.45 240.9C413.45 241.75 412.76 242.43 411.92 242.43C411.08 242.43 410.39 241.74 410.39 240.9C410.39 240.06 411.08 239.37 411.92 239.37C412.76 239.37 413.45 240.06 413.45 240.9Z" fill="#45446C"/>
<path d="M418.98 237.84C418.98 238.69 418.29 239.37 417.45 239.37C416.61 239.37 415.92 238.68 415.92 237.84C415.92 237 416.61 236.31 417.45 236.31C418.29 236.31 418.98 237 418.98 237.84Z" fill="#45446C"/>
<path d="M407.77 252.09C407.77 252.94 407.08 253.62 406.24 253.62C405.4 253.62 404.71 252.93 404.71 252.09C404.71 251.25 405.4 250.56 406.24 250.56C407.08 250.56 407.77 251.25 407.77 252.09Z" fill="#45446C"/>
<path d="M413.45 248.59C413.45 249.44 412.76 250.12 411.92 250.12C411.08 250.12 410.39 249.43 410.39 248.59C410.39 247.75 411.08 247.06 411.92 247.06C412.76 247.06 413.45 247.75 413.45 248.59Z" fill="#45446C"/>
<path d="M418.98 245.53C418.98 246.38 418.29 247.06 417.45 247.06C416.61 247.06 415.92 246.37 415.92 245.53C415.92 244.69 416.61 244 417.45 244C418.29 244 418.98 244.69 418.98 245.53Z" fill="#45446C"/>
<path d="M407.77 259.78C407.77 260.63 407.08 261.31 406.24 261.31C405.4 261.31 404.71 260.62 404.71 259.78C404.71 258.94 405.4 258.25 406.24 258.25C407.08 258.25 407.77 258.94 407.77 259.78Z" fill="#45446C"/>
<path d="M413.45 256.28C413.45 257.13 412.76 257.81 411.92 257.81C411.08 257.81 410.39 257.12 410.39 256.28C410.39 255.44 411.08 254.75 411.92 254.75C412.76 254.75 413.45 255.44 413.45 256.28Z" fill="#45446C"/>
<path d="M418.98 253.22C418.98 254.07 418.29 254.75 417.45 254.75C416.61 254.75 415.92 254.06 415.92 253.22C415.92 252.38 416.61 251.69 417.45 251.69C418.29 251.69 418.98 252.38 418.98 253.22Z" fill="#45446C"/>
<path d="M407.77 267.47C407.77 268.32 407.08 269 406.24 269C405.4 269 404.71 268.31 404.71 267.47C404.71 266.63 405.4 265.94 406.24 265.94C407.08 265.94 407.77 266.63 407.77 267.47Z" fill="#45446C"/>
<path d="M413.45 263.97C413.45 264.82 412.76 265.5 411.92 265.5C411.08 265.5 410.39 264.81 410.39 263.97C410.39 263.13 411.08 262.44 411.92 262.44C412.76 262.44 413.45 263.13 413.45 263.97Z" fill="#45446C"/>
<path d="M418.98 260.9C418.98 261.75 418.29 262.43 417.45 262.43C416.61 262.43 415.92 261.74 415.92 260.9C415.92 260.06 416.61 259.37 417.45 259.37C418.29 259.37 418.98 260.06 418.98 260.9Z" fill="#45446C"/>
<path d="M407.77 275.15C407.77 276 407.08 276.68 406.24 276.68C405.4 276.68 404.71 275.99 404.71 275.15C404.71 274.31 405.4 273.62 406.24 273.62C407.08 273.62 407.77 274.31 407.77 275.15Z" fill="#45446C"/>
<path d="M413.45 271.65C413.45 272.5 412.76 273.18 411.92 273.18C411.08 273.18 410.39 272.49 410.39 271.65C410.39 270.81 411.08 270.12 411.92 270.12C412.76 270.12 413.45 270.81 413.45 271.65Z" fill="#45446C"/>
<path d="M418.98 268.59C418.98 269.44 418.29 270.12 417.45 270.12C416.61 270.12 415.92 269.43 415.92 268.59C415.92 267.75 416.61 267.06 417.45 267.06C418.29 267.06 418.98 267.75 418.98 268.59Z" fill="#45446C"/>
<path d="M407.77 282.84C407.77 283.69 407.08 284.37 406.24 284.37C405.4 284.37 404.71 283.68 404.71 282.84C404.71 282 405.4 281.31 406.24 281.31C407.08 281.31 407.77 282 407.77 282.84Z" fill="#45446C"/>
<path d="M413.45 279.34C413.45 280.19 412.76 280.87 411.92 280.87C411.08 280.87 410.39 280.18 410.39 279.34C410.39 278.5 411.08 277.81 411.92 277.81C412.76 277.81 413.45 278.5 413.45 279.34Z" fill="#45446C"/>
<path d="M418.98 276.28C418.98 277.13 418.29 277.81 417.45 277.81C416.61 277.81 415.92 277.12 415.92 276.28C415.92 275.44 416.61 274.75 417.45 274.75C418.29 274.75 418.98 275.44 418.98 276.28Z" fill="#45446C"/>
<path d="M407.77 290.53C407.77 291.38 407.08 292.06 406.24 292.06C405.4 292.06 404.71 291.37 404.71 290.53C404.71 289.69 405.4 289 406.24 289C407.08 289 407.77 289.69 407.77 290.53Z" fill="#45446C"/>
<path d="M413.45 287.03C413.45 287.88 412.76 288.56 411.92 288.56C411.08 288.56 410.39 287.87 410.39 287.03C410.39 286.19 411.08 285.5 411.92 285.5C412.76 285.5 413.45 286.19 413.45 287.03Z" fill="#45446C"/>
<path d="M418.98 283.97C418.98 284.82 418.29 285.5 417.45 285.5C416.61 285.5 415.92 284.81 415.92 283.97C415.92 283.13 416.61 282.44 417.45 282.44C418.29 282.44 418.98 283.13 418.98 283.97Z" fill="#45446C"/>
<path d="M407.77 298.22C407.77 299.07 407.08 299.75 406.24 299.75C405.4 299.75 404.71 299.06 404.71 298.22C404.71 297.38 405.4 296.69 406.24 296.69C407.08 296.69 407.77 297.38 407.77 298.22Z" fill="#45446C"/>
<path d="M413.45 294.72C413.45 295.57 412.76 296.25 411.92 296.25C411.08 296.25 410.39 295.56 410.39 294.72C410.39 293.88 411.08 293.19 411.92 293.19C412.76 293.19 413.45 293.88 413.45 294.72Z" fill="#45446C"/>
<path d="M418.98 291.65C418.98 292.5 418.29 293.18 417.45 293.18C416.61 293.18 415.92 292.49 415.92 291.65C415.92 290.81 416.61 290.12 417.45 290.12C418.29 290.12 418.98 290.81 418.98 291.65Z" fill="#45446C"/>
<path d="M407.77 305.9C407.77 306.75 407.08 307.43 406.24 307.43C405.4 307.43 404.71 306.74 404.71 305.9C404.71 305.06 405.4 304.37 406.24 304.37C407.08 304.37 407.77 305.06 407.77 305.9Z" fill="#45446C"/>
<path d="M413.45 302.4C413.45 303.25 412.76 303.93 411.92 303.93C411.08 303.93 410.39 303.24 410.39 302.4C410.39 301.56 411.08 300.87 411.92 300.87C412.76 300.87 413.45 301.56 413.45 302.4Z" fill="#45446C"/>
<path d="M418.98 299.34C418.98 300.19 418.29 300.87 417.45 300.87C416.61 300.87 415.92 300.18 415.92 299.34C415.92 298.5 416.61 297.81 417.45 297.81C418.29 297.81 418.98 298.5 418.98 299.34Z" fill="#45446C"/>
<path d="M407.77 313.59C407.77 314.44 407.08 315.12 406.24 315.12C405.4 315.12 404.71 314.43 404.71 313.59C404.71 312.75 405.4 312.06 406.24 312.06C407.08 312.06 407.77 312.75 407.77 313.59Z" fill="#45446C"/>
<path d="M413.45 310.09C413.45 310.94 412.76 311.62 411.92 311.62C411.08 311.62 410.39 310.93 410.39 310.09C410.39 309.25 411.08 308.56 411.92 308.56C412.76 308.56 413.45 309.25 413.45 310.09Z" fill="#45446C"/>
<path d="M418.98 307.03C418.98 307.88 418.29 308.56 417.45 308.56C416.61 308.56 415.92 307.87 415.92 307.03C415.92 306.19 416.61 305.5 417.45 305.5C418.29 305.5 418.98 306.19 418.98 307.03Z" fill="#45446C"/>
<path d="M407.77 321.28C407.77 322.13 407.08 322.81 406.24 322.81C405.4 322.81 404.71 322.12 404.71 321.28C404.71 320.44 405.4 319.75 406.24 319.75C407.08 319.75 407.77 320.44 407.77 321.28Z" fill="#45446C"/>
<path d="M413.45 317.78C413.45 318.63 412.76 319.31 411.92 319.31C411.08 319.31 410.39 318.62 410.39 317.78C410.39 316.94 411.08 316.25 411.92 316.25C412.76 316.25 413.45 316.94 413.45 317.78Z" fill="#45446C"/>
<path d="M418.98 314.72C418.98 315.57 418.29 316.25 417.45 316.25C416.61 316.25 415.92 315.56 415.92 314.72C415.92 313.88 416.61 313.19 417.45 313.19C418.29 313.19 418.98 313.88 418.98 314.72Z" fill="#45446C"/>
<path d="M407.77 328.97C407.77 329.82 407.08 330.5 406.24 330.5C405.4 330.5 404.71 329.81 404.71 328.97C404.71 328.13 405.4 327.44 406.24 327.44C407.08 327.44 407.77 328.13 407.77 328.97Z" fill="#45446C"/>
<path d="M413.45 325.47C413.45 326.32 412.76 327 411.92 327C411.08 327 410.39 326.31 410.39 325.47C410.39 324.63 411.08 323.94 411.92 323.94C412.76 323.94 413.45 324.63 413.45 325.47Z" fill="#45446C"/>
<path d="M418.98 322.4C418.98 323.25 418.29 323.93 417.45 323.93C416.61 323.93 415.92 323.24 415.92 322.4C415.92 321.56 416.61 320.87 417.45 320.87C418.29 320.87 418.98 321.56 418.98 322.4Z" fill="#45446C"/>
<path d="M483.71 482.36C482.98 482.79 482.04 482.54 481.62 481.81C481.19 481.08 481.44 480.14 482.17 479.72C482.9 479.3 483.84 479.54 484.26 480.27C484.69 481 484.44 481.94 483.71 482.36Z" fill="#45446C"/>
<path d="M489.6 485.52C488.87 485.95 487.93 485.7 487.51 484.97C487.08 484.24 487.33 483.3 488.06 482.88C488.79 482.46 489.73 482.7 490.15 483.43C490.58 484.16 490.33 485.1 489.6 485.52Z" fill="#45446C"/>
<path d="M477.07 486.23C476.34 486.66 475.4 486.41 474.98 485.68C474.55 484.95 474.8 484.01 475.53 483.59C476.26 483.17 477.2 483.41 477.62 484.14C478.04 484.87 477.8 485.81 477.07 486.23Z" fill="#45446C"/>
<path d="M482.95 489.39C482.22 489.82 481.28 489.57 480.86 488.84C480.43 488.11 480.68 487.17 481.41 486.75C482.14 486.33 483.08 486.57 483.5 487.3C483.93 488.03 483.68 488.97 482.95 489.39Z" fill="#45446C"/>
<path d="M488.38 492.62C487.65 493.05 486.71 492.8 486.29 492.07C485.86 491.34 486.11 490.4 486.84 489.98C487.57 489.56 488.51 489.8 488.93 490.53C489.36 491.26 489.11 492.2 488.38 492.62Z" fill="#45446C"/>
<path d="M470.42 490.1C469.69 490.53 468.75 490.28 468.33 489.55C467.9 488.82 468.15 487.88 468.88 487.46C469.61 487.04 470.55 487.28 470.97 488.01C471.4 488.74 471.15 489.68 470.42 490.1Z" fill="#45446C"/>
<path d="M476.31 493.25C475.58 493.68 474.64 493.43 474.22 492.7C473.79 491.97 474.04 491.03 474.77 490.61C475.5 490.19 476.44 490.43 476.86 491.16C477.29 491.89 477.04 492.83 476.31 493.25Z" fill="#45446C"/>
<path d="M481.73 496.49C481 496.92 480.06 496.67 479.64 495.94C479.21 495.21 479.46 494.27 480.19 493.85C480.92 493.43 481.86 493.67 482.28 494.4C482.71 495.13 482.46 496.07 481.73 496.49Z" fill="#45446C"/>
<path d="M463.78 493.97C463.05 494.4 462.11 494.15 461.69 493.42C461.26 492.69 461.51 491.75 462.24 491.33C462.97 490.91 463.91 491.15 464.33 491.88C464.76 492.61 464.51 493.55 463.78 493.97Z" fill="#45446C"/>
<path d="M469.66 497.12C468.93 497.55 467.99 497.3 467.57 496.57C467.14 495.84 467.39 494.9 468.12 494.48C468.85 494.06 469.79 494.3 470.21 495.03C470.64 495.76 470.39 496.7 469.66 497.12Z" fill="#45446C"/>
<path d="M475.09 500.35C474.36 500.78 473.42 500.53 473 499.8C472.58 499.07 472.82 498.13 473.55 497.71C474.28 497.29 475.22 497.53 475.64 498.26C476.07 498.99 475.82 499.93 475.09 500.35Z" fill="#45446C"/>
<path d="M457.13 497.83C456.4 498.26 455.46 498.01 455.04 497.28C454.61 496.55 454.86 495.61 455.59 495.19C456.32 494.77 457.26 495.01 457.68 495.74C458.11 496.47 457.86 497.41 457.13 497.83Z" fill="#45446C"/>
<path d="M463.02 500.99C462.29 501.42 461.35 501.17 460.93 500.44C460.5 499.71 460.75 498.77 461.48 498.35C462.21 497.92 463.15 498.17 463.57 498.9C464 499.63 463.75 500.57 463.02 500.99Z" fill="#45446C"/>
<path d="M468.45 504.22C467.72 504.65 466.78 504.4 466.36 503.67C465.93 502.94 466.18 502 466.91 501.58C467.64 501.16 468.58 501.4 469 502.13C469.43 502.86 469.18 503.8 468.45 504.22Z" fill="#45446C"/>
<path d="M450.49 501.7C449.76 502.13 448.82 501.88 448.4 501.15C447.97 500.42 448.22 499.48 448.95 499.06C449.68 498.64 450.62 498.88 451.04 499.61C451.47 500.34 451.22 501.28 450.49 501.7Z" fill="#45446C"/>
<path d="M456.38 504.85C455.65 505.28 454.71 505.03 454.29 504.3C453.86 503.57 454.11 502.63 454.84 502.21C455.57 501.79 456.51 502.03 456.93 502.76C457.36 503.49 457.11 504.43 456.38 504.85Z" fill="#45446C"/>
<path d="M461.8 508.09C461.07 508.52 460.13 508.27 459.71 507.54C459.28 506.81 459.53 505.87 460.26 505.45C460.99 505.02 461.93 505.27 462.35 506C462.78 506.73 462.53 507.67 461.8 508.09Z" fill="#45446C"/>
<path d="M443.85 505.57C443.12 506 442.18 505.75 441.76 505.02C441.33 504.29 441.58 503.35 442.31 502.93C443.04 502.51 443.98 502.75 444.4 503.48C444.83 504.21 444.58 505.15 443.85 505.57Z" fill="#45446C"/>
<path d="M449.73 508.72C449 509.15 448.06 508.9 447.64 508.17C447.21 507.44 447.46 506.5 448.19 506.08C448.92 505.66 449.86 505.9 450.28 506.63C450.71 507.36 450.46 508.3 449.73 508.72Z" fill="#45446C"/>
<path d="M455.16 511.95C454.43 512.38 453.49 512.13 453.07 511.4C452.64 510.67 452.89 509.73 453.62 509.31C454.35 508.88 455.29 509.13 455.71 509.86C456.14 510.59 455.89 511.53 455.16 511.95Z" fill="#45446C"/>
<path d="M437.2 509.43C436.47 509.86 435.53 509.61 435.11 508.88C434.68 508.15 434.93 507.21 435.66 506.79C436.39 506.37 437.33 506.61 437.75 507.34C438.18 508.07 437.93 509.01 437.2 509.43Z" fill="#45446C"/>
<path d="M443.09 512.59C442.36 513.02 441.42 512.77 441 512.04C440.57 511.31 440.82 510.37 441.55 509.95C442.28 509.53 443.22 509.77 443.64 510.5C444.07 511.23 443.82 512.17 443.09 512.59Z" fill="#45446C"/>
<path d="M448.51 515.82C447.78 516.25 446.84 516 446.42 515.27C445.99 514.54 446.24 513.6 446.97 513.18C447.7 512.75 448.64 513 449.06 513.73C449.49 514.46 449.24 515.4 448.51 515.82Z" fill="#45446C"/>
<path d="M430.56 513.3C429.83 513.73 428.89 513.48 428.47 512.75C428.04 512.02 428.29 511.08 429.02 510.66C429.75 510.24 430.69 510.48 431.11 511.21C431.54 511.94 431.29 512.88 430.56 513.3Z" fill="#45446C"/>
<path d="M436.44 516.45C435.71 516.88 434.77 516.63 434.35 515.9C433.92 515.17 434.17 514.23 434.9 513.81C435.63 513.39 436.57 513.63 436.99 514.36C437.42 515.09 437.17 516.03 436.44 516.45Z" fill="#45446C"/>
<path d="M441.87 519.69C441.14 520.12 440.2 519.87 439.78 519.14C439.35 518.41 439.6 517.47 440.33 517.05C441.06 516.62 442 516.87 442.42 517.6C442.85 518.33 442.6 519.27 441.87 519.69Z" fill="#45446C"/>
<path d="M423.91 517.17C423.18 517.6 422.24 517.35 421.82 516.62C421.39 515.89 421.64 514.95 422.37 514.53C423.1 514.11 424.04 514.35 424.46 515.08C424.89 515.81 424.64 516.75 423.91 517.17Z" fill="#45446C"/>
<path d="M429.8 520.32C429.07 520.75 428.13 520.5 427.71 519.77C427.28 519.04 427.53 518.1 428.26 517.68C428.99 517.26 429.93 517.5 430.35 518.23C430.78 518.96 430.53 519.9 429.8 520.32Z" fill="#45446C"/>
<path d="M435.23 523.56C434.5 523.99 433.56 523.74 433.14 523.01C432.71 522.28 432.96 521.34 433.69 520.92C434.42 520.49 435.36 520.74 435.78 521.47C436.21 522.2 435.96 523.14 435.23 523.56Z" fill="#45446C"/>
<path d="M423.16 524.19C422.43 524.62 421.49 524.37 421.07 523.64C420.64 522.91 420.89 521.97 421.62 521.55C422.35 521.13 423.29 521.37 423.71 522.1C424.14 522.83 423.89 523.77 423.16 524.19Z" fill="#45446C"/>
<path d="M428.58 527.42C427.85 527.85 426.91 527.6 426.49 526.87C426.06 526.14 426.31 525.2 427.04 524.78C427.77 524.35 428.71 524.6 429.13 525.33C429.56 526.06 429.31 527 428.58 527.42Z" fill="#45446C"/>
<path d="M421.94 531.29C421.21 531.72 420.27 531.47 419.85 530.74C419.42 530.01 419.67 529.07 420.4 528.65C421.13 528.22 422.07 528.47 422.49 529.2C422.92 529.93 422.67 530.87 421.94 531.29Z" fill="#45446C"/>
<path d="M357.89 291.9C357.89 292.75 357.2 293.43 356.36 293.43C355.52 293.43 354.83 292.74 354.83 291.9C354.83 291.06 355.52 290.37 356.36 290.37C357.2 290.37 357.89 291.06 357.89 291.9Z" fill="#45446C"/>
<path d="M363.58 288.4C363.58 289.25 362.89 289.93 362.05 289.93C361.21 289.93 360.52 289.24 360.52 288.4C360.52 287.56 361.21 286.87 362.05 286.87C362.89 286.87 363.58 287.56 363.58 288.4Z" fill="#45446C"/>
<path d="M369.1 285.34C369.1 286.19 368.41 286.87 367.57 286.87C366.73 286.87 366.04 286.18 366.04 285.34C366.04 284.5 366.73 283.81 367.57 283.81C368.41 283.81 369.1 284.5 369.1 285.34Z" fill="#45446C"/>
<path d="M357.89 299.59C357.89 300.44 357.2 301.12 356.36 301.12C355.52 301.12 354.83 300.43 354.83 299.59C354.83 298.75 355.52 298.06 356.36 298.06C357.2 298.06 357.89 298.75 357.89 299.59Z" fill="#45446C"/>
<path d="M363.58 296.09C363.58 296.94 362.89 297.62 362.05 297.62C361.21 297.62 360.52 296.93 360.52 296.09C360.52 295.25 361.21 294.56 362.05 294.56C362.89 294.56 363.58 295.25 363.58 296.09Z" fill="#45446C"/>
<path d="M369.1 293.03C369.1 293.88 368.41 294.56 367.57 294.56C366.73 294.56 366.04 293.87 366.04 293.03C366.04 292.19 366.73 291.5 367.57 291.5C368.41 291.5 369.1 292.19 369.1 293.03Z" fill="#45446C"/>
<path d="M357.89 307.28C357.89 308.13 357.2 308.81 356.36 308.81C355.52 308.81 354.83 308.12 354.83 307.28C354.83 306.44 355.52 305.75 356.36 305.75C357.2 305.75 357.89 306.44 357.89 307.28Z" fill="#45446C"/>
<path d="M363.58 303.78C363.58 304.63 362.89 305.31 362.05 305.31C361.21 305.31 360.52 304.62 360.52 303.78C360.52 302.94 361.21 302.25 362.05 302.25C362.89 302.25 363.58 302.94 363.58 303.78Z" fill="#45446C"/>
<path d="M369.1 300.72C369.1 301.57 368.41 302.25 367.57 302.25C366.73 302.25 366.04 301.56 366.04 300.72C366.04 299.88 366.73 299.19 367.57 299.19C368.41 299.19 369.1 299.88 369.1 300.72Z" fill="#45446C"/>
<path d="M357.89 314.97C357.89 315.82 357.2 316.5 356.36 316.5C355.52 316.5 354.83 315.81 354.83 314.97C354.83 314.13 355.52 313.44 356.36 313.44C357.2 313.44 357.89 314.13 357.89 314.97Z" fill="#45446C"/>
<path d="M363.58 311.47C363.58 312.32 362.89 313 362.05 313C361.21 313 360.52 312.31 360.52 311.47C360.52 310.63 361.21 309.94 362.05 309.94C362.89 309.94 363.58 310.63 363.58 311.47Z" fill="#45446C"/>
<path d="M369.1 308.4C369.1 309.25 368.41 309.93 367.57 309.93C366.73 309.93 366.04 309.24 366.04 308.4C366.04 307.56 366.73 306.87 367.57 306.87C368.41 306.87 369.1 307.56 369.1 308.4Z" fill="#45446C"/>
<path d="M357.89 322.65C357.89 323.5 357.2 324.18 356.36 324.18C355.52 324.18 354.83 323.49 354.83 322.65C354.83 321.81 355.52 321.12 356.36 321.12C357.2 321.12 357.89 321.81 357.89 322.65Z" fill="#45446C"/>
<path d="M363.58 319.15C363.58 320 362.89 320.68 362.05 320.68C361.21 320.68 360.52 319.99 360.52 319.15C360.52 318.31 361.21 317.62 362.05 317.62C362.89 317.62 363.58 318.31 363.58 319.15Z" fill="#45446C"/>
<path d="M369.1 316.09C369.1 316.94 368.41 317.62 367.57 317.62C366.73 317.62 366.04 316.93 366.04 316.09C366.04 315.25 366.73 314.56 367.57 314.56C368.41 314.56 369.1 315.25 369.1 316.09Z" fill="#45446C"/>
<path d="M357.89 330.34C357.89 331.19 357.2 331.87 356.36 331.87C355.52 331.87 354.83 331.18 354.83 330.34C354.83 329.5 355.52 328.81 356.36 328.81C357.2 328.81 357.89 329.5 357.89 330.34Z" fill="#45446C"/>
<path d="M363.58 326.84C363.58 327.69 362.89 328.37 362.05 328.37C361.21 328.37 360.52 327.68 360.52 326.84C360.52 326 361.21 325.31 362.05 325.31C362.89 325.31 363.58 326 363.58 326.84Z" fill="#45446C"/>
<path d="M369.1 323.78C369.1 324.63 368.41 325.31 367.57 325.31C366.73 325.31 366.04 324.62 366.04 323.78C366.04 322.94 366.73 322.25 367.57 322.25C368.41 322.25 369.1 322.94 369.1 323.78Z" fill="#45446C"/>
<path d="M357.89 338.03C357.89 338.88 357.2 339.56 356.36 339.56C355.52 339.56 354.83 338.87 354.83 338.03C354.83 337.19 355.52 336.5 356.36 336.5C357.2 336.5 357.89 337.19 357.89 338.03Z" fill="#45446C"/>
<path d="M363.58 334.53C363.58 335.38 362.89 336.06 362.05 336.06C361.21 336.06 360.52 335.37 360.52 334.53C360.52 333.69 361.21 333 362.05 333C362.89 333 363.58 333.69 363.58 334.53Z" fill="#45446C"/>
<path d="M369.1 331.47C369.1 332.32 368.41 333 367.57 333C366.73 333 366.04 332.31 366.04 331.47C366.04 330.63 366.73 329.94 367.57 329.94C368.41 329.94 369.1 330.63 369.1 331.47Z" fill="#45446C"/>
<path d="M357.89 345.72C357.89 346.57 357.2 347.25 356.36 347.25C355.52 347.25 354.83 346.56 354.83 345.72C354.83 344.88 355.52 344.19 356.36 344.19C357.2 344.19 357.89 344.88 357.89 345.72Z" fill="#45446C"/>
<path d="M363.58 342.22C363.58 343.07 362.89 343.75 362.05 343.75C361.21 343.75 360.52 343.06 360.52 342.22C360.52 341.38 361.21 340.69 362.05 340.69C362.89 340.69 363.58 341.38 363.58 342.22Z" fill="#45446C"/>
<path d="M369.1 339.15C369.1 340 368.41 340.68 367.57 340.68C366.73 340.68 366.04 339.99 366.04 339.15C366.04 338.31 366.73 337.62 367.57 337.62C368.41 337.62 369.1 338.31 369.1 339.15Z" fill="#45446C"/>
<path d="M357.89 353.4C357.89 354.25 357.2 354.93 356.36 354.93C355.52 354.93 354.83 354.24 354.83 353.4C354.83 352.56 355.52 351.87 356.36 351.87C357.2 351.87 357.89 352.56 357.89 353.4Z" fill="#45446C"/>
<path d="M363.58 349.9C363.58 350.75 362.89 351.43 362.05 351.43C361.21 351.43 360.52 350.74 360.52 349.9C360.52 349.06 361.21 348.37 362.05 348.37C362.89 348.37 363.58 349.06 363.58 349.9Z" fill="#45446C"/>
<path d="M369.1 346.84C369.1 347.69 368.41 348.37 367.57 348.37C366.73 348.37 366.04 347.68 366.04 346.84C366.04 346 366.73 345.31 367.57 345.31C368.41 345.31 369.1 346 369.1 346.84Z" fill="#45446C"/>
<path d="M357.89 361.09C357.89 361.94 357.2 362.62 356.36 362.62C355.52 362.62 354.83 361.93 354.83 361.09C354.83 360.25 355.52 359.56 356.36 359.56C357.2 359.56 357.89 360.25 357.89 361.09Z" fill="#45446C"/>
<path d="M363.58 357.59C363.58 358.44 362.89 359.12 362.05 359.12C361.21 359.12 360.52 358.43 360.52 357.59C360.52 356.75 361.21 356.06 362.05 356.06C362.89 356.06 363.58 356.75 363.58 357.59Z" fill="#45446C"/>
<path d="M369.1 354.53C369.1 355.38 368.41 356.06 367.57 356.06C366.73 356.06 366.04 355.37 366.04 354.53C366.04 353.69 366.73 353 367.57 353C368.41 353 369.1 353.69 369.1 354.53Z" fill="#45446C"/>
<path d="M307.23 353.4C307.23 354.25 306.54 354.93 305.7 354.93C304.86 354.93 304.17 354.24 304.17 353.4C304.17 352.56 304.86 351.87 305.7 351.87C306.54 351.87 307.23 352.56 307.23 353.4Z" fill="#45446C"/>
<path d="M312.92 349.9C312.92 350.75 312.23 351.43 311.39 351.43C310.55 351.43 309.86 350.74 309.86 349.9C309.86 349.06 310.55 348.37 311.39 348.37C312.23 348.37 312.92 349.06 312.92 349.9Z" fill="#45446C"/>
<path d="M318.45 346.84C318.45 347.69 317.76 348.37 316.92 348.37C316.08 348.37 315.39 347.68 315.39 346.84C315.39 346 316.08 345.31 316.92 345.31C317.76 345.31 318.45 346 318.45 346.84Z" fill="#45446C"/>
<path d="M307.23 361.09C307.23 361.94 306.54 362.62 305.7 362.62C304.86 362.62 304.17 361.93 304.17 361.09C304.17 360.25 304.86 359.56 305.7 359.56C306.54 359.56 307.23 360.25 307.23 361.09Z" fill="#45446C"/>
<path d="M312.92 357.59C312.92 358.44 312.23 359.12 311.39 359.12C310.55 359.12 309.86 358.43 309.86 357.59C309.86 356.75 310.55 356.06 311.39 356.06C312.23 356.06 312.92 356.75 312.92 357.59Z" fill="#45446C"/>
<path d="M318.45 354.53C318.45 355.38 317.76 356.06 316.92 356.06C316.08 356.06 315.39 355.37 315.39 354.53C315.39 353.69 316.08 353 316.92 353C317.76 353 318.45 353.69 318.45 354.53Z" fill="#45446C"/>
<path d="M307.23 368.78C307.23 369.63 306.54 370.31 305.7 370.31C304.86 370.31 304.17 369.62 304.17 368.78C304.17 367.94 304.86 367.25 305.7 367.25C306.54 367.25 307.23 367.94 307.23 368.78Z" fill="#45446C"/>
<path d="M312.92 365.28C312.92 366.13 312.23 366.81 311.39 366.81C310.55 366.81 309.86 366.12 309.86 365.28C309.86 364.44 310.55 363.75 311.39 363.75C312.23 363.75 312.92 364.44 312.92 365.28Z" fill="#45446C"/>
<path d="M318.45 362.22C318.45 363.07 317.76 363.75 316.92 363.75C316.08 363.75 315.39 363.06 315.39 362.22C315.39 361.38 316.08 360.69 316.92 360.69C317.76 360.69 318.45 361.38 318.45 362.22Z" fill="#45446C"/>
<path d="M307.23 376.47C307.23 377.32 306.54 378 305.7 378C304.86 378 304.17 377.31 304.17 376.47C304.17 375.63 304.86 374.94 305.7 374.94C306.54 374.94 307.23 375.63 307.23 376.47Z" fill="#45446C"/>
<path d="M312.92 372.97C312.92 373.82 312.23 374.5 311.39 374.5C310.55 374.5 309.86 373.81 309.86 372.97C309.86 372.13 310.55 371.44 311.39 371.44C312.23 371.44 312.92 372.13 312.92 372.97Z" fill="#45446C"/>
<path d="M318.45 369.9C318.45 370.75 317.76 371.43 316.92 371.43C316.08 371.43 315.39 370.74 315.39 369.9C315.39 369.06 316.08 368.37 316.92 368.37C317.76 368.37 318.45 369.06 318.45 369.9Z" fill="#45446C"/>
<path d="M307.23 384.15C307.23 385 306.54 385.68 305.7 385.68C304.86 385.68 304.17 384.99 304.17 384.15C304.17 383.31 304.86 382.62 305.7 382.62C306.54 382.62 307.23 383.31 307.23 384.15Z" fill="#45446C"/>
<path d="M312.92 380.65C312.92 381.5 312.23 382.18 311.39 382.18C310.55 382.18 309.86 381.49 309.86 380.65C309.86 379.81 310.55 379.12 311.39 379.12C312.23 379.12 312.92 379.81 312.92 380.65Z" fill="#45446C"/>
<path d="M318.45 377.59C318.45 378.44 317.76 379.12 316.92 379.12C316.08 379.12 315.39 378.43 315.39 377.59C315.39 376.75 316.08 376.06 316.92 376.06C317.76 376.06 318.45 376.75 318.45 377.59Z" fill="#45446C"/>
<path d="M307.23 391.84C307.23 392.69 306.54 393.37 305.7 393.37C304.86 393.37 304.17 392.68 304.17 391.84C304.17 391 304.86 390.31 305.7 390.31C306.54 390.31 307.23 391 307.23 391.84Z" fill="#45446C"/>
<path d="M312.92 388.34C312.92 389.19 312.23 389.87 311.39 389.87C310.55 389.87 309.86 389.18 309.86 388.34C309.86 387.5 310.55 386.81 311.39 386.81C312.23 386.81 312.92 387.5 312.92 388.34Z" fill="#45446C"/>
<path d="M318.45 385.28C318.45 386.13 317.76 386.81 316.92 386.81C316.08 386.81 315.39 386.12 315.39 385.28C315.39 384.44 316.08 383.75 316.92 383.75C317.76 383.75 318.45 384.44 318.45 385.28Z" fill="#45446C"/>
<g style="mix-blend-mode:multiply" opacity="0.4">
<path d="M284.09 410.25L332.06 438.97L473.51 357.59L420.68 327.33L284.09 410.25Z" fill="#A8C4E5"/>
</g>
</svg>
