<svg xmlns="http://www.w3.org/2000/svg" width="167.029" height="164" viewBox="0 0 167.029 164">
  <g id="SEO_Icon" data-name="SEO Icon" transform="translate(-150 -330.014)">
    <path id="Path_1313" data-name="Path 1313" d="M237.541,402.1a27.654,27.654,0,1,1-27.662,27.653A27.653,27.653,0,0,1,237.541,402.1Zm-36.982,24.6a5.742,5.742,0,0,1,.564,9.77,5.561,5.561,0,0,0-2.476,4.641,5.72,5.72,0,0,0,6.212,5.794c.163-.009.318-.015.472-.015a5.741,5.741,0,0,1,5.291,7.936,5.859,5.859,0,0,0-.464,2.251,5.766,5.766,0,0,0,9.251,4.5,5.675,5.675,0,0,1,3.459-1.176,5.747,5.747,0,0,1,5.67,4.718,5.743,5.743,0,0,0,11.046.944,5.738,5.738,0,0,1,9.591-1.958,5.561,5.561,0,0,0,4.131,1.849,5.748,5.748,0,0,0,5.67-7.032,5.725,5.725,0,0,1,7.017-6.83,6.452,6.452,0,0,0,1.5.185,5.753,5.753,0,0,0,3.937-9.847,5.652,5.652,0,0,1-1.717-4.077,5.717,5.717,0,0,1,3.922-5.46,5.744,5.744,0,0,0-.642-11.069,5.735,5.735,0,0,1-3.3-9.214,5.673,5.673,0,0,0,1.3-3.565,5.773,5.773,0,0,0-7.828-5.4,5.726,5.726,0,0,1-7.758-5.971c.023-.224.038-.457.038-.673a5.746,5.746,0,0,0-10.372-3.335,5.744,5.744,0,0,1-9.755-.827,5.576,5.576,0,0,0-5.082-3.173,5.688,5.688,0,0,0-5.785,5.384,5.736,5.736,0,0,1-8.656,4.579,5.7,5.7,0,0,0-2.94-.834,5.765,5.765,0,0,0-5,8.571,5.677,5.677,0,0,1,.727,2.785,5.742,5.742,0,0,1-5.53,5.74,5.693,5.693,0,0,0-5.538,5.8,5.568,5.568,0,0,0,3.04,5.005Z" transform="translate(-2.205 -2.768)" fill="#08a5f6"/>
    <path id="Path_1314" data-name="Path 1314" d="M232.048,421.811l4.663-6.53a2.977,2.977,0,0,1,2.654-1.267,3.284,3.284,0,0,1,2.3.9,3.206,3.206,0,0,1,.982,2.492v27.113q0,3.19-3.233,3.186-3.133,0-3.133-3.186v-18.2a3.307,3.307,0,0,1-1.857.588,2.789,2.789,0,0,1-2.1-.929,3.175,3.175,0,0,1-.874-2.251,3.282,3.282,0,0,1,.589-1.918Zm6.389,30.445a21.605,21.605,0,1,0-21.613-21.6,21.63,21.63,0,0,0,21.613,21.6Z" transform="translate(-3.101 -3.667)" fill="#08a5f6"/>
    <path id="Path_1315" data-name="Path 1315" d="M269.775,461.667c-.209,0-.418,0-.627-.016a1.6,1.6,0,0,0-1.694,1.649,11.589,11.589,0,0,1-2.53,7.55,12.055,12.055,0,0,1-9.337,4.494,11.5,11.5,0,0,1-7.309-2.607.953.953,0,0,0-1.431.309l-.015.03a.925.925,0,0,0,.062.976l17.652,24.613a3.491,3.491,0,0,0,6.319-1.857l.348-6.536a3.487,3.487,0,0,1,4.432-3.172l6.3,1.764a3.49,3.49,0,0,0,3.782-5.392l-15.64-21.806Z" transform="translate(-4.488 -6.108)" fill="#08a5f6"/>
    <path id="Path_1316" data-name="Path 1316" d="M195.121,489.109l6.3-1.764a3.487,3.487,0,0,1,4.432,3.172l.34,6.536a3.492,3.492,0,0,0,6.32,1.857l13.977-19.492a2.044,2.044,0,0,0-.309-2.746,11.53,11.53,0,0,1-3.055-4.1,2.217,2.217,0,0,0-2.886-1.114,11.476,11.476,0,0,1-4.611.959,11.932,11.932,0,0,1-9.367-4.656,2.209,2.209,0,0,0-3.535.076l-11.386,15.881a3.486,3.486,0,0,0,3.775,5.392Z" transform="translate(-1.887 -6.353)" fill="#08a5f6"/>
    <path id="Path_1317" data-name="Path 1317" d="M308.5,330.014H158.517A8.524,8.524,0,0,0,150,338.539V441.318a8.519,8.519,0,0,0,8.517,8.524l36.185-.07a13.693,13.693,0,0,1-5.639-7.8H158.517a.652.652,0,0,1-.65-.658V338.539a.656.656,0,0,1,.65-.658H308.5a.662.662,0,0,1,.657.658V440.01a1.97,1.97,0,0,1-1.972,1.965H278.708a13.5,13.5,0,0,1-.9,6.907c-.1.248-.209.5-.325.743l31.569-.061a8,8,0,0,0,7.983-7.991V338.539a8.526,8.526,0,0,0-8.524-8.525Z" transform="translate(0 0)" fill="#08a5f6"/>
    <path id="Path_1318" data-name="Path 1318" d="M271.978,359.223a4.84,4.84,0,0,1,.155,9.677h-.317a4.84,4.84,0,0,1,.162-9.677Zm16.592,0a4.84,4.84,0,0,1,.155,9.677h-.318a4.84,4.84,0,0,1,.162-9.677Zm-90.194,47.24a13.442,13.442,0,0,1,1.276-10.737,13.758,13.758,0,0,1,11.766-6.8,13.513,13.513,0,0,1,4.246.7A13.622,13.622,0,0,1,239.3,384.8a13.349,13.349,0,0,1,8.888-3.365,13.664,13.664,0,0,1,13.607,12.091,14.012,14.012,0,0,1,2.057-.162,13.649,13.649,0,0,1,13.576,13.676,13.418,13.418,0,0,1-1.424,6,13.674,13.674,0,0,1,4.254,21.829H295.71a6.355,6.355,0,0,0,6.35-6.351V351.495a4.971,4.971,0,0,0-4.974-4.974H171.473a4.971,4.971,0,0,0-4.974,4.974v8.339h88.794a4.043,4.043,0,0,1,4.1,3.813,3.934,3.934,0,0,1-3.93,4.053H166.5v62.2a4.975,4.975,0,0,0,4.974,4.974h18.534a13.5,13.5,0,0,1,2.924-4.92,13.318,13.318,0,0,1-4.719-10.265,13.6,13.6,0,0,1,10.164-13.226Z" transform="translate(-0.766 -0.766)"/>
  </g>
</svg>
