<svg xmlns="http://www.w3.org/2000/svg" width="100" height="100" viewBox="0 0 100 100">
  <g id="spider" transform="translate(-1454 -748)">
    <g id="Ellipse_8" data-name="Ellipse 8" transform="translate(1454 748)" fill="#fff" stroke="#000" stroke-width="1">
      <circle cx="50" cy="50" r="50" stroke="none"/>
      <circle cx="50" cy="50" r="49.5" fill="none"/>
    </g>
    <g id="Group_271" data-name="Group 271" transform="translate(1326 443.327)">
      <path id="Path_1844" data-name="Path 1844" d="M174.373,341.117a2.178,2.178,0,1,1,2.178-2.178,2.179,2.179,0,0,1-2.178,2.178Zm-6.887,0a2.178,2.178,0,1,1,2.178-2.178,2.178,2.178,0,0,1-2.178,2.178Zm-6.887,0a2.178,2.178,0,1,1,2.178-2.178,2.178,2.178,0,0,1-2.178,2.178Zm-3.528,37.333h26.136c-.005-.038-.01-.077-.015-.116l-.358-3.668H157.071a3.293,3.293,0,0,1-3.289-3.288V346.463h46.832v7.909a3.221,3.221,0,0,1,2.011-.7c.106,0,.212.006.315.016a3.208,3.208,0,0,1,1.456.514V336.595a7.08,7.08,0,0,0-7.071-7.072H157.071A7.08,7.08,0,0,0,150,336.595v34.783a7.08,7.08,0,0,0,7.071,7.073Z"/>
      <path id="Path_1845" data-name="Path 1845" d="M192.011,416.632a5.494,5.494,0,1,0,5.494-5.492,5.494,5.494,0,0,0-5.494,5.492Z" transform="translate(-28.871 -56.089)" fill="#08a5f6"/>
      <path id="Path_1846" data-name="Path 1846" d="M272.482,438.1c0,3.493,2.352,6.324,5.257,6.324S283,441.593,283,438.1s-2.355-6.323-5.257-6.323-5.257,2.83-5.257,6.323Z" transform="translate(-84.172 -70.271)" fill="#08a5f6"/>
      <path id="Path_1847" data-name="Path 1847" d="M266.7,426.072a4.358,4.358,0,0,1-1.365,1.11,3.478,3.478,0,0,1-3.21,0,4.181,4.181,0,0,1-1.055-.769,5.3,5.3,0,0,1-1.176-1.811,6.362,6.362,0,0,1-.449-2.38,6.036,6.036,0,0,1,1.315-3.85,4.351,4.351,0,0,1,1.365-1.11,3.487,3.487,0,0,1,3.21,0,4.2,4.2,0,0,1,1.055.771,5.33,5.33,0,0,1,1.176,1.809,6.362,6.362,0,0,1,.449,2.38,6.035,6.035,0,0,1-1.315,3.85Zm-4.724-12.228a1.9,1.9,0,0,1,2.5-1.013,1.935,1.935,0,0,1,.838.69,1.846,1.846,0,0,1,.187,1.74,4.85,4.85,0,0,0-3.533,0,1.831,1.831,0,0,1,.013-1.417Zm12.413,8.487a.971.971,0,1,0,0-1.943h-4.653a8.009,8.009,0,0,0-.613-1.763l3.4-1.3h0l.275-.1h0a2.192,2.192,0,0,0,1.408-2.044c0-.071-.005-.141-.01-.212v0l-.53-5.413a.971.971,0,1,0-1.933.19l.528,5.411a.107.107,0,0,1,0,.027.228.228,0,0,1-.046.139.25.25,0,0,1-.113.091l-.275.1h0l-3.533,1.352a.942.942,0,0,0-.224.143,6.706,6.706,0,0,0-.855-.827.876.876,0,0,0,.053-.079h0a3.847,3.847,0,1,0-7.382-1.514,3.884,3.884,0,0,0,.308,1.514,1.093,1.093,0,0,0,.091.13,6.767,6.767,0,0,0-.58.424c-.111.109-.192.246-.293.362a.959.959,0,0,0-.242-.153l-3.533-1.352-.275-.1a.234.234,0,0,1-.113-.092.238.238,0,0,1-.046-.14.078.078,0,0,1,0-.023h0l.528-5.413a.971.971,0,0,0-1.933-.19l-.53,5.413h0c-.005.071-.01.141-.01.212a2.194,2.194,0,0,0,1.408,2.047l.272.1,3.407,1.3c-.081.168-.187.318-.255.492a8.055,8.055,0,0,0-.371,1.268h-4.651a.971.971,0,0,0,0,1.943h4.444a8.44,8.44,0,0,0,.245,1.853l-2.819,1.077h0l-.275.1h0a2.192,2.192,0,0,0-1.408,2.044c0,.069.005.143.01.217l.53,5.409a.971.971,0,1,0,1.933-.188l-.528-5.413v0a.053.053,0,0,1,0-.022.227.227,0,0,1,.046-.139.242.242,0,0,1,.113-.091l.275-.1h0l2.786-1.066a7.355,7.355,0,0,0,.845,1.306,6.286,6.286,0,0,0,1.976,1.6,5.433,5.433,0,0,0,4.977,0,6.153,6.153,0,0,0,1.539-1.123A7.13,7.13,0,0,0,269.017,426l2.806,1.074.273.1a.236.236,0,0,1,.116.091.243.243,0,0,1,.046.141c0,.008,0,.015,0,.023h0l-.528,5.413a.971.971,0,1,0,1.933.188l.53-5.413h0c.005-.071.01-.141.01-.211a2.2,2.2,0,0,0-.378-1.228,2.172,2.172,0,0,0-1.03-.819l-.275-.1-2.814-1.077a8.392,8.392,0,0,0,.242-1.853Z" transform="translate(-70.161 -54.393)"/>
    </g>
  </g>
</svg>
